<svg width="24" height="24" viewBox="0 0 24 24" fill="none" xmlns="http://www.w3.org/2000/svg">
<path d="M19.7599 5.71014C19.8542 5.74603 19.9547 5.76252 20.0555 5.75865C20.1563 5.75477 20.2553 5.7306 20.3465 5.68758C20.4378 5.64457 20.5194 5.58358 20.5865 5.50829C20.6537 5.43299 20.7049 5.34493 20.7372 5.24937C20.7695 5.15381 20.7822 5.05272 20.7745 4.95214C20.7668 4.85156 20.739 4.75356 20.6925 4.664C20.6461 4.57445 20.5821 4.49518 20.5043 4.43095C20.4265 4.36671 20.3366 4.31882 20.2399 4.29014L17.2399 3.29014C17.1075 3.24545 16.9653 3.23862 16.8293 3.27042C16.6932 3.30222 16.5687 3.3714 16.4699 3.47014L13.6899 6.25014H7.60994C7.46908 5.83247 7.20967 5.46484 6.86337 5.19214C6.51707 4.91943 6.09886 4.75345 5.65981 4.71445C5.22075 4.67545 4.77984 4.76512 4.39089 4.97252C4.00195 5.17992 3.6818 5.49607 3.46953 5.88237C3.25726 6.26868 3.16205 6.70843 3.19552 7.14794C3.229 7.58746 3.38971 8.00771 3.65804 8.35742C3.92637 8.70712 4.29071 8.97113 4.70658 9.11723C5.12245 9.26333 5.57186 9.28519 5.99994 9.18014L9.99994 15.2501C9.34268 15.7429 8.87911 16.4507 8.68994 17.2501H7.99994C7.53662 17.2527 7.09303 17.438 6.76541 17.7656C6.43778 18.0932 6.25257 18.5368 6.24994 19.0001V21.0001C6.25253 21.1982 6.33238 21.3875 6.47247 21.5276C6.61257 21.6677 6.80183 21.7475 6.99994 21.7501H16.9999C17.198 21.7475 17.3873 21.6677 17.5274 21.5276C17.6675 21.3875 17.7473 21.1982 17.7499 21.0001V19.0001C17.7473 18.5368 17.5621 18.0932 17.2344 17.7656C16.9068 17.438 16.4632 17.2527 15.9999 17.2501H15.3399C15.1681 16.4916 14.7443 15.8138 14.1378 15.327C13.5312 14.8403 12.7776 14.5735 11.9999 14.5701C11.7848 14.5731 11.5705 14.5965 11.3599 14.6401L7.27994 8.36014C7.42081 8.17509 7.53213 7.96931 7.60994 7.75014H13.6899L16.4699 10.5301C16.6104 10.6708 16.8011 10.7499 16.9999 10.7501C17.0792 10.7646 17.1606 10.7646 17.2399 10.7501L20.2399 9.75014C20.3366 9.72147 20.4265 9.67358 20.5043 9.60934C20.5821 9.5451 20.6461 9.46583 20.6925 9.37628C20.739 9.28673 20.7668 9.18873 20.7745 9.08815C20.7822 8.98757 20.7695 8.88647 20.7372 8.79091C20.7049 8.69535 20.6537 8.60729 20.5865 8.532C20.5194 8.4567 20.4378 8.39572 20.3465 8.3527C20.2553 8.30969 20.1563 8.28552 20.0555 8.28164C19.9547 8.27776 19.8542 8.29426 19.7599 8.33014L17.1999 9.18014L15.0599 7.00014L17.1999 4.86014L19.7599 5.71014ZM16.2499 19.0001V20.2501H7.74994V19.0001C7.74994 18.9338 7.77628 18.8702 7.82316 18.8233C7.87005 18.7765 7.93364 18.7501 7.99994 18.7501H15.9999C16.0662 18.7501 16.1298 18.7765 16.1767 18.8233C16.2236 18.8702 16.2499 18.9338 16.2499 19.0001ZM13.7699 17.2501H10.2299C10.3764 16.9016 10.6225 16.6041 10.9374 16.3949C11.2522 16.1857 11.6219 16.0741 11.9999 16.0741C12.3779 16.0741 12.7476 16.1857 13.0624 16.3949C13.3773 16.6041 13.6234 16.9016 13.7699 17.2501ZM4.74994 7.00014C4.74994 6.85181 4.79393 6.7068 4.87634 6.58347C4.95875 6.46013 5.07588 6.364 5.21293 6.30723C5.34997 6.25047 5.50077 6.23561 5.64626 6.26455C5.79174 6.29349 5.92538 6.36492 6.03027 6.46981C6.13516 6.5747 6.20659 6.70834 6.23553 6.85382C6.26447 6.99931 6.24962 7.15011 6.19285 7.28716C6.13609 7.4242 6.03996 7.54133 5.91662 7.62375C5.79328 7.70616 5.64828 7.75014 5.49994 7.75014C5.30183 7.74755 5.11257 7.6677 4.97248 7.52761C4.83238 7.38751 4.75253 7.19825 4.74994 7.00014Z" fill="#D3D8DA"/>
</svg>
