<svg width="994" height="1059" viewBox="0 0 994 1059" fill="none" xmlns="http://www.w3.org/2000/svg">
<path d="M403.5 619.5C390.166 624 371.5 645.3 403.5 694.5C429.549 734.551 437.707 761.194 439.03 774.213C439.488 778.709 439.257 783.246 439.464 787.76C442.045 844.157 416.532 954.564 292.5 994.5C163.3 1036.1 118.666 940.167 112.5 887C111.666 873.167 119.9 846 159.5 848C199.1 850 193.333 898.833 185.5 923C171.667 962.167 115.3 1044 0.5 1058" stroke="#80A1D3" stroke-dasharray="10 10"/>
<path d="M899.823 -123C948.489 -83.8333 1031.22 21.2 972.823 128C966.323 141.5 935.423 179.2 863.823 222C792.223 264.8 857.989 396.5 899.823 457" stroke="#80A1D3" stroke-dasharray="10 10"/>
<path d="M185 877C191.4 913.8 168 953 155 967C135 945.5 118.5 913 117 892.5C115.5 872 122.136 856.481 150 852.5C171 849.5 183.261 867 185 877Z" fill="#D8E8FF"/>
<path d="M130.5 894C127.7 868.4 148.667 867.667 159.5 870.5L176.5 887.5C174 911 153.74 912.246 148.5 910C145 908.5 135 908.833 130.5 910C134.1 902.8 130.828 897 130.5 894Z" fill="#0066FF"/>
<circle cx="168.5" cy="878" r="11" fill="#FFD263" stroke="white" stroke-width="3"/>
</svg>
