<svg width="441" height="440" viewBox="0 0 441 440" fill="none" xmlns="http://www.w3.org/2000/svg">
<path d="M403.5 0.5C390.166 5 371.5 26.3 403.5 75.5C429.549 115.551 437.707 142.194 439.03 155.213C439.488 159.709 439.257 164.246 439.464 168.76C442.045 225.157 416.532 335.564 292.5 375.5C163.3 417.1 118.666 321.167 112.5 268C111.666 254.167 119.9 227 159.5 229C199.1 231 193.333 279.833 185.5 304C171.667 343.167 115.3 425 0.5 439" stroke="#80A1D3" stroke-dasharray="10 10"/>
<path d="M185 258C191.4 294.8 168 334 155 348C135 326.5 118.5 294 117 273.5C115.5 253 122.136 237.481 150 233.5C171 230.5 183.261 248 185 258Z" fill="#D8E8FF"/>
<path d="M130.5 275C127.7 249.4 148.667 248.667 159.5 251.5L176.5 268.5C174 292 153.74 293.246 148.5 291C145 289.5 135 289.833 130.5 291C134.1 283.8 130.828 278 130.5 275Z" fill="#0066FF"/>
<circle cx="168.5" cy="259" r="11" fill="#FFD263" stroke="white" stroke-width="3"/>
</svg>
