<svg width="24" height="24" viewBox="0 0 24 24" fill="none" xmlns="http://www.w3.org/2000/svg">
<path d="M21 8.75C21.1989 8.75 21.3897 8.67098 21.5303 8.53033C21.671 8.38968 21.75 8.19891 21.75 8C21.75 7.80109 21.671 7.61032 21.5303 7.46967C21.3897 7.32902 21.1989 7.25 21 7.25H20.23C20.1689 6.34813 19.7823 5.49914 19.1422 4.86088C18.5021 4.22261 17.652 3.83852 16.75 3.78V3C16.75 2.80109 16.671 2.61032 16.5303 2.46967C16.3897 2.32902 16.1989 2.25 16 2.25C15.8011 2.25 15.6103 2.32902 15.4697 2.46967C15.329 2.61032 15.25 2.80109 15.25 3V3.75H12.75V3C12.75 2.80109 12.671 2.61032 12.5303 2.46967C12.3897 2.32902 12.1989 2.25 12 2.25C11.8011 2.25 11.6103 2.32902 11.4697 2.46967C11.329 2.61032 11.25 2.80109 11.25 3V3.75H8.75V3C8.75 2.80109 8.67098 2.61032 8.53033 2.46967C8.38968 2.32902 8.19891 2.25 8 2.25C7.80109 2.25 7.61032 2.32902 7.46967 2.46967C7.32902 2.61032 7.25 2.80109 7.25 3V3.78C6.349 3.83877 5.50013 4.22322 4.86168 4.86168C4.22322 5.50013 3.83877 6.349 3.78 7.25H3C2.80109 7.25 2.61032 7.32902 2.46967 7.46967C2.32902 7.61032 2.25 7.80109 2.25 8C2.25 8.19891 2.32902 8.38968 2.46967 8.53033C2.61032 8.67098 2.80109 8.75 3 8.75H3.75V11.25H3C2.80109 11.25 2.61032 11.329 2.46967 11.4697C2.32902 11.6103 2.25 11.8011 2.25 12C2.25 12.1989 2.32902 12.3897 2.46967 12.5303C2.61032 12.671 2.80109 12.75 3 12.75H3.75V15.25H3C2.80109 15.25 2.61032 15.329 2.46967 15.4697C2.32902 15.6103 2.25 15.8011 2.25 16C2.25 16.1989 2.32902 16.3897 2.46967 16.5303C2.61032 16.671 2.80109 16.75 3 16.75H3.78C3.83877 17.651 4.22322 18.4999 4.86168 19.1383C5.50013 19.7768 6.349 20.1612 7.25 20.22V21C7.25 21.1989 7.32902 21.3897 7.46967 21.5303C7.61032 21.671 7.80109 21.75 8 21.75C8.19891 21.75 8.38968 21.671 8.53033 21.5303C8.67098 21.3897 8.75 21.1989 8.75 21V20.25H11.25V21C11.25 21.1989 11.329 21.3897 11.4697 21.5303C11.6103 21.671 11.8011 21.75 12 21.75C12.1989 21.75 12.3897 21.671 12.5303 21.5303C12.671 21.3897 12.75 21.1989 12.75 21V20.25H15.25V21C15.25 21.1989 15.329 21.3897 15.4697 21.5303C15.6103 21.671 15.8011 21.75 16 21.75C16.1989 21.75 16.3897 21.671 16.5303 21.5303C16.671 21.3897 16.75 21.1989 16.75 21V20.22C17.652 20.1615 18.5021 19.7774 19.1422 19.1391C19.7823 18.5009 20.1689 17.6519 20.23 16.75H21C21.1989 16.75 21.3897 16.671 21.5303 16.5303C21.671 16.3897 21.75 16.1989 21.75 16C21.75 15.8011 21.671 15.6103 21.5303 15.4697C21.3897 15.329 21.1989 15.25 21 15.25H20.25V12.75H21C21.1989 12.75 21.3897 12.671 21.5303 12.5303C21.671 12.3897 21.75 12.1989 21.75 12C21.75 11.8011 21.671 11.6103 21.5303 11.4697C21.3897 11.329 21.1989 11.25 21 11.25H20.25V8.75H21ZM12 9.25C11.8517 9.25 11.7067 9.20601 11.5833 9.1236C11.46 9.04119 11.3639 8.92406 11.3071 8.78701C11.2503 8.64997 11.2355 8.49917 11.2644 8.35368C11.2934 8.2082 11.3648 8.07456 11.4697 7.96967C11.5746 7.86478 11.7082 7.79335 11.8537 7.76441C11.9992 7.73547 12.15 7.75032 12.287 7.80709C12.4241 7.86386 12.5412 7.95999 12.6236 8.08332C12.706 8.20666 12.75 8.35166 12.75 8.5C12.7474 8.69811 12.6676 8.88737 12.5275 9.02747C12.3874 9.16756 12.1981 9.24741 12 9.25ZM18.76 16.5C18.76 16.7955 18.7018 17.0881 18.5887 17.361C18.4757 17.634 18.3099 17.8821 18.101 18.091C17.8921 18.2999 17.644 18.4657 17.371 18.5787C17.0981 18.6918 16.8055 18.75 16.51 18.75H14.74V17.13L15.5 15C16.0414 15.0073 16.5679 14.8226 16.986 14.4786C17.4041 14.1346 17.6868 13.6535 17.7839 13.1209C17.881 12.5882 17.7862 12.0384 17.5163 11.5689C17.2465 11.0995 16.8191 10.7409 16.3099 10.5567C15.8007 10.3726 15.2428 10.3748 14.7351 10.563C14.2274 10.7511 13.8028 11.1131 13.5367 11.5846C13.2706 12.0562 13.1801 12.6067 13.2814 13.1386C13.3827 13.6705 13.6692 14.1493 14.09 14.49L13.29 16.75C13.2758 16.8327 13.2758 16.9173 13.29 17V18.75H12.79V10.61C13.2285 10.4581 13.6087 10.1732 13.8775 9.79495C14.1464 9.41673 14.2906 8.96405 14.29 8.5C14.2921 8.08703 14.1805 7.68145 13.9674 7.3277C13.7543 6.97395 13.4479 6.68567 13.0819 6.49444C12.7159 6.30321 12.3042 6.21641 11.8922 6.24355C11.4801 6.27069 11.0834 6.41072 10.7456 6.6483C10.4078 6.88589 10.1419 7.21185 9.97708 7.5905C9.81222 7.96914 9.75476 8.38585 9.81097 8.79498C9.86719 9.20412 10.0349 9.58988 10.2958 9.91003C10.5567 10.2302 10.9006 10.4723 11.29 10.61V18.75H10.79V17C10.8044 16.9173 10.8044 16.8327 10.79 16.75L9.99 14.49C10.3946 14.1566 10.6694 13.6919 10.7667 13.1768C10.8639 12.6616 10.7774 12.1287 10.5222 11.6707C10.2669 11.2128 9.85917 10.8589 9.3699 10.6707C8.88062 10.4824 8.34081 10.4717 7.84447 10.6405C7.34813 10.8093 6.9267 11.1468 6.65357 11.5942C6.38044 12.0417 6.2729 12.5708 6.34969 13.0894C6.42648 13.608 6.68273 14.0832 7.07382 14.4323C7.46491 14.7814 7.96605 14.9823 8.49 15L9.24 17.13V18.75H7.5C6.90326 18.75 6.33097 18.5129 5.90901 18.091C5.48705 17.669 5.25 17.0967 5.25 16.5V7.5C5.25 6.90326 5.48705 6.33097 5.90901 5.90901C6.33097 5.48705 6.90326 5.25 7.5 5.25H16.5C17.0967 5.25 17.669 5.48705 18.091 5.90901C18.5129 6.33097 18.75 6.90326 18.75 7.5L18.76 16.5ZM15.5 13.5C15.3517 13.5 15.2067 13.456 15.0833 13.3736C14.96 13.2912 14.8639 13.1741 14.8071 13.037C14.7503 12.9 14.7355 12.7492 14.7644 12.6037C14.7934 12.4582 14.8648 12.3246 14.9697 12.2197C15.0746 12.1148 15.2082 12.0434 15.3537 12.0144C15.4992 11.9855 15.65 12.0003 15.787 12.0571C15.9241 12.1139 16.0412 12.21 16.1236 12.3333C16.206 12.4567 16.25 12.6017 16.25 12.75C16.2474 12.9498 16.1661 13.1406 16.0239 13.2809C15.8817 13.4213 15.6898 13.5 15.49 13.5H15.5ZM8.5 13.5C8.35166 13.5 8.20666 13.456 8.08332 13.3736C7.95999 13.2912 7.86386 13.1741 7.80709 13.037C7.75032 12.9 7.73547 12.7492 7.76441 12.6037C7.79335 12.4582 7.86478 12.3246 7.96967 12.2197C8.07456 12.1148 8.2082 12.0434 8.35368 12.0144C8.49917 11.9855 8.64997 12.0003 8.78701 12.0571C8.92406 12.1139 9.04119 12.21 9.1236 12.3333C9.20601 12.4567 9.25 12.6017 9.25 12.75C9.24737 12.9498 9.16614 13.1406 9.0239 13.2809C8.88165 13.4213 8.68984 13.5 8.49 13.5H8.5Z" fill="#D3D8DA"/>
</svg>
