<svg width="3" height="286" viewBox="0 0 3 286" fill="none" xmlns="http://www.w3.org/2000/svg">
<circle cx="1.5" cy="2" r="1" fill="#E8E8EA"/>
<circle cx="1.5" cy="14" r="1" fill="#E8E8EA"/>
<circle cx="1.5" cy="26" r="1" fill="#E8E8EA"/>
<circle cx="1.5" cy="105" r="1" fill="#E8E8EA"/>
<circle cx="1.5" cy="117" r="1" fill="#E8E8EA"/>
<circle cx="1.5" cy="129" r="1" fill="#E8E8EA"/>
<circle cx="1.5" cy="141" r="1" fill="#E8E8EA"/>
<circle cx="1.5" cy="153" r="1" fill="#E8E8EA"/>
<circle cx="1.5" cy="165" r="1" fill="#E8E8EA"/>
<circle cx="1.5" cy="177" r="1" fill="#E8E8EA"/>
<circle cx="1.5" cy="189" r="1" fill="#E8E8EA"/>
<circle cx="1.5" cy="201" r="1" fill="#E8E8EA"/>
<circle cx="1.5" cy="213" r="1" fill="#E8E8EA"/>
<circle cx="1.5" cy="225" r="1" fill="#E8E8EA"/>
<circle cx="1.5" cy="237" r="1" fill="#E8E8EA"/>
<circle cx="1.5" cy="249" r="1" fill="#E8E8EA"/>
<circle cx="1.5" cy="261" r="1" fill="#E8E8EA"/>
<circle cx="1.5" cy="273" r="1" fill="#E8E8EA"/>
<circle cx="1.5" cy="285" r="1" fill="#E8E8EA"/>
<circle cx="1.5" cy="1.5" r="1.5" fill="#D9D9D9"/>
</svg>
