<svg width="3" height="278" viewBox="0 0 3 278" fill="none" xmlns="http://www.w3.org/2000/svg">
<circle cx="1.5" cy="1" r="1" fill="#E8E8EA"/>
<circle cx="1.5" cy="13" r="1" fill="#E8E8EA"/>
<circle cx="1.5" cy="25" r="1" fill="#E8E8EA"/>
<circle cx="1.5" cy="37" r="1" fill="#E8E8EA"/>
<circle cx="1.5" cy="49" r="1" fill="#E8E8EA"/>
<circle cx="1.5" cy="61" r="1" fill="#E8E8EA"/>
<circle cx="1.5" cy="73" r="1" fill="#E8E8EA"/>
<circle cx="1.5" cy="85" r="1" fill="#E8E8EA"/>
<circle cx="1.5" cy="97" r="1" fill="#E8E8EA"/>
<circle cx="1.5" cy="109" r="1" fill="#E8E8EA"/>
<circle cx="1.5" cy="121" r="1" fill="#E8E8EA"/>
<circle cx="1.5" cy="133" r="1" fill="#E8E8EA"/>
<circle cx="1.5" cy="145" r="1" fill="#E8E8EA"/>
<circle cx="1.5" cy="157" r="1" fill="#E8E8EA"/>
<circle cx="1.5" cy="169" r="1" fill="#E8E8EA"/>
<circle cx="1.5" cy="181" r="1" fill="#E8E8EA"/>
<circle cx="1.5" cy="193" r="1" fill="#E8E8EA"/>
<circle cx="1.5" cy="205" r="1" fill="#E8E8EA"/>
<circle cx="1.5" cy="217" r="1" fill="#E8E8EA"/>
<circle cx="1.5" cy="229" r="1" fill="#E8E8EA"/>
<circle cx="1.5" cy="241" r="1" fill="#E8E8EA"/>
<circle cx="1.5" cy="253" r="1" fill="#E8E8EA"/>
<circle cx="1.5" cy="265" r="1" fill="#E8E8EA"/>
<circle cx="1.5" cy="277" r="1" fill="#E8E8EA"/>
</svg>
