<svg width="187" height="61" viewBox="0 0 187 61" fill="none" xmlns="http://www.w3.org/2000/svg">
<rect x="0.5" y="0.5" width="185.003" height="60" rx="10.5" fill="#171A23" stroke="#64666B"/>
<path d="M72.1281 43.5679H74.2881L69.8061 31.0399H67.4301L62.9481 43.5679H65.0901L65.9901 41.0119H71.2281L72.1281 43.5679ZM70.6521 39.3379H66.5661L68.6181 33.5239L70.6521 39.3379ZM77.5688 35.1079V33.6499H75.5168V48.2839H77.5688V42.1279C78.2168 42.9019 79.3868 43.7299 81.0248 43.7299C83.6348 43.7299 85.6868 41.6239 85.6868 38.5639C85.6868 35.5039 83.6348 33.4879 81.0248 33.4879C79.4048 33.4879 78.1988 34.2799 77.5688 35.1079ZM83.5988 38.5639C83.5988 40.7059 82.1228 41.9479 80.5748 41.9479C79.0448 41.9479 77.5688 40.7419 77.5688 38.5999C77.5688 36.4759 79.0448 35.2699 80.5748 35.2699C82.1228 35.2699 83.5988 36.4219 83.5988 38.5639ZM89.0481 35.1079V33.6499H86.9961V48.2839H89.0481V42.1279C89.6961 42.9019 90.8661 43.7299 92.5041 43.7299C95.1141 43.7299 97.1661 41.6239 97.1661 38.5639C97.1661 35.5039 95.1141 33.4879 92.5041 33.4879C90.8841 33.4879 89.6781 34.2799 89.0481 35.1079ZM95.0781 38.5639C95.0781 40.7059 93.6021 41.9479 92.0541 41.9479C90.5241 41.9479 89.0481 40.7419 89.0481 38.5999C89.0481 36.4759 90.5241 35.2699 92.0541 35.2699C93.6021 35.2699 95.0781 36.4219 95.0781 38.5639ZM98.4753 43.5679H100.527V30.2479H98.4753V43.5679ZM106.677 35.2159C108.207 35.2159 109.413 36.1879 109.449 37.7179H103.959C104.175 36.1519 105.291 35.2159 106.677 35.2159ZM111.321 40.6159H109.107C108.729 41.3899 108.027 42.0019 106.767 42.0019C105.255 42.0019 104.085 41.0119 103.941 39.3739H111.519C111.573 39.0319 111.591 38.7079 111.591 38.3659C111.591 35.4499 109.593 33.4879 106.767 33.4879C103.833 33.4879 101.817 35.4859 101.817 38.5999C101.817 41.7139 103.923 43.7299 106.767 43.7299C109.197 43.7299 110.763 42.3439 111.321 40.6159ZM125.289 40.0219C125.289 35.4499 118.665 37.2139 118.665 34.3879C118.665 33.1819 119.583 32.6059 120.771 32.6419C122.067 32.6779 122.805 33.4519 122.877 34.2979H125.145C124.965 32.1559 123.273 30.8959 120.879 30.8959C118.323 30.8959 116.577 32.2639 116.577 34.4599C116.577 39.0679 123.219 37.1059 123.219 40.1299C123.219 41.1919 122.409 41.9659 120.969 41.9659C119.547 41.9659 118.827 41.1379 118.737 40.1119H116.541C116.541 42.3259 118.467 43.6939 120.969 43.6939C123.759 43.6939 125.289 41.8939 125.289 40.0219ZM127.314 40.8139C127.314 42.8299 128.412 43.5679 130.176 43.5679H131.796V41.8579H130.536C129.672 41.8579 129.384 41.5519 129.384 40.8139V35.3239H131.796V33.6499H129.384V31.1839H127.314V33.6499H126.144V35.3239H127.314V40.8139ZM142.417 38.5999C142.417 35.4859 140.185 33.4879 137.359 33.4879C134.533 33.4879 132.301 35.4859 132.301 38.5999C132.301 41.7139 134.443 43.7299 137.269 43.7299C140.113 43.7299 142.417 41.7139 142.417 38.5999ZM134.389 38.5999C134.389 36.3499 135.775 35.2699 137.323 35.2699C138.853 35.2699 140.311 36.3499 140.311 38.5999C140.311 40.8499 138.799 41.9479 137.269 41.9479C135.721 41.9479 134.389 40.8499 134.389 38.5999ZM145.778 38.3479C145.778 36.2419 146.714 35.6119 148.226 35.6119H148.748V33.4879C147.344 33.4879 146.354 34.0999 145.778 35.0899V33.6499H143.726V43.5679H145.778V38.3479ZM154.09 35.2159C155.62 35.2159 156.826 36.1879 156.862 37.7179H151.372C151.588 36.1519 152.704 35.2159 154.09 35.2159ZM158.734 40.6159H156.52C156.142 41.3899 155.44 42.0019 154.18 42.0019C152.668 42.0019 151.498 41.0119 151.354 39.3739H158.932C158.986 39.0319 159.004 38.7079 159.004 38.3659C159.004 35.4499 157.006 33.4879 154.18 33.4879C151.246 33.4879 149.23 35.4859 149.23 38.5999C149.23 41.7139 151.336 43.7299 154.18 43.7299C156.61 43.7299 158.176 42.3439 158.734 40.6159Z" fill="#F3F3F3"/>
<path d="M67.2869 15.03H65.1169V22H67.2869C69.5769 22 70.9869 20.69 70.9869 18.53C70.9869 16.37 69.5769 15.03 67.2869 15.03ZM66.0269 21.25V15.77H67.2869C69.1069 15.77 70.0569 16.83 70.0569 18.53C70.0569 20.23 69.1069 21.25 67.2869 21.25H66.0269ZM76.9872 19.25C76.9872 17.52 75.7772 16.43 74.2172 16.43C72.6672 16.43 71.4472 17.52 71.4472 19.25C71.4472 20.99 72.6272 22.09 74.1772 22.09C75.7372 22.09 76.9872 20.99 76.9872 19.25ZM72.3772 19.25C72.3772 17.87 73.2472 17.22 74.2072 17.22C75.1472 17.22 76.0572 17.87 76.0572 19.25C76.0572 20.64 75.1272 21.29 74.1772 21.29C73.2272 21.29 72.3772 20.64 72.3772 19.25ZM78.8537 22H79.7937L81.1137 17.65L82.4337 22H83.3737L85.0837 16.52H84.1837L82.9437 21.13L81.6137 16.52H80.6837L79.3237 21.12L78.0637 16.52H77.1337L78.8537 22ZM89.5968 22H90.4968V18.77C90.4968 17.2 89.5268 16.42 88.2568 16.42C87.5168 16.42 86.8568 16.73 86.4968 17.3V16.52H85.5868V22H86.4968V18.97C86.4968 17.79 87.1368 17.21 88.0668 17.21C88.9868 17.21 89.5968 17.78 89.5968 18.9V22ZM91.5833 22H92.4933V14.6H91.5833V22ZM98.8443 19.25C98.8443 17.52 97.6343 16.43 96.0743 16.43C94.5243 16.43 93.3043 17.52 93.3043 19.25C93.3043 20.99 94.4843 22.09 96.0343 22.09C97.5943 22.09 98.8443 20.99 98.8443 19.25ZM94.2343 19.25C94.2343 17.87 95.1043 17.22 96.0643 17.22C97.0043 17.22 97.9143 17.87 97.9143 19.25C97.9143 20.64 96.9843 21.29 96.0343 21.29C95.0843 21.29 94.2343 20.64 94.2343 19.25ZM99.3008 19.24C99.3008 20.94 100.431 22.09 101.891 22.09C102.901 22.09 103.611 21.57 103.941 20.98V22H104.861V16.52H103.941V17.52C103.621 16.95 102.921 16.43 101.901 16.43C100.431 16.43 99.3008 17.53 99.3008 19.24ZM103.941 19.25C103.941 20.54 103.081 21.29 102.081 21.29C101.081 21.29 100.231 20.53 100.231 19.24C100.231 17.95 101.081 17.22 102.081 17.22C103.081 17.22 103.941 17.98 103.941 19.25ZM105.659 19.24C105.659 20.94 106.789 22.09 108.259 22.09C109.259 22.09 109.969 21.58 110.299 20.97V22H111.219V14.6H110.299V17.5C109.919 16.87 109.129 16.43 108.269 16.43C106.789 16.43 105.659 17.53 105.659 19.24ZM110.299 19.25C110.299 20.54 109.439 21.29 108.439 21.29C107.439 21.29 106.589 20.53 106.589 19.24C106.589 17.95 107.439 17.22 108.439 17.22C109.439 17.22 110.299 17.98 110.299 19.25ZM119.822 19.25C119.822 17.52 118.612 16.43 117.052 16.43C115.502 16.43 114.282 17.52 114.282 19.25C114.282 20.99 115.462 22.09 117.012 22.09C118.572 22.09 119.822 20.99 119.822 19.25ZM115.212 19.25C115.212 17.87 116.082 17.22 117.042 17.22C117.982 17.22 118.892 17.87 118.892 19.25C118.892 20.64 117.962 21.29 117.012 21.29C116.062 21.29 115.212 20.64 115.212 19.25ZM124.629 22H125.529V18.77C125.529 17.2 124.559 16.42 123.289 16.42C122.549 16.42 121.889 16.73 121.529 17.3V16.52H120.619V22H121.529V18.97C121.529 17.79 122.169 17.21 123.099 17.21C124.019 17.21 124.629 17.78 124.629 18.9V22ZM129.081 20.5C129.081 21.6 129.631 22 130.601 22H131.421V21.23H130.751C130.191 21.23 129.991 21.04 129.991 20.5V17.27H131.421V16.52H129.991V15.14H129.081V16.52H128.371V17.27H129.081V20.5ZM132.124 22H133.034V18.97C133.034 17.79 133.674 17.21 134.604 17.21C135.524 17.21 136.134 17.78 136.134 18.9V22H137.034V18.77C137.034 17.2 136.064 16.42 134.844 16.42C134.074 16.42 133.394 16.73 133.034 17.31V14.6H132.124V22ZM140.45 17.2C141.39 17.2 142.19 17.79 142.18 18.86H138.72C138.82 17.79 139.56 17.2 140.45 17.2ZM143.01 20.31H142.03C141.83 20.9 141.31 21.32 140.49 21.32C139.56 21.32 138.78 20.71 138.71 19.6H143.09C143.11 19.41 143.12 19.25 143.12 19.05C143.12 17.55 142.08 16.43 140.49 16.43C138.89 16.43 137.78 17.52 137.78 19.25C137.78 20.99 138.93 22.09 140.49 22.09C141.85 22.09 142.73 21.31 143.01 20.31Z" fill="#F3F3F3"/>
<path d="M46.1783 24.2559C46.0445 24.3399 42.8599 26.1072 42.8599 30.0259C43.0102 34.4952 46.8787 36.0624 46.945 36.0624C46.8787 36.1464 46.3608 38.1978 44.8273 40.3482C43.6106 42.201 42.2596 44.0683 40.2082 44.0683C38.2568 44.0683 37.5564 42.834 35.305 42.834C32.887 42.834 32.2027 44.0683 30.3515 44.0683C28.3001 44.0683 26.849 42.1009 25.5654 40.2657C23.8982 37.8639 22.4808 34.095 22.4305 30.4764C22.3968 28.5588 22.7644 26.6738 23.6975 25.0729C25.0148 22.8375 27.3664 21.3206 29.9346 21.2703C31.902 21.204 33.6533 22.6213 34.8544 22.6213C36.0053 22.6213 38.1568 21.2703 40.5908 21.2703C41.6416 21.2714 44.4437 21.5876 46.1783 24.2559ZM34.688 20.8872C34.3376 19.136 35.305 17.3848 36.2054 16.2676C37.3563 14.9171 39.1739 14 40.7411 14C40.8412 15.7512 40.2071 17.4687 39.0739 18.7197C38.0567 20.0707 36.3055 21.0873 34.688 20.8872Z" fill="#F3F3F3"/>
</svg>
