<svg width="30" height="30" viewBox="0 0 30 30" fill="none" xmlns="http://www.w3.org/2000/svg">
<rect width="30" height="30" rx="15" fill="#F99617"/>
<path d="M23.0199 13.6999L20.8999 15.0399C20.4999 15.2899 19.9899 15.2299 19.6599 14.8999L15.1299 10.3699C14.7999 10.0399 14.7399 9.52992 14.9899 9.12992L16.3299 7.00992C17.1499 5.71992 18.7899 5.65992 19.9999 6.85992L23.1799 10.0399C24.2999 11.1699 24.2299 12.9299 23.0199 13.6999Z" fill="white"/>
<path d="M17.7101 22.95L8.99015 23.97C8.91247 23.9804 8.8358 23.9877 8.7602 23.9921C8.07507 24.0325 7.9052 23.2249 8.3905 22.7396L10.9801 20.15C11.3001 19.84 11.3001 19.35 10.9801 19.04C10.6801 18.73 10.1901 18.73 9.87015 19.04L7.2805 21.6296C6.7952 22.1149 5.99507 21.9444 6.03148 21.259C6.0353 21.1871 6.04151 21.1141 6.05015 21.04L7.08015 12.32C7.34015 10.14 8.14015 9.42 10.4401 9.56L11.9401 9.65C12.4301 9.68 12.8901 9.89 13.2401 10.24L19.7901 16.79C20.1402 17.14 20.3501 17.6 20.3701 18.09L20.4601 19.59C20.6901 21.9 19.9001 22.7 17.7101 22.95Z" fill="white"/>
</svg>
