<svg width="187" height="61" viewBox="0 0 187 61" fill="none" xmlns="http://www.w3.org/2000/svg">
<rect x="0.5" y="0.5" width="185.003" height="60" rx="10.5" fill="#171A23" stroke="#64666B"/>
<path d="M69.3921 30.8959C65.8641 30.8959 63.0021 33.5419 63.0021 37.2859C63.0021 41.0479 65.8641 43.6759 69.3921 43.6759C72.7581 43.6759 75.2061 41.2099 75.5841 38.3119V36.7099H68.6901V38.3479H73.3881C73.0821 40.4539 71.6601 41.8219 69.3921 41.8219C66.9081 41.8219 65.1081 40.0399 65.1081 37.2859C65.1081 34.5319 66.9081 32.7679 69.3921 32.7679C70.8861 32.7679 72.0741 33.3979 72.7401 34.6579H75.2061C74.2521 32.2099 72.0021 30.8959 69.3921 30.8959ZM86.3379 38.5999C86.3379 35.4859 84.1059 33.4879 81.2799 33.4879C78.4539 33.4879 76.2219 35.4859 76.2219 38.5999C76.2219 41.7139 78.3639 43.7299 81.1899 43.7299C84.0339 43.7299 86.3379 41.7139 86.3379 38.5999ZM78.3099 38.5999C78.3099 36.3499 79.6959 35.2699 81.2439 35.2699C82.7739 35.2699 84.2319 36.3499 84.2319 38.5999C84.2319 40.8499 82.7199 41.9479 81.1899 41.9479C79.6419 41.9479 78.3099 40.8499 78.3099 38.5999ZM97.0965 38.5999C97.0965 35.4859 94.8644 33.4879 92.0384 33.4879C89.2124 33.4879 86.9804 35.4859 86.9804 38.5999C86.9804 41.7139 89.1224 43.7299 91.9484 43.7299C94.7925 43.7299 97.0965 41.7139 97.0965 38.5999ZM89.0684 38.5999C89.0684 36.3499 90.4544 35.2699 92.0024 35.2699C93.5324 35.2699 94.9904 36.3499 94.9904 38.5999C94.9904 40.8499 93.4785 41.9479 91.9484 41.9479C90.4004 41.9479 89.0684 40.8499 89.0684 38.5999ZM97.721 38.5639C97.721 41.6239 99.791 43.7299 102.401 43.7299C104.021 43.7299 105.209 42.9199 105.839 42.0739V43.7299C105.839 45.7099 104.651 46.6819 103.067 46.6819C101.645 46.6819 100.547 45.9799 100.241 44.9539H98.207C98.459 47.1499 100.421 48.4639 103.067 48.4639C106.163 48.4639 107.909 46.4299 107.909 43.7299V33.6499H105.839V35.0899C105.227 34.2439 104.021 33.4879 102.401 33.4879C99.791 33.4879 97.721 35.5039 97.721 38.5639ZM105.839 38.5999C105.839 40.7419 104.381 41.9479 102.833 41.9479C101.303 41.9479 99.827 40.7059 99.827 38.5639C99.827 36.4219 101.303 35.2699 102.833 35.2699C104.381 35.2699 105.839 36.4759 105.839 38.5999ZM109.884 43.5679H111.936V30.2479H109.884V43.5679ZM118.086 35.2159C119.616 35.2159 120.822 36.1879 120.858 37.7179H115.368C115.584 36.1519 116.7 35.2159 118.086 35.2159ZM122.73 40.6159H120.516C120.138 41.3899 119.436 42.0019 118.176 42.0019C116.664 42.0019 115.494 41.0119 115.35 39.3739H122.928C122.982 39.0319 123 38.7079 123 38.3659C123 35.4499 121.002 33.4879 118.176 33.4879C115.242 33.4879 113.226 35.4859 113.226 38.5999C113.226 41.7139 115.332 43.7299 118.176 43.7299C120.606 43.7299 122.172 42.3439 122.73 40.6159ZM130.307 36.8179V32.7319H132.575C134.177 32.7319 134.897 33.4879 134.897 34.7839C134.897 36.0439 134.177 36.8179 132.575 36.8179H130.307ZM137.003 34.7839C137.003 32.7499 135.545 31.0579 132.575 31.0579H128.255V43.5679H130.307V38.4919H132.575C135.833 38.4919 137.003 36.5659 137.003 34.7839ZM138.241 43.5679H140.293V30.2479H138.241V43.5679ZM141.583 38.5639C141.583 41.6239 143.653 43.7299 146.227 43.7299C147.883 43.7299 149.071 42.9379 149.701 42.0919V43.5679H151.771V33.6499H149.701V35.0899C149.089 34.2799 147.937 33.4879 146.263 33.4879C143.653 33.4879 141.583 35.5039 141.583 38.5639ZM149.701 38.5999C149.701 40.7419 148.243 41.9479 146.695 41.9479C145.165 41.9479 143.689 40.7059 143.689 38.5639C143.689 36.4219 145.165 35.2699 146.695 35.2699C148.243 35.2699 149.701 36.4759 149.701 38.5999ZM157.652 41.2099L154.862 33.6499H152.576L156.482 43.4059L154.466 48.2299H156.59L162.674 33.6499H160.55L157.652 41.2099Z" fill="#F3F3F3"/>
<path d="M68.2769 14.95C66.3169 14.95 64.7769 16.42 64.7769 18.51C64.7769 20.6 66.3169 22.06 68.2769 22.06C70.1669 22.06 71.5369 20.67 71.6969 18.94V18.24H67.9469V18.98H70.7269C70.5869 20.36 69.6469 21.24 68.2769 21.24C66.8069 21.24 65.7069 20.18 65.7069 18.51C65.7069 16.83 66.8069 15.77 68.2769 15.77C69.2569 15.77 70.0169 16.24 70.3969 17.05H71.4869C70.9669 15.71 69.7469 14.95 68.2769 14.95ZM74.8301 17.2C75.7701 17.2 76.5701 17.79 76.5601 18.86H73.1001C73.2001 17.79 73.9401 17.2 74.8301 17.2ZM77.3901 20.31H76.4101C76.2101 20.9 75.6901 21.32 74.8701 21.32C73.9401 21.32 73.1601 20.71 73.0901 19.6H77.4701C77.4901 19.41 77.5001 19.25 77.5001 19.05C77.5001 17.55 76.4601 16.43 74.8701 16.43C73.2701 16.43 72.1601 17.52 72.1601 19.25C72.1601 20.99 73.3101 22.09 74.8701 22.09C76.2301 22.09 77.1101 21.31 77.3901 20.31ZM78.5013 20.5C78.5013 21.6 79.0513 22 80.0213 22H80.8413V21.23H80.1713C79.6113 21.23 79.4113 21.04 79.4113 20.5V17.27H80.8413V16.52H79.4113V15.14H78.5013V16.52H77.7913V17.27H78.5013V20.5ZM83.8099 22H84.7199V16.52H83.8099V22ZM84.2799 15.63C84.6099 15.63 84.8799 15.36 84.8799 15.01C84.8799 14.66 84.6099 14.39 84.2799 14.39C83.9299 14.39 83.6599 14.66 83.6599 15.01C83.6599 15.36 83.9299 15.63 84.2799 15.63ZM86.0708 20.5C86.0708 21.6 86.6208 22 87.5908 22H88.4108V21.23H87.7408C87.1808 21.23 86.9808 21.04 86.9808 20.5V17.27H88.4108V16.52H86.9808V15.14H86.0708V16.52H85.3608V17.27H86.0708V20.5ZM91.5494 22H92.4594V17.27H93.6094V16.52H92.4594V16.13C92.4594 15.42 92.7294 15.12 93.5494 15.12V14.36C92.1494 14.36 91.5494 14.91 91.5494 16.13V16.52H90.8394V17.27H91.5494V22ZM95.1804 19.02C95.1804 17.75 95.8404 17.36 96.7104 17.36H96.9504V16.42C96.0804 16.42 95.4904 16.8 95.1804 17.41V16.52H94.2704V22H95.1804V19.02ZM102.801 19.25C102.801 17.52 101.591 16.43 100.031 16.43C98.4809 16.43 97.2609 17.52 97.2609 19.25C97.2609 20.99 98.4409 22.09 99.9909 22.09C101.551 22.09 102.801 20.99 102.801 19.25ZM98.1909 19.25C98.1909 17.87 99.0609 17.22 100.021 17.22C100.961 17.22 101.871 17.87 101.871 19.25C101.871 20.64 100.941 21.29 99.9909 21.29C99.0409 21.29 98.1909 20.64 98.1909 19.25ZM111.507 22H112.407V18.77C112.407 17.2 111.437 16.42 110.187 16.42C109.347 16.42 108.567 16.85 108.247 17.64C107.887 16.82 107.137 16.42 106.237 16.42C105.517 16.42 104.867 16.73 104.507 17.31V16.52H103.597V22H104.507V18.98C104.507 17.8 105.137 17.21 106.057 17.21C106.957 17.21 107.557 17.78 107.557 18.9V22H108.457V18.98C108.457 17.8 109.087 17.21 110.007 17.21C110.907 17.21 111.507 17.78 111.507 18.9V22Z" fill="#F3F3F3"/>
<path d="M22.8853 16.7798C22.6014 16.8533 22.4006 17.0988 22.4006 17.5209C22.4006 18.7598 22.4006 30.4425 22.4006 30.4425C22.4006 30.4425 22.4006 43.0677 22.4006 43.6253C22.4006 43.9319 22.5361 44.1375 22.7444 44.2138L36.6188 30.4198L22.8853 16.7798Z" fill="#4DB6AC"/>
<path d="M40.4386 26.6225L34.7275 23.3253C34.7275 23.3253 24.2466 17.2732 23.6306 16.9178C23.3638 16.7638 23.1012 16.7232 22.8853 16.7796L36.6195 30.4196L40.4386 26.6225Z" fill="#DCE775"/>
<path d="M23.3748 44.1137C23.7406 43.902 33.8826 38.0466 40.4695 34.2433L36.6188 30.4194L22.7444 44.2134C22.9149 44.276 23.1335 44.2526 23.3748 44.1137Z" fill="#D32F2F"/>
<path d="M46.0493 29.8614C45.502 29.5664 40.4805 26.6466 40.4805 26.6466L40.4386 26.6226L36.6188 30.4196L40.4695 34.2435C43.5165 32.4842 45.8052 31.1635 46.0101 31.0446C46.6591 30.6706 46.5965 30.1563 46.0493 29.8614Z" fill="#FBC02D"/>
</svg>
