<svg width="393" height="329" viewBox="0 0 393 329" fill="none" xmlns="http://www.w3.org/2000/svg">
<path d="M352.463 104.228C346.397 106.942 338.578 117.795 355.833 139.488C367.579 154.254 373.021 165.175 375.195 171.9C376.585 176.2 376.922 180.785 377.354 185.283C379.979 212.645 371.203 262.219 317.128 285.515C258.256 310.878 232.962 267.782 227.674 243.064C226.661 236.597 229.311 223.456 248.018 222.617C266.725 221.778 266.208 244.995 263.611 256.708C258.868 275.743 236.045 316.749 182.703 328.489" stroke="#80A1D3" stroke-dasharray="10 10"/>
<path d="M261.307 235.105C265.97 252.118 256.73 271.598 251.247 278.764C240.879 269.555 231.661 255.017 230.035 245.447C228.408 235.877 230.831 228.282 243.752 225.159C253.49 222.805 260.041 230.481 261.307 235.105Z" fill="#D8E8FF"/>
<path d="M236.449 245.546C233.983 233.636 243.807 232.35 249.027 233.195L257.783 240.423C257.664 251.584 248.195 253.08 245.63 252.259C243.918 251.711 239.231 252.317 237.168 253.068C238.537 249.521 236.738 246.942 236.449 245.546Z" fill="#0066FF"/>
<circle cx="253.595" cy="236.316" r="4.40344" transform="rotate(-5.45938 253.595 236.316)" fill="#FFD263" stroke="white" stroke-width="3"/>
<g filter="url(#filter0_d_4485_40263)">
<rect x="323" y="102" width="85" height="26.0891" rx="13.0446" fill="white"/>
</g>
<rect x="353.578" y="117.709" width="44.3234" height="1.68317" rx="0.841584" fill="#D8E8FF"/>
<rect x="353.578" y="110.977" width="25.2475" height="1.68317" rx="0.841584" fill="#FFECD3"/>
<circle cx="338.148" cy="114.904" r="10.9406" fill="#FF6969"/>
<path d="M201.75 144.393L221.074 120.05C223.692 116.751 228.532 116.297 231.717 119.053C234.683 121.619 235.135 126.052 232.747 129.163L213.819 153.816C211.211 157.213 206.323 157.81 202.974 155.14C199.673 152.508 199.125 147.7 201.75 144.393Z" fill="url(#paint0_linear_4485_40263)"/>
<circle cx="-6.99539" cy="234.995" r="15.0046" fill="#ACE0FF"/>
<circle cx="30.5164" cy="151.106" r="4.77419" fill="#26B67A"/>
<circle cx="31.8789" cy="137.465" r="3.41014" fill="#0066FF"/>
<circle cx="15.1722" cy="107.797" r="5.79724" fill="#F99617"/>
<path d="M280.809 45.763C282.359 49.8612 273.703 55.5817 269.18 57.9296C281.842 62.7962 291.468 55.048 294.699 50.5656L307.942 51.8463C310.203 52.4867 315.888 52.4867 320.54 47.3639C323.13 44.5109 324.772 37.8844 325.756 31.1897C327.101 22.0387 324.236 12.326 316.299 7.57685C298.875 -2.84913 274.957 -0.523546 269.18 2.85982C262.074 7.02207 257.875 25.2719 261.105 33.2763C263.689 39.6797 275.318 44.2689 280.809 45.763Z" fill="#0066FF"/>
<path d="M280.936 26.9293C280.181 26.7334 279.487 26.424 278.852 26.0012C278.231 25.5712 277.781 25.1137 277.504 24.6285L278.14 23.9102C278.408 24.3516 278.81 24.7711 279.347 25.1688C279.897 25.5594 280.506 25.8413 281.174 26.0146C281.812 26.1803 282.35 26.2372 282.787 26.1853C283.237 26.1263 283.588 25.9851 283.843 25.7618C284.106 25.541 284.281 25.266 284.367 24.9369C284.469 24.5401 284.436 24.1905 284.267 23.8882C284.107 23.5885 283.861 23.3231 283.528 23.0922C283.198 22.8516 282.824 22.6203 282.406 22.3982C281.989 22.1762 281.572 21.9494 281.157 21.7177C280.745 21.4764 280.376 21.2051 280.051 20.9039C279.736 20.6052 279.505 20.2611 279.358 19.8717C279.223 19.4752 279.226 19.0059 279.367 18.4638C279.498 17.9605 279.748 17.5346 280.117 17.1862C280.498 16.8306 280.998 16.5986 281.615 16.4901C282.234 16.3719 282.975 16.4246 283.836 16.6481C284.407 16.7963 284.952 17.0255 285.471 17.3357C285.992 17.6362 286.42 17.9796 286.753 18.3658L286.168 19.1282C285.808 18.7248 285.398 18.3913 284.94 18.1277C284.491 17.8666 284.039 17.6771 283.584 17.559C282.975 17.4008 282.45 17.3525 282.01 17.4141C281.571 17.4756 281.218 17.6217 280.951 17.8522C280.697 18.0755 280.525 18.3613 280.434 18.7098C280.331 19.1067 280.36 19.455 280.52 19.7547C280.689 20.057 280.94 20.3236 281.273 20.5545C281.615 20.788 281.995 21.0157 282.413 21.2377C282.831 21.4597 283.241 21.6902 283.644 21.929C284.056 22.1704 284.42 22.4404 284.735 22.7391C285.063 23.0306 285.295 23.3698 285.432 23.7567C285.579 24.1461 285.583 24.607 285.445 25.1393C285.317 25.633 285.062 26.0576 284.681 26.4132C284.302 26.7591 283.798 26.9899 283.168 27.1055C282.551 27.2141 281.807 27.1553 280.936 26.9293ZM291.939 29.691L292.376 28.0068L292.404 27.7196L293.135 24.9029C293.303 24.2544 293.248 23.7082 292.971 23.2643C292.703 22.8229 292.211 22.5093 291.495 22.3234C291.001 22.1953 290.51 22.1558 290.022 22.2048C289.535 22.2539 289.101 22.3737 288.72 22.5644L288.455 21.6743C288.928 21.4456 289.458 21.3145 290.045 21.2809C290.635 21.2377 291.23 21.2939 291.83 21.4496C292.817 21.7058 293.513 22.1498 293.917 22.7815C294.334 23.4062 294.413 24.217 294.154 25.2139L292.926 29.9472L291.939 29.691ZM289.292 29.0818C288.721 28.9336 288.246 28.7123 287.868 28.4179C287.502 28.1163 287.25 27.7721 287.113 27.3852C286.978 26.9887 286.968 26.5726 287.081 26.137C287.184 25.7402 287.368 25.4059 287.635 25.1342C287.914 24.8553 288.292 24.6743 288.768 24.5912C289.256 24.501 289.863 24.55 290.589 24.7384L293.217 25.4203L293.018 26.1898L290.419 25.5155C289.683 25.3246 289.136 25.3222 288.778 25.5082C288.429 25.6967 288.205 25.9845 288.104 26.3717C287.991 26.8073 288.07 27.1997 288.341 27.5489C288.612 27.8982 289.053 28.1519 289.663 28.3101C290.243 28.4608 290.776 28.4595 291.26 28.3061C291.756 28.1456 292.166 27.8388 292.49 27.3857L292.538 28.1574C292.214 28.6105 291.771 28.9243 291.209 29.0988C290.657 29.2758 290.018 29.2701 289.292 29.0818ZM296.191 30.7943L298.417 22.2134C298.593 21.5358 298.933 21.0404 299.438 20.7272C299.943 20.4139 300.568 20.354 301.313 20.5474C301.604 20.6227 301.874 20.7343 302.125 20.882C302.376 21.0298 302.572 21.2098 302.713 21.4221L302.165 22.1012C302.053 21.9377 301.907 21.8018 301.729 21.6935C301.553 21.5755 301.353 21.4876 301.131 21.4298C300.695 21.3168 300.33 21.3512 300.035 21.5329C299.74 21.7146 299.531 22.0426 299.408 22.5169L299.106 23.6784L299.011 24.1651L297.221 31.0617L296.191 30.7943ZM296.581 23.6742L296.804 22.8175L301.522 24.0419L301.3 24.8985L296.581 23.6742ZM304.318 32.9805C303.524 32.7746 302.87 32.4292 302.356 31.9444C301.843 31.4499 301.493 30.8683 301.305 30.1997C301.119 29.5213 301.125 28.8046 301.32 28.0496C301.516 27.2946 301.849 26.6682 302.32 26.1703C302.799 25.6749 303.363 25.3355 304.009 25.1521C304.668 24.9615 305.351 24.9578 306.058 25.1412C306.774 25.327 307.365 25.6561 307.832 26.1283C308.31 26.5934 308.633 27.1626 308.799 27.836C308.968 28.4996 308.953 29.2138 308.754 29.9785C308.742 30.0269 308.723 30.0788 308.698 30.1344C308.686 30.1828 308.672 30.236 308.657 30.2941L302.022 28.5725L302.221 27.803L308.305 29.3814L307.819 29.5809C307.962 29.0291 307.968 28.5089 307.837 28.0202C307.717 27.5244 307.486 27.1027 307.142 26.7553C306.798 26.4078 306.36 26.165 305.828 26.0269C305.305 25.8912 304.804 25.8904 304.325 26.0244C303.846 26.1584 303.434 26.4131 303.089 26.7884C302.744 27.1637 302.498 27.632 302.352 28.1934L302.311 28.3531C302.16 28.9339 302.153 29.4796 302.289 29.9901C302.438 30.4935 302.707 30.9301 303.096 31.2998C303.498 31.6623 303.994 31.9202 304.585 32.0734C305.049 32.1939 305.501 32.2234 305.941 32.1618C306.39 32.1028 306.804 31.9415 307.182 31.6781L307.59 32.4966C307.145 32.8153 306.639 33.0145 306.071 33.0944C305.512 33.1767 304.928 33.1388 304.318 32.9805Z" fill="white"/>
<path d="M37.016 50.384C35.224 50.384 33.5067 50.1493 31.864 49.68C30.2213 49.1893 28.8987 48.56 27.896 47.792L29.656 43.888C30.616 44.5707 31.7467 45.136 33.048 45.584C34.3707 46.0107 35.704 46.224 37.048 46.224C38.072 46.224 38.8933 46.128 39.512 45.936C40.152 45.7227 40.6213 45.4347 40.92 45.072C41.2187 44.7093 41.368 44.2933 41.368 43.824C41.368 43.2267 41.1333 42.7573 40.664 42.416C40.1947 42.0533 39.576 41.7653 38.808 41.552C38.04 41.3173 37.1867 41.104 36.248 40.912C35.3307 40.6987 34.4027 40.4427 33.464 40.144C32.5467 39.8453 31.704 39.4613 30.936 38.992C30.168 38.5227 29.5387 37.904 29.048 37.136C28.5787 36.368 28.344 35.3867 28.344 34.192C28.344 32.912 28.6853 31.7493 29.368 30.704C30.072 29.6373 31.1173 28.7947 32.504 28.176C33.912 27.536 35.672 27.216 37.784 27.216C39.192 27.216 40.5787 27.3867 41.944 27.728C43.3093 28.048 44.5147 28.5387 45.56 29.2L43.96 33.136C42.9147 32.5387 41.8693 32.1013 40.824 31.824C39.7787 31.5253 38.7547 31.376 37.752 31.376C36.7493 31.376 35.928 31.4933 35.288 31.728C34.648 31.9627 34.1893 32.272 33.912 32.656C33.6347 33.0187 33.496 33.4453 33.496 33.936C33.496 34.512 33.7307 34.9813 34.2 35.344C34.6693 35.6853 35.288 35.9627 36.056 36.176C36.824 36.3893 37.6667 36.6027 38.584 36.816C39.5227 37.0293 40.4507 37.2747 41.368 37.552C42.3067 37.8293 43.16 38.2027 43.928 38.672C44.696 39.1413 45.3147 39.76 45.784 40.528C46.2747 41.296 46.52 42.2667 46.52 43.44C46.52 44.6987 46.168 45.8507 45.464 46.896C44.76 47.9413 43.704 48.784 42.296 49.424C40.9093 50.064 39.1493 50.384 37.016 50.384ZM60.2703 50V46.64L59.9503 45.904V39.888C59.9503 38.8213 59.6196 37.9893 58.9583 37.392C58.3183 36.7947 57.3263 36.496 55.9823 36.496C55.0649 36.496 54.1583 36.6453 53.2623 36.944C52.3876 37.2213 51.6409 37.6053 51.0223 38.096L49.2303 34.608C50.1689 33.9467 51.2996 33.4347 52.6223 33.072C53.9449 32.7093 55.2889 32.528 56.6543 32.528C59.2783 32.528 61.3156 33.1467 62.7663 34.384C64.2169 35.6213 64.9423 37.552 64.9423 40.176V50H60.2703ZM55.0223 50.256C53.6783 50.256 52.5263 50.032 51.5663 49.584C50.6063 49.1147 49.8703 48.4853 49.3583 47.696C48.8463 46.9067 48.5903 46.0213 48.5903 45.04C48.5903 44.016 48.8356 43.12 49.3263 42.352C49.8383 41.584 50.6383 40.9867 51.7263 40.56C52.8143 40.112 54.2329 39.888 55.9823 39.888H60.5583V42.8H56.5263C55.3529 42.8 54.5423 42.992 54.0943 43.376C53.6676 43.76 53.4543 44.24 53.4543 44.816C53.4543 45.456 53.6996 45.968 54.1903 46.352C54.7023 46.7147 55.3956 46.896 56.2703 46.896C57.1023 46.896 57.8489 46.704 58.5103 46.32C59.1716 45.9147 59.6516 45.328 59.9503 44.56L60.7183 46.864C60.3556 47.9733 59.6943 48.816 58.7343 49.392C57.7743 49.968 56.5369 50.256 55.0223 50.256ZM70.0683 50V32.4C70.0683 30.4587 70.6443 28.912 71.7963 27.76C72.9483 26.5867 74.5909 26 76.7243 26C77.4496 26 78.1429 26.0747 78.8043 26.224C79.4869 26.3733 80.0629 26.608 80.5323 26.928L79.2203 30.544C78.9429 30.352 78.6336 30.2027 78.2923 30.096C77.9509 29.9893 77.5883 29.936 77.2043 29.936C76.4789 29.936 75.9136 30.1493 75.5083 30.576C75.1243 30.9813 74.9323 31.6 74.9323 32.432V34.032L75.0603 36.176V50H70.0683ZM67.4123 37.008V33.168H79.3483V37.008H67.4123ZM90.1605 50.256C88.1978 50.256 86.4698 49.872 84.9765 49.104C83.5045 48.336 82.3632 47.2907 81.5525 45.968C80.7418 44.624 80.3365 43.0987 80.3365 41.392C80.3365 39.664 80.7312 38.1387 81.5205 36.816C82.3312 35.472 83.4298 34.4267 84.8165 33.68C86.2032 32.912 87.7712 32.528 89.5205 32.528C91.2058 32.528 92.7205 32.8907 94.0645 33.616C95.4298 34.32 96.5072 35.344 97.2965 36.688C98.0858 38.0107 98.4805 39.6 98.4805 41.456C98.4805 41.648 98.4698 41.872 98.4485 42.128C98.4272 42.3627 98.4058 42.5867 98.3845 42.8H84.4005V39.888H95.7605L93.8405 40.752C93.8405 39.856 93.6592 39.0773 93.2965 38.416C92.9338 37.7547 92.4325 37.2427 91.7925 36.88C91.1525 36.496 90.4058 36.304 89.5525 36.304C88.6992 36.304 87.9418 36.496 87.2805 36.88C86.6405 37.2427 86.1392 37.7653 85.7765 38.448C85.4138 39.1093 85.2325 39.8987 85.2325 40.816V41.584C85.2325 42.5227 85.4352 43.3547 85.8405 44.08C86.2672 44.784 86.8538 45.328 87.6005 45.712C88.3685 46.0747 89.2645 46.256 90.2885 46.256C91.2058 46.256 92.0058 46.1173 92.6885 45.84C93.3925 45.5627 94.0325 45.1467 94.6085 44.592L97.2645 47.472C96.4752 48.368 95.4832 49.0613 94.2885 49.552C93.0938 50.0213 91.7178 50.256 90.1605 50.256ZM108.844 50.256C106.817 50.256 105.239 49.744 104.108 48.72C102.977 47.6747 102.412 46.128 102.412 44.08V28.976H107.404V44.016C107.404 44.7413 107.596 45.3067 107.98 45.712C108.364 46.096 108.887 46.288 109.548 46.288C110.337 46.288 111.009 46.0747 111.564 45.648L112.908 49.168C112.396 49.5307 111.777 49.808 111.052 50C110.348 50.1707 109.612 50.256 108.844 50.256ZM99.756 37.008V33.168H111.692V37.008H99.756ZM117.574 56.464C116.678 56.464 115.792 56.3253 114.918 56.048C114.043 55.7707 113.328 55.3867 112.774 54.896L114.598 51.344C114.982 51.6853 115.419 51.952 115.91 52.144C116.422 52.336 116.923 52.432 117.414 52.432C118.118 52.432 118.672 52.2613 119.078 51.92C119.504 51.6 119.888 51.056 120.23 50.288L121.126 48.176L121.51 47.632L127.686 32.784H132.486L124.71 51.056C124.155 52.4427 123.515 53.5307 122.79 54.32C122.086 55.1093 121.296 55.664 120.422 55.984C119.568 56.304 118.619 56.464 117.574 56.464ZM120.518 50.672L112.838 32.784H117.99L123.942 47.184L120.518 50.672ZM143.585 50V32.784H148.577V50H143.585ZM146.081 30.384C145.164 30.384 144.417 30.1173 143.841 29.584C143.265 29.0507 142.977 28.3893 142.977 27.6C142.977 26.8107 143.265 26.1493 143.841 25.616C144.417 25.0827 145.164 24.816 146.081 24.816C146.999 24.816 147.745 25.072 148.321 25.584C148.897 26.0747 149.185 26.7147 149.185 27.504C149.185 28.336 148.897 29.0293 148.321 29.584C147.767 30.1173 147.02 30.384 146.081 30.384ZM159.002 50.256C157.53 50.256 156.112 50.0853 154.746 49.744C153.402 49.3813 152.336 48.9333 151.546 48.4L153.21 44.816C154 45.3067 154.928 45.712 155.994 46.032C157.082 46.3307 158.149 46.48 159.194 46.48C160.346 46.48 161.157 46.3413 161.626 46.064C162.117 45.7867 162.362 45.4027 162.362 44.912C162.362 44.5067 162.17 44.208 161.786 44.016C161.424 43.8027 160.933 43.6427 160.314 43.536C159.696 43.4293 159.013 43.3227 158.266 43.216C157.541 43.1093 156.805 42.9707 156.058 42.8C155.312 42.608 154.629 42.3307 154.01 41.968C153.392 41.6053 152.89 41.1147 152.506 40.496C152.144 39.8773 151.962 39.0773 151.962 38.096C151.962 37.008 152.272 36.048 152.89 35.216C153.53 34.384 154.448 33.7333 155.642 33.264C156.837 32.7733 158.266 32.528 159.93 32.528C161.104 32.528 162.298 32.656 163.514 32.912C164.73 33.168 165.744 33.5413 166.554 34.032L164.89 37.584C164.058 37.0933 163.216 36.7627 162.362 36.592C161.53 36.4 160.72 36.304 159.93 36.304C158.821 36.304 158.01 36.4533 157.498 36.752C156.986 37.0507 156.73 37.4347 156.73 37.904C156.73 38.3307 156.912 38.6507 157.274 38.864C157.658 39.0773 158.16 39.248 158.778 39.376C159.397 39.504 160.069 39.6213 160.794 39.728C161.541 39.8133 162.288 39.952 163.034 40.144C163.781 40.336 164.453 40.6133 165.05 40.976C165.669 41.3173 166.17 41.7973 166.554 42.416C166.938 43.0133 167.13 43.8027 167.13 44.784C167.13 45.8507 166.81 46.8 166.17 47.632C165.53 48.4427 164.602 49.0827 163.386 49.552C162.192 50.0213 160.73 50.256 159.002 50.256ZM180.674 32.528C182.04 32.528 183.256 32.8053 184.322 33.36C185.41 33.8933 186.264 34.7253 186.882 35.856C187.501 36.9653 187.81 38.3947 187.81 40.144V50H182.818V40.912C182.818 39.5253 182.509 38.5013 181.89 37.84C181.293 37.1787 180.44 36.848 179.33 36.848C178.541 36.848 177.826 37.0187 177.186 37.36C176.568 37.68 176.077 38.1813 175.714 38.864C175.373 39.5467 175.202 40.4213 175.202 41.488V50H170.21V32.784H174.978V37.552L174.082 36.112C174.701 34.96 175.586 34.0747 176.738 33.456C177.89 32.8373 179.202 32.528 180.674 32.528ZM191.378 36.88L193.49 29.2L194.194 32.112C193.276 32.112 192.519 31.8453 191.922 31.312C191.346 30.7573 191.058 30.0107 191.058 29.072C191.058 28.1547 191.356 27.4187 191.954 26.864C192.551 26.288 193.287 26 194.161 26C195.058 26 195.794 26.288 196.37 26.864C196.946 27.4187 197.234 28.1547 197.234 29.072C197.234 29.3493 197.212 29.6267 197.17 29.904C197.148 30.16 197.074 30.4693 196.946 30.832C196.839 31.1947 196.658 31.6747 196.402 32.272L194.546 36.88H191.378ZM207.782 50.256C205.755 50.256 204.176 49.744 203.046 48.72C201.915 47.6747 201.35 46.128 201.35 44.08V28.976H206.342V44.016C206.342 44.7413 206.534 45.3067 206.918 45.712C207.302 46.096 207.824 46.288 208.486 46.288C209.275 46.288 209.947 46.0747 210.502 45.648L211.846 49.168C211.334 49.5307 210.715 49.808 209.99 50C209.286 50.1707 208.55 50.256 207.782 50.256ZM198.694 37.008V33.168H210.63V37.008H198.694ZM34.424 77.624H45.208V81.656H34.424V77.624ZM34.808 86.84H47V91H29.656V68.6H46.584V72.76H34.808V86.84ZM48.4093 91L56.1213 80.888L56.0253 83.64L48.6333 73.784H54.2333L58.9053 80.216L56.7933 80.28L61.6253 73.784H66.9373L59.5133 83.544V80.856L67.1933 91H61.5293L56.6333 84.152L58.7133 84.44L53.8493 91H48.4093ZM79.7925 91.256C78.3418 91.256 77.0725 90.936 75.9845 90.296C74.8965 89.656 74.0432 88.6853 73.4245 87.384C72.8272 86.0613 72.5285 84.3973 72.5285 82.392C72.5285 80.3653 72.8165 78.7013 73.3925 77.4C73.9685 76.0987 74.8005 75.128 75.8885 74.488C76.9765 73.848 78.2778 73.528 79.7925 73.528C81.4138 73.528 82.8645 73.9013 84.1445 74.648C85.4458 75.3733 86.4698 76.3973 87.2165 77.72C87.9845 79.0427 88.3685 80.6 88.3685 82.392C88.3685 84.2053 87.9845 85.7733 87.2165 87.096C86.4698 88.4187 85.4458 89.4427 84.1445 90.168C82.8645 90.8933 81.4138 91.256 79.7925 91.256ZM69.6165 97.208V73.784H74.3845V77.304L74.2885 82.424L74.6085 87.512V97.208H69.6165ZM78.9285 87.16C79.7605 87.16 80.4965 86.968 81.1365 86.584C81.7978 86.2 82.3205 85.656 82.7045 84.952C83.1098 84.2267 83.3125 83.3733 83.3125 82.392C83.3125 81.3893 83.1098 80.536 82.7045 79.832C82.3205 79.128 81.7978 78.584 81.1365 78.2C80.4965 77.816 79.7605 77.624 78.9285 77.624C78.0965 77.624 77.3498 77.816 76.6885 78.2C76.0272 78.584 75.5045 79.128 75.1205 79.832C74.7365 80.536 74.5445 81.3893 74.5445 82.392C74.5445 83.3733 74.7365 84.2267 75.1205 84.952C75.5045 85.656 76.0272 86.2 76.6885 86.584C77.3498 86.968 78.0965 87.16 78.9285 87.16ZM100.254 91.256C98.2916 91.256 96.5636 90.872 95.0703 90.104C93.5983 89.336 92.4569 88.2907 91.6463 86.968C90.8356 85.624 90.4303 84.0987 90.4303 82.392C90.4303 80.664 90.8249 79.1387 91.6143 77.816C92.4249 76.472 93.5236 75.4267 94.9103 74.68C96.2969 73.912 97.8649 73.528 99.6143 73.528C101.3 73.528 102.814 73.8907 104.158 74.616C105.524 75.32 106.601 76.344 107.39 77.688C108.18 79.0107 108.574 80.6 108.574 82.456C108.574 82.648 108.564 82.872 108.542 83.128C108.521 83.3627 108.5 83.5867 108.478 83.8H94.4943V80.888H105.854L103.934 81.752C103.934 80.856 103.753 80.0773 103.39 79.416C103.028 78.7547 102.526 78.2427 101.886 77.88C101.246 77.496 100.5 77.304 99.6463 77.304C98.7929 77.304 98.0356 77.496 97.3743 77.88C96.7343 78.2427 96.2329 78.7653 95.8703 79.448C95.5076 80.1093 95.3263 80.8987 95.3263 81.816V82.584C95.3263 83.5227 95.5289 84.3547 95.9343 85.08C96.3609 85.784 96.9476 86.328 97.6943 86.712C98.4623 87.0747 99.3583 87.256 100.382 87.256C101.3 87.256 102.1 87.1173 102.782 86.84C103.486 86.5627 104.126 86.1467 104.702 85.592L107.358 88.472C106.569 89.368 105.577 90.0613 104.382 90.552C103.188 91.0213 101.812 91.256 100.254 91.256ZM122.362 73.528C123.727 73.528 124.943 73.8053 126.01 74.36C127.098 74.8933 127.951 75.7253 128.57 76.856C129.188 77.9653 129.498 79.3947 129.498 81.144V91H124.506V81.912C124.506 80.5253 124.196 79.5013 123.578 78.84C122.98 78.1787 122.127 77.848 121.018 77.848C120.228 77.848 119.514 78.0187 118.874 78.36C118.255 78.68 117.764 79.1813 117.402 79.864C117.06 80.5467 116.89 81.4213 116.89 82.488V91H111.898V73.784H116.666V78.552L115.77 77.112C116.388 75.96 117.274 75.0747 118.426 74.456C119.578 73.8373 120.89 73.528 122.362 73.528ZM139.815 91.256C138.343 91.256 136.924 91.0853 135.559 90.744C134.215 90.3813 133.148 89.9333 132.359 89.4L134.023 85.816C134.812 86.3067 135.74 86.712 136.807 87.032C137.895 87.3307 138.961 87.48 140.007 87.48C141.159 87.48 141.969 87.3413 142.439 87.064C142.929 86.7867 143.175 86.4027 143.175 85.912C143.175 85.5067 142.983 85.208 142.599 85.016C142.236 84.8027 141.745 84.6427 141.127 84.536C140.508 84.4293 139.825 84.3227 139.079 84.216C138.353 84.1093 137.617 83.9707 136.871 83.8C136.124 83.608 135.441 83.3307 134.823 82.968C134.204 82.6053 133.703 82.1147 133.319 81.496C132.956 80.8773 132.775 80.0773 132.775 79.096C132.775 78.008 133.084 77.048 133.703 76.216C134.343 75.384 135.26 74.7333 136.455 74.264C137.649 73.7733 139.079 73.528 140.743 73.528C141.916 73.528 143.111 73.656 144.327 73.912C145.543 74.168 146.556 74.5413 147.367 75.032L145.703 78.584C144.871 78.0933 144.028 77.7627 143.175 77.592C142.343 77.4 141.532 77.304 140.743 77.304C139.633 77.304 138.823 77.4533 138.311 77.752C137.799 78.0507 137.543 78.4347 137.543 78.904C137.543 79.3307 137.724 79.6507 138.087 79.864C138.471 80.0773 138.972 80.248 139.591 80.376C140.209 80.504 140.881 80.6213 141.607 80.728C142.353 80.8133 143.1 80.952 143.847 81.144C144.593 81.336 145.265 81.6133 145.863 81.976C146.481 82.3173 146.983 82.7973 147.367 83.416C147.751 84.0133 147.943 84.8027 147.943 85.784C147.943 86.8507 147.623 87.8 146.983 88.632C146.343 89.4427 145.415 90.0827 144.199 90.552C143.004 91.0213 141.543 91.256 139.815 91.256ZM151.023 91V73.784H156.015V91H151.023ZM153.519 71.384C152.601 71.384 151.855 71.1173 151.279 70.584C150.703 70.0507 150.415 69.3893 150.415 68.6C150.415 67.8107 150.703 67.1493 151.279 66.616C151.855 66.0827 152.601 65.816 153.519 65.816C154.436 65.816 155.183 66.072 155.759 66.584C156.335 67.0747 156.623 67.7147 156.623 68.504C156.623 69.336 156.335 70.0293 155.759 70.584C155.204 71.1173 154.457 71.384 153.519 71.384ZM165.32 91L158.088 73.784H163.24L169.256 88.6H166.696L172.936 73.784H177.736L170.472 91H165.32ZM187.848 91.256C185.885 91.256 184.157 90.872 182.664 90.104C181.192 89.336 180.051 88.2907 179.24 86.968C178.429 85.624 178.024 84.0987 178.024 82.392C178.024 80.664 178.419 79.1387 179.208 77.816C180.019 76.472 181.117 75.4267 182.504 74.68C183.891 73.912 185.459 73.528 187.208 73.528C188.893 73.528 190.408 73.8907 191.752 74.616C193.117 75.32 194.195 76.344 194.984 77.688C195.773 79.0107 196.168 80.6 196.168 82.456C196.168 82.648 196.157 82.872 196.136 83.128C196.115 83.3627 196.093 83.5867 196.072 83.8H182.088V80.888H193.448L191.528 81.752C191.528 80.856 191.347 80.0773 190.984 79.416C190.621 78.7547 190.12 78.2427 189.48 77.88C188.84 77.496 188.093 77.304 187.24 77.304C186.387 77.304 185.629 77.496 184.968 77.88C184.328 78.2427 183.827 78.7653 183.464 79.448C183.101 80.1093 182.92 80.8987 182.92 81.816V82.584C182.92 83.5227 183.123 84.3547 183.528 85.08C183.955 85.784 184.541 86.328 185.288 86.712C186.056 87.0747 186.952 87.256 187.976 87.256C188.893 87.256 189.693 87.1173 190.376 86.84C191.08 86.5627 191.72 86.1467 192.296 85.592L194.952 88.472C194.163 89.368 193.171 90.0613 191.976 90.552C190.781 91.0213 189.405 91.256 187.848 91.256ZM208.906 91V68.6H214.09V91H208.906ZM226.094 91.256C224.067 91.256 222.489 90.744 221.358 89.72C220.227 88.6747 219.662 87.128 219.662 85.08V69.976H224.654V85.016C224.654 85.7413 224.846 86.3067 225.23 86.712C225.614 87.096 226.137 87.288 226.798 87.288C227.587 87.288 228.259 87.0747 228.814 86.648L230.158 90.168C229.646 90.5307 229.027 90.808 228.302 91C227.598 91.1707 226.862 91.256 226.094 91.256ZM217.006 78.008V74.168H228.942V78.008H217.006ZM232.096 77.88L234.208 70.2L234.912 73.112C233.995 73.112 233.238 72.8453 232.64 72.312C232.064 71.7573 231.776 71.0107 231.776 70.072C231.776 69.1547 232.075 68.4187 232.672 67.864C233.27 67.288 234.006 67 234.88 67C235.776 67 236.512 67.288 237.088 67.864C237.664 68.4187 237.952 69.1547 237.952 70.072C237.952 70.3493 237.931 70.6267 237.888 70.904C237.867 71.16 237.792 71.4693 237.664 71.832C237.558 72.1947 237.376 72.6747 237.12 73.272L235.264 77.88H232.096ZM246.565 91.256C245.093 91.256 243.674 91.0853 242.309 90.744C240.965 90.3813 239.898 89.9333 239.109 89.4L240.773 85.816C241.562 86.3067 242.49 86.712 243.557 87.032C244.645 87.3307 245.711 87.48 246.757 87.48C247.909 87.48 248.719 87.3413 249.189 87.064C249.679 86.7867 249.925 86.4027 249.925 85.912C249.925 85.5067 249.733 85.208 249.349 85.016C248.986 84.8027 248.495 84.6427 247.877 84.536C247.258 84.4293 246.575 84.3227 245.829 84.216C245.103 84.1093 244.367 83.9707 243.621 83.8C242.874 83.608 242.191 83.3307 241.573 82.968C240.954 82.6053 240.453 82.1147 240.069 81.496C239.706 80.8773 239.525 80.0773 239.525 79.096C239.525 78.008 239.834 77.048 240.453 76.216C241.093 75.384 242.01 74.7333 243.205 74.264C244.399 73.7733 245.829 73.528 247.493 73.528C248.666 73.528 249.861 73.656 251.077 73.912C252.293 74.168 253.306 74.5413 254.117 75.032L252.453 78.584C251.621 78.0933 250.778 77.7627 249.925 77.592C249.093 77.4 248.282 77.304 247.493 77.304C246.383 77.304 245.573 77.4533 245.061 77.752C244.549 78.0507 244.293 78.4347 244.293 78.904C244.293 79.3307 244.474 79.6507 244.837 79.864C245.221 80.0773 245.722 80.248 246.341 80.376C246.959 80.504 247.631 80.6213 248.357 80.728C249.103 80.8133 249.85 80.952 250.597 81.144C251.343 81.336 252.015 81.6133 252.613 81.976C253.231 82.3173 253.733 82.7973 254.117 83.416C254.501 84.0133 254.693 84.8027 254.693 85.784C254.693 86.8507 254.373 87.8 253.733 88.632C253.093 89.4427 252.165 90.0827 250.949 90.552C249.754 91.0213 248.293 91.256 246.565 91.256Z" fill="#0043A7"/>
<path d="M30.36 132V109.6H39.096C41.0587 109.6 42.7333 109.909 44.12 110.528C45.5067 111.147 46.5733 112.043 47.32 113.216C48.0667 114.389 48.44 115.787 48.44 117.408C48.44 119.029 48.0667 120.427 47.32 121.6C46.5733 122.752 45.5067 123.648 44.12 124.288C42.7333 124.907 41.0587 125.216 39.096 125.216H32.12L33.56 123.712V132H30.36ZM33.56 124.032L32.12 122.432H39C41.048 122.432 42.5947 121.995 43.64 121.12C44.7067 120.245 45.24 119.008 45.24 117.408C45.24 115.808 44.7067 114.571 43.64 113.696C42.5947 112.821 41.048 112.384 39 112.384H32.12L33.56 110.784V124.032ZM52.3808 132V115.04H55.3248V119.648L55.0368 118.496C55.5061 117.323 56.2954 116.427 57.4048 115.808C58.5141 115.189 59.8794 114.88 61.5008 114.88V117.856C61.3728 117.835 61.2448 117.824 61.1168 117.824C61.0101 117.824 60.9034 117.824 60.7968 117.824C59.1541 117.824 57.8528 118.315 56.8928 119.296C55.9328 120.277 55.4528 121.696 55.4528 123.552V132H52.3808ZM65.287 132V115.04H68.359V132H65.287ZM66.823 111.776C66.2257 111.776 65.7243 111.584 65.319 111.2C64.935 110.816 64.743 110.347 64.743 109.792C64.743 109.216 64.935 108.736 65.319 108.352C65.7243 107.968 66.2257 107.776 66.823 107.776C67.4203 107.776 67.911 107.968 68.295 108.352C68.7003 108.715 68.903 109.173 68.903 109.728C68.903 110.304 68.711 110.795 68.327 111.2C67.943 111.584 67.4417 111.776 66.823 111.776ZM81.6165 132.192C79.8885 132.192 78.3418 131.819 76.9765 131.072C75.6325 130.325 74.5765 129.301 73.8085 128C73.0405 126.699 72.6565 125.205 72.6565 123.52C72.6565 121.835 73.0405 120.341 73.8085 119.04C74.5765 117.739 75.6325 116.725 76.9765 116C78.3418 115.253 79.8885 114.88 81.6165 114.88C83.1525 114.88 84.5178 115.189 85.7125 115.808C86.9285 116.405 87.8672 117.301 88.5285 118.496L86.1925 120C85.6378 119.168 84.9552 118.56 84.1445 118.176C83.3552 117.771 82.5018 117.568 81.5845 117.568C80.4752 117.568 79.4832 117.813 78.6085 118.304C77.7338 118.795 77.0405 119.488 76.5285 120.384C76.0165 121.259 75.7605 122.304 75.7605 123.52C75.7605 124.736 76.0165 125.792 76.5285 126.688C77.0405 127.584 77.7338 128.277 78.6085 128.768C79.4832 129.259 80.4752 129.504 81.5845 129.504C82.5018 129.504 83.3552 129.312 84.1445 128.928C84.9552 128.523 85.6378 127.904 86.1925 127.072L88.5285 128.544C87.8672 129.717 86.9285 130.624 85.7125 131.264C84.5178 131.883 83.1525 132.192 81.6165 132.192ZM99.8078 132.192C97.9944 132.192 96.3944 131.819 95.0078 131.072C93.6424 130.325 92.5758 129.301 91.8078 128C91.0611 126.699 90.6878 125.205 90.6878 123.52C90.6878 121.835 91.0504 120.341 91.7758 119.04C92.5224 117.739 93.5358 116.725 94.8158 116C96.1171 115.253 97.5784 114.88 99.1998 114.88C100.842 114.88 102.293 115.243 103.552 115.968C104.81 116.693 105.792 117.717 106.496 119.04C107.221 120.341 107.584 121.867 107.584 123.616C107.584 123.744 107.573 123.893 107.552 124.064C107.552 124.235 107.541 124.395 107.52 124.544H93.0878V122.336H105.92L104.672 123.104C104.693 122.016 104.469 121.045 104 120.192C103.53 119.339 102.88 118.677 102.048 118.208C101.237 117.717 100.288 117.472 99.1998 117.472C98.1331 117.472 97.1838 117.717 96.3518 118.208C95.5198 118.677 94.8691 119.349 94.3998 120.224C93.9304 121.077 93.6958 122.059 93.6958 123.168V123.68C93.6958 124.811 93.9518 125.824 94.4638 126.72C94.9971 127.595 95.7331 128.277 96.6718 128.768C97.6104 129.259 98.6878 129.504 99.9038 129.504C100.906 129.504 101.813 129.333 102.624 128.992C103.456 128.651 104.181 128.139 104.8 127.456L106.496 129.44C105.728 130.336 104.768 131.019 103.616 131.488C102.485 131.957 101.216 132.192 99.8078 132.192ZM111.85 132V108.256H114.922V132H111.85ZM128.339 132.192C126.526 132.192 124.926 131.819 123.539 131.072C122.174 130.325 121.107 129.301 120.339 128C119.592 126.699 119.219 125.205 119.219 123.52C119.219 121.835 119.582 120.341 120.307 119.04C121.054 117.739 122.067 116.725 123.347 116C124.648 115.253 126.11 114.88 127.731 114.88C129.374 114.88 130.824 115.243 132.083 115.968C133.342 116.693 134.323 117.717 135.027 119.04C135.752 120.341 136.115 121.867 136.115 123.616C136.115 123.744 136.104 123.893 136.083 124.064C136.083 124.235 136.072 124.395 136.051 124.544H121.619V122.336H134.451L133.203 123.104C133.224 122.016 133 121.045 132.531 120.192C132.062 119.339 131.411 118.677 130.579 118.208C129.768 117.717 128.819 117.472 127.731 117.472C126.664 117.472 125.715 117.717 124.883 118.208C124.051 118.677 123.4 119.349 122.931 120.224C122.462 121.077 122.227 122.059 122.227 123.168V123.68C122.227 124.811 122.483 125.824 122.995 126.72C123.528 127.595 124.264 128.277 125.203 128.768C126.142 129.259 127.219 129.504 128.435 129.504C129.438 129.504 130.344 129.333 131.155 128.992C131.987 128.651 132.712 128.139 133.331 127.456L135.027 129.44C134.259 130.336 133.299 131.019 132.147 131.488C131.016 131.957 129.747 132.192 128.339 132.192ZM145.245 132.192C143.837 132.192 142.493 132 141.213 131.616C139.954 131.232 138.962 130.763 138.237 130.208L139.517 127.776C140.242 128.267 141.138 128.683 142.205 129.024C143.271 129.365 144.359 129.536 145.469 129.536C146.898 129.536 147.922 129.333 148.541 128.928C149.181 128.523 149.501 127.957 149.501 127.232C149.501 126.699 149.309 126.283 148.925 125.984C148.541 125.685 148.029 125.461 147.389 125.312C146.77 125.163 146.077 125.035 145.309 124.928C144.541 124.8 143.773 124.651 143.005 124.48C142.237 124.288 141.533 124.032 140.893 123.712C140.253 123.371 139.741 122.912 139.357 122.336C138.973 121.739 138.781 120.949 138.781 119.968C138.781 118.944 139.069 118.048 139.645 117.28C140.221 116.512 141.031 115.925 142.077 115.52C143.143 115.093 144.402 114.88 145.853 114.88C146.962 114.88 148.082 115.019 149.213 115.296C150.365 115.552 151.303 115.925 152.029 116.416L150.717 118.848C149.949 118.336 149.149 117.984 148.317 117.792C147.485 117.6 146.653 117.504 145.821 117.504C144.477 117.504 143.474 117.728 142.813 118.176C142.151 118.603 141.821 119.157 141.821 119.84C141.821 120.416 142.013 120.864 142.397 121.184C142.802 121.483 143.314 121.717 143.933 121.888C144.573 122.059 145.277 122.208 146.045 122.336C146.813 122.443 147.581 122.592 148.349 122.784C149.117 122.955 149.81 123.2 150.429 123.52C151.069 123.84 151.581 124.288 151.965 124.864C152.37 125.44 152.573 126.208 152.573 127.168C152.573 128.192 152.274 129.077 151.677 129.824C151.079 130.571 150.237 131.157 149.149 131.584C148.061 131.989 146.759 132.192 145.245 132.192ZM161.276 132.192C159.868 132.192 158.524 132 157.244 131.616C155.985 131.232 154.993 130.763 154.268 130.208L155.548 127.776C156.273 128.267 157.169 128.683 158.236 129.024C159.303 129.365 160.391 129.536 161.5 129.536C162.929 129.536 163.953 129.333 164.572 128.928C165.212 128.523 165.532 127.957 165.532 127.232C165.532 126.699 165.34 126.283 164.956 125.984C164.572 125.685 164.06 125.461 163.42 125.312C162.801 125.163 162.108 125.035 161.34 124.928C160.572 124.8 159.804 124.651 159.036 124.48C158.268 124.288 157.564 124.032 156.924 123.712C156.284 123.371 155.772 122.912 155.388 122.336C155.004 121.739 154.812 120.949 154.812 119.968C154.812 118.944 155.1 118.048 155.676 117.28C156.252 116.512 157.063 115.925 158.108 115.52C159.175 115.093 160.433 114.88 161.884 114.88C162.993 114.88 164.113 115.019 165.244 115.296C166.396 115.552 167.335 115.925 168.06 116.416L166.748 118.848C165.98 118.336 165.18 117.984 164.348 117.792C163.516 117.6 162.684 117.504 161.852 117.504C160.508 117.504 159.505 117.728 158.844 118.176C158.183 118.603 157.852 119.157 157.852 119.84C157.852 120.416 158.044 120.864 158.428 121.184C158.833 121.483 159.345 121.717 159.964 121.888C160.604 122.059 161.308 122.208 162.076 122.336C162.844 122.443 163.612 122.592 164.38 122.784C165.148 122.955 165.841 123.2 166.46 123.52C167.1 123.84 167.612 124.288 167.996 124.864C168.401 125.44 168.604 126.208 168.604 127.168C168.604 128.192 168.305 129.077 167.708 129.824C167.111 130.571 166.268 131.157 165.18 131.584C164.092 131.989 162.791 132.192 161.276 132.192Z" fill="#F99617"/>
<defs>
<filter id="filter0_d_4485_40263" x="313" y="97" width="105" height="46.0891" filterUnits="userSpaceOnUse" color-interpolation-filters="sRGB">
<feFlood flood-opacity="0" result="BackgroundImageFix"/>
<feColorMatrix in="SourceAlpha" type="matrix" values="0 0 0 0 0 0 0 0 0 0 0 0 0 0 0 0 0 0 127 0" result="hardAlpha"/>
<feOffset dy="5"/>
<feGaussianBlur stdDeviation="5"/>
<feComposite in2="hardAlpha" operator="out"/>
<feColorMatrix type="matrix" values="0 0 0 0 0 0 0 0 0 0.0688723 0 0 0 0 0.171667 0 0 0 0.03 0"/>
<feBlend mode="normal" in2="BackgroundImageFix" result="effect1_dropShadow_4485_40263"/>
<feBlend mode="normal" in="SourceGraphic" in2="effect1_dropShadow_4485_40263" result="shape"/>
</filter>
<linearGradient id="paint0_linear_4485_40263" x1="202.917" y1="155.541" x2="227.753" y2="125.059" gradientUnits="userSpaceOnUse">
<stop stop-color="#F99617"/>
<stop offset="1" stop-color="#F99617" stop-opacity="0"/>
</linearGradient>
</defs>
</svg>
