<svg width="24" height="24" viewBox="0 0 24 24" fill="none" xmlns="http://www.w3.org/2000/svg">
<path d="M19.5 9.74007C19.0363 9.74095 18.5843 9.88571 18.2064 10.1544C17.8284 10.4231 17.5432 10.8024 17.39 11.2401H15.25V9.00007C15.31 9.00007 15.38 8.92007 15.43 8.87007L17.22 7.40007C17.568 7.61697 17.97 7.73134 18.38 7.73007C18.8259 7.73005 19.2617 7.59757 19.6321 7.34944C20.0025 7.10132 20.2909 6.74873 20.4606 6.33643C20.6303 5.92413 20.6737 5.4707 20.5852 5.03371C20.4968 4.59672 20.2805 4.19585 19.9638 3.88199C19.6471 3.56814 19.2443 3.35544 18.8066 3.27089C18.3688 3.18635 17.9158 3.23377 17.505 3.40714C17.0943 3.58051 16.7443 3.872 16.4994 4.24464C16.2546 4.61727 16.126 5.05423 16.13 5.50007C16.1302 5.7598 16.1776 6.01733 16.27 6.26007L15.27 7.10007V6.50007C15.2819 5.3729 14.8456 4.28716 14.057 3.48169C13.2684 2.67622 12.1922 2.21701 11.065 2.20507C9.93784 2.19314 8.8521 2.62946 8.04663 3.41805C7.24116 4.20664 6.78195 5.2829 6.77001 6.41007C5.49329 6.68701 4.34984 7.39265 3.52981 8.40963C2.70977 9.42661 2.26257 10.6937 2.26257 12.0001C2.26257 13.3065 2.70977 14.5736 3.52981 15.5906C4.34984 16.6075 5.49329 17.3132 6.77001 17.5901C6.78195 18.7173 7.24116 19.7935 8.04663 20.5821C8.8521 21.3707 9.93784 21.807 11.065 21.7951C12.1922 21.7832 13.2684 21.324 14.057 20.5185C14.8456 19.713 15.2819 18.6273 15.27 17.5001V17.0001L16.16 17.7301C16.0722 17.9776 16.0249 18.2376 16.02 18.5001C16.02 18.9451 16.152 19.3801 16.3992 19.7501C16.6464 20.1202 16.9978 20.4085 17.409 20.5788C17.8201 20.7491 18.2725 20.7937 18.709 20.7069C19.1454 20.6201 19.5463 20.4058 19.861 20.0911C20.1757 19.7764 20.39 19.3755 20.4768 18.9391C20.5636 18.5026 20.519 18.0502 20.3487 17.6391C20.1784 17.2279 19.8901 16.8765 19.52 16.6293C19.15 16.3821 18.715 16.2501 18.27 16.2501C17.8632 16.2491 17.4644 16.3635 17.12 16.5801L15.31 15.1001H15.25V12.7401H17.39C17.5277 13.1295 17.7698 13.4734 18.09 13.7343C18.4101 13.9952 18.7959 14.1629 19.205 14.2191C19.6142 14.2754 20.0309 14.2179 20.4095 14.053C20.7882 13.8882 21.1141 13.6223 21.3517 13.2845C21.5893 12.9467 21.7293 12.55 21.7565 12.1379C21.7836 11.7259 21.6968 11.3143 21.5056 10.9482C21.3143 10.5822 21.0261 10.2758 20.6723 10.0628C20.3186 9.84962 19.913 9.738 19.5 9.74007ZM18.38 4.74007C18.5283 4.74007 18.6734 4.78406 18.7967 4.86647C18.92 4.94888 19.0162 5.06601 19.0729 5.20306C19.1297 5.3401 19.1445 5.4909 19.1156 5.63639C19.0867 5.78188 19.0152 5.91551 18.9103 6.0204C18.8055 6.12529 18.6718 6.19672 18.5263 6.22566C18.3808 6.2546 18.23 6.23975 18.093 6.18298C17.956 6.12622 17.8388 6.03009 17.7564 5.90675C17.674 5.78341 17.63 5.63841 17.63 5.49007C17.6352 5.29371 17.7161 5.10697 17.856 4.96901C17.9958 4.83105 18.1836 4.75259 18.38 4.75007V4.74007ZM19 18.4901C19 18.6384 18.956 18.7835 18.8736 18.9068C18.7912 19.0301 18.6741 19.1263 18.537 19.183C18.4 19.2398 18.2492 19.2546 18.1037 19.2257C17.9582 19.1968 17.8246 19.1253 17.7197 19.0204C17.6148 18.9156 17.5434 18.7819 17.5144 18.6364C17.4855 18.4909 17.5003 18.3401 17.5571 18.2031C17.6139 18.0661 17.71 17.9489 17.8333 17.8665C17.9567 17.7841 18.1017 17.7401 18.25 17.7401C18.4481 17.7427 18.6374 17.8226 18.7775 17.9626C18.9176 18.1027 18.9974 18.292 19 18.4901ZM13.75 17.4901C13.75 18.2195 13.4603 18.9189 12.9446 19.4347C12.4288 19.9504 11.7294 20.2401 11 20.2401C10.2707 20.2401 9.5712 19.9504 9.05547 19.4347C8.53975 18.9189 8.25001 18.2195 8.25001 17.4901C8.25107 17.3454 8.26784 17.2012 8.30001 17.0601C8.32597 16.8547 8.2723 16.6472 8.15001 16.4801C8.08488 16.4004 8.00441 16.3345 7.91338 16.2864C7.82234 16.2383 7.72259 16.209 7.62001 16.2001C6.55359 16.1266 5.55482 15.6511 4.82542 14.8696C4.09602 14.0882 3.69036 13.0591 3.69036 11.9901C3.69036 10.9212 4.09602 9.892 4.82542 9.11056C5.55482 8.32913 6.55359 7.85362 7.62001 7.78007C7.72259 7.7712 7.82234 7.74186 7.91338 7.69376C8.00441 7.64567 8.08488 7.57981 8.15001 7.50007C8.2723 7.33301 8.32597 7.12547 8.30001 6.92007C8.26784 6.77897 8.25107 6.63479 8.25001 6.49007C8.25001 5.76073 8.53975 5.06125 9.05547 4.54553C9.5712 4.0298 10.2707 3.74007 11 3.74007C11.7294 3.74007 12.4288 4.0298 12.9446 4.54553C13.4603 5.06125 13.75 5.76073 13.75 6.49007V17.4901ZM19.5 12.7301C19.3517 12.7301 19.2067 12.6861 19.0833 12.6037C18.96 12.5213 18.8639 12.4042 18.8071 12.2671C18.7503 12.1301 18.7355 11.9793 18.7644 11.8338C18.7934 11.6883 18.8648 11.5547 18.9697 11.4498C19.0746 11.3449 19.2082 11.2735 19.3537 11.2445C19.4992 11.2156 19.65 11.2304 19.787 11.2872C19.9241 11.344 20.0412 11.4401 20.1236 11.5634C20.206 11.6868 20.25 11.8318 20.25 11.9801C20.25 12.18 20.1713 12.3718 20.031 12.514C19.8906 12.6563 19.6998 12.7375 19.5 12.7401V12.7301Z" fill="#D3D8DA"/>
</svg>
