<svg width="858" height="570" viewBox="0 0 858 570" fill="none" xmlns="http://www.w3.org/2000/svg">
<path d="M162.04 229.96C157.56 229.96 153.267 229.373 149.16 228.2C145.053 226.973 141.747 225.4 139.24 223.48L143.64 213.72C146.04 215.427 148.867 216.84 152.12 217.96C155.427 219.027 158.76 219.56 162.12 219.56C164.68 219.56 166.733 219.32 168.28 218.84C169.88 218.307 171.053 217.587 171.8 216.68C172.547 215.773 172.92 214.733 172.92 213.56C172.92 212.067 172.333 210.893 171.16 210.04C169.987 209.133 168.44 208.413 166.52 207.88C164.6 207.293 162.467 206.76 160.12 206.28C157.827 205.747 155.507 205.107 153.16 204.36C150.867 203.613 148.76 202.653 146.84 201.48C144.92 200.307 143.347 198.76 142.12 196.84C140.947 194.92 140.36 192.467 140.36 189.48C140.36 186.28 141.213 183.373 142.92 180.76C144.68 178.093 147.293 175.987 150.76 174.44C154.28 172.84 158.68 172.04 163.96 172.04C167.48 172.04 170.947 172.467 174.36 173.32C177.773 174.12 180.787 175.347 183.4 177L179.4 186.84C176.787 185.347 174.173 184.253 171.56 183.56C168.947 182.813 166.387 182.44 163.88 182.44C161.373 182.44 159.32 182.733 157.72 183.32C156.12 183.907 154.973 184.68 154.28 185.64C153.587 186.547 153.24 187.613 153.24 188.84C153.24 190.28 153.827 191.453 155 192.36C156.173 193.213 157.72 193.907 159.64 194.44C161.56 194.973 163.667 195.507 165.96 196.04C168.307 196.573 170.627 197.187 172.92 197.88C175.267 198.573 177.4 199.507 179.32 200.68C181.24 201.853 182.787 203.4 183.96 205.32C185.187 207.24 185.8 209.667 185.8 212.6C185.8 215.747 184.92 218.627 183.16 221.24C181.4 223.853 178.76 225.96 175.24 227.56C171.773 229.16 167.373 229.96 162.04 229.96ZM221.776 229V220.6L220.976 218.76V203.72C220.976 201.053 220.149 198.973 218.496 197.48C216.896 195.987 214.416 195.24 211.056 195.24C208.762 195.24 206.496 195.613 204.256 196.36C202.069 197.053 200.202 198.013 198.656 199.24L194.176 190.52C196.522 188.867 199.349 187.587 202.656 186.68C205.962 185.773 209.322 185.32 212.736 185.32C219.296 185.32 224.389 186.867 228.016 189.96C231.642 193.053 233.456 197.88 233.456 204.44V229H221.776ZM208.656 229.64C205.296 229.64 202.416 229.08 200.016 227.96C197.616 226.787 195.776 225.213 194.496 223.24C193.216 221.267 192.576 219.053 192.576 216.6C192.576 214.04 193.189 211.8 194.416 209.88C195.696 207.96 197.696 206.467 200.416 205.4C203.136 204.28 206.682 203.72 211.056 203.72H222.496V211H212.416C209.482 211 207.456 211.48 206.336 212.44C205.269 213.4 204.736 214.6 204.736 216.04C204.736 217.64 205.349 218.92 206.576 219.88C207.856 220.787 209.589 221.24 211.776 221.24C213.856 221.24 215.722 220.76 217.376 219.8C219.029 218.787 220.229 217.32 220.976 215.4L222.896 221.16C221.989 223.933 220.336 226.04 217.936 227.48C215.536 228.92 212.442 229.64 208.656 229.64ZM247.871 229V185C247.871 180.147 249.311 176.28 252.191 173.4C255.071 170.467 259.177 169 264.511 169C266.324 169 268.057 169.187 269.711 169.56C271.417 169.933 272.857 170.52 274.031 171.32L270.751 180.36C270.057 179.88 269.284 179.507 268.431 179.24C267.577 178.973 266.671 178.84 265.711 178.84C263.897 178.84 262.484 179.373 261.471 180.44C260.511 181.453 260.031 183 260.031 185.08V189.08L260.351 194.44V229H247.871ZM241.231 196.52V186.92H271.071V196.52H241.231ZM299.701 229.64C294.795 229.64 290.475 228.68 286.741 226.76C283.061 224.84 280.208 222.227 278.181 218.92C276.155 215.56 275.141 211.747 275.141 207.48C275.141 203.16 276.128 199.347 278.101 196.04C280.128 192.68 282.875 190.067 286.341 188.2C289.808 186.28 293.728 185.32 298.101 185.32C302.315 185.32 306.101 186.227 309.461 188.04C312.875 189.8 315.568 192.36 317.541 195.72C319.515 199.027 320.501 203 320.501 207.64C320.501 208.12 320.475 208.68 320.421 209.32C320.368 209.907 320.315 210.467 320.261 211H285.301V203.72H313.701L308.901 205.88C308.901 203.64 308.448 201.693 307.541 200.04C306.635 198.387 305.381 197.107 303.781 196.2C302.181 195.24 300.315 194.76 298.181 194.76C296.048 194.76 294.155 195.24 292.501 196.2C290.901 197.107 289.648 198.413 288.741 200.12C287.835 201.773 287.381 203.747 287.381 206.04V207.96C287.381 210.307 287.888 212.387 288.901 214.2C289.968 215.96 291.435 217.32 293.301 218.28C295.221 219.187 297.461 219.64 300.021 219.64C302.315 219.64 304.315 219.293 306.021 218.6C307.781 217.907 309.381 216.867 310.821 215.48L317.461 222.68C315.488 224.92 313.008 226.653 310.021 227.88C307.035 229.053 303.595 229.64 299.701 229.64ZM348.01 229.64C342.943 229.64 338.997 228.36 336.17 225.8C333.343 223.187 331.93 219.32 331.93 214.2V176.44H344.41V214.04C344.41 215.853 344.89 217.267 345.85 218.28C346.81 219.24 348.117 219.72 349.77 219.72C351.743 219.72 353.423 219.187 354.81 218.12L358.17 226.92C356.89 227.827 355.343 228.52 353.53 229C351.77 229.427 349.93 229.64 348.01 229.64ZM325.29 196.52V186.92H355.13V196.52H325.29ZM371.434 245.16C369.194 245.16 366.981 244.813 364.794 244.12C362.608 243.427 360.821 242.467 359.434 241.24L363.994 232.36C364.954 233.213 366.048 233.88 367.274 234.36C368.554 234.84 369.808 235.08 371.034 235.08C372.794 235.08 374.181 234.653 375.194 233.8C376.261 233 377.221 231.64 378.074 229.72L380.314 224.44L381.274 223.08L396.714 185.96H408.714L389.274 231.64C387.888 235.107 386.288 237.827 384.474 239.8C382.714 241.773 380.741 243.16 378.554 243.96C376.421 244.76 374.048 245.16 371.434 245.16ZM378.794 230.68L359.594 185.96H372.474L387.354 221.96L378.794 230.68ZM440.543 229V173H453.503V229H440.543ZM481.993 229.64C478.313 229.64 474.766 229.213 471.353 228.36C467.993 227.453 465.326 226.333 463.353 225L467.513 216.04C469.486 217.267 471.806 218.28 474.473 219.08C477.193 219.827 479.86 220.2 482.473 220.2C485.353 220.2 487.38 219.853 488.553 219.16C489.78 218.467 490.393 217.507 490.393 216.28C490.393 215.267 489.913 214.52 488.953 214.04C488.046 213.507 486.82 213.107 485.273 212.84C483.726 212.573 482.02 212.307 480.153 212.04C478.34 211.773 476.5 211.427 474.633 211C472.766 210.52 471.06 209.827 469.513 208.92C467.966 208.013 466.713 206.787 465.753 205.24C464.846 203.693 464.393 201.693 464.393 199.24C464.393 196.52 465.166 194.12 466.713 192.04C468.313 189.96 470.606 188.333 473.593 187.16C476.58 185.933 480.153 185.32 484.313 185.32C487.246 185.32 490.233 185.64 493.273 186.28C496.313 186.92 498.846 187.853 500.873 189.08L496.713 197.96C494.633 196.733 492.526 195.907 490.393 195.48C488.313 195 486.286 194.76 484.313 194.76C481.54 194.76 479.513 195.133 478.233 195.88C476.953 196.627 476.313 197.587 476.313 198.76C476.313 199.827 476.766 200.627 477.673 201.16C478.633 201.693 479.886 202.12 481.433 202.44C482.98 202.76 484.66 203.053 486.473 203.32C488.34 203.533 490.206 203.88 492.073 204.36C493.94 204.84 495.62 205.533 497.113 206.44C498.66 207.293 499.913 208.493 500.873 210.04C501.833 211.533 502.313 213.507 502.313 215.96C502.313 218.627 501.513 221 499.913 223.08C498.313 225.107 495.993 226.707 492.953 227.88C489.966 229.053 486.313 229.64 481.993 229.64ZM537.773 185.32C541.186 185.32 544.226 186.013 546.893 187.4C549.613 188.733 551.746 190.813 553.293 193.64C554.84 196.413 555.613 199.987 555.613 204.36V229H543.133V206.28C543.133 202.813 542.36 200.253 540.813 198.6C539.32 196.947 537.186 196.12 534.413 196.12C532.44 196.12 530.653 196.547 529.053 197.4C527.506 198.2 526.28 199.453 525.373 201.16C524.52 202.867 524.093 205.053 524.093 207.72V229H511.613V185.96H523.533V197.88L521.293 194.28C522.84 191.4 525.053 189.187 527.933 187.64C530.813 186.093 534.093 185.32 537.773 185.32ZM566.131 196.2L571.411 177L573.171 184.28C570.878 184.28 568.985 183.613 567.491 182.28C566.051 180.893 565.331 179.027 565.331 176.68C565.331 174.387 566.078 172.547 567.571 171.16C569.065 169.72 570.905 169 573.091 169C575.331 169 577.171 169.72 578.611 171.16C580.051 172.547 580.771 174.387 580.771 176.68C580.771 177.373 580.718 178.067 580.611 178.76C580.558 179.4 580.371 180.173 580.051 181.08C579.785 181.987 579.331 183.187 578.691 184.68L574.051 196.2H566.131ZM608.741 229.64C603.675 229.64 599.728 228.36 596.901 225.8C594.075 223.187 592.661 219.32 592.661 214.2V176.44H605.141V214.04C605.141 215.853 605.621 217.267 606.581 218.28C607.541 219.24 608.848 219.72 610.501 219.72C612.475 219.72 614.155 219.187 615.541 218.12L618.901 226.92C617.621 227.827 616.075 228.52 614.261 229C612.501 229.427 610.661 229.64 608.741 229.64ZM586.021 196.52V186.92H615.861V196.52H586.021ZM678.163 229V220.6L677.363 218.76V203.72C677.363 201.053 676.536 198.973 674.883 197.48C673.283 195.987 670.803 195.24 667.443 195.24C665.15 195.24 662.883 195.613 660.643 196.36C658.456 197.053 656.59 198.013 655.043 199.24L650.563 190.52C652.91 188.867 655.736 187.587 659.043 186.68C662.35 185.773 665.71 185.32 669.123 185.32C675.683 185.32 680.776 186.867 684.403 189.96C688.03 193.053 689.843 197.88 689.843 204.44V229H678.163ZM665.043 229.64C661.683 229.64 658.803 229.08 656.403 227.96C654.003 226.787 652.163 225.213 650.883 223.24C649.603 221.267 648.963 219.053 648.963 216.6C648.963 214.04 649.576 211.8 650.803 209.88C652.083 207.96 654.083 206.467 656.803 205.4C659.523 204.28 663.07 203.72 667.443 203.72H678.883V211H668.803C665.87 211 663.843 211.48 662.723 212.44C661.656 213.4 661.123 214.6 661.123 216.04C661.123 217.64 661.736 218.92 662.963 219.88C664.243 220.787 665.976 221.24 668.163 221.24C670.243 221.24 672.11 220.76 673.763 219.8C675.416 218.787 676.616 217.32 677.363 215.4L679.283 221.16C678.376 223.933 676.723 226.04 674.323 227.48C671.923 228.92 668.83 229.64 665.043 229.64ZM170.44 327.96C166.12 327.96 162.093 327.267 158.36 325.88C154.68 324.44 151.48 322.413 148.76 319.8C146.04 317.187 143.907 314.12 142.36 310.6C140.867 307.08 140.12 303.213 140.12 299C140.12 294.787 140.867 290.92 142.36 287.4C143.907 283.88 146.04 280.813 148.76 278.2C151.533 275.587 154.76 273.587 158.44 272.2C162.12 270.76 166.147 270.04 170.52 270.04C175.373 270.04 179.747 270.893 183.64 272.6C187.587 274.253 190.893 276.707 193.56 279.96L185.24 287.64C183.32 285.453 181.187 283.827 178.84 282.76C176.493 281.64 173.933 281.08 171.16 281.08C168.547 281.08 166.147 281.507 163.96 282.36C161.773 283.213 159.88 284.44 158.28 286.04C156.68 287.64 155.427 289.533 154.52 291.72C153.667 293.907 153.24 296.333 153.24 299C153.24 301.667 153.667 304.093 154.52 306.28C155.427 308.467 156.68 310.36 158.28 311.96C159.88 313.56 161.773 314.787 163.96 315.64C166.147 316.493 168.547 316.92 171.16 316.92C173.933 316.92 176.493 316.387 178.84 315.32C181.187 314.2 183.32 312.52 185.24 310.28L193.56 317.96C190.893 321.213 187.587 323.693 183.64 325.4C179.747 327.107 175.347 327.96 170.44 327.96ZM222.027 327.64C217.441 327.64 213.361 326.68 209.787 324.76C206.267 322.84 203.467 320.227 201.387 316.92C199.361 313.56 198.347 309.747 198.347 305.48C198.347 301.16 199.361 297.347 201.387 294.04C203.467 290.68 206.267 288.067 209.787 286.2C213.361 284.28 217.441 283.32 222.027 283.32C226.561 283.32 230.614 284.28 234.188 286.2C237.761 288.067 240.561 290.653 242.588 293.96C244.614 297.267 245.628 301.107 245.628 305.48C245.628 309.747 244.614 313.56 242.588 316.92C240.561 320.227 237.761 322.84 234.188 324.76C230.614 326.68 226.561 327.64 222.027 327.64ZM222.027 317.4C224.107 317.4 225.974 316.92 227.628 315.96C229.281 315 230.588 313.64 231.548 311.88C232.508 310.067 232.988 307.933 232.988 305.48C232.988 302.973 232.508 300.84 231.548 299.08C230.588 297.32 229.281 295.96 227.628 295C225.974 294.04 224.107 293.56 222.027 293.56C219.947 293.56 218.081 294.04 216.427 295C214.774 295.96 213.441 297.32 212.427 299.08C211.467 300.84 210.987 302.973 210.987 305.48C210.987 307.933 211.467 310.067 212.427 311.88C213.441 313.64 214.774 315 216.427 315.96C218.081 316.92 219.947 317.4 222.027 317.4ZM270.049 327.64C266.369 327.64 262.823 327.213 259.409 326.36C256.049 325.453 253.383 324.333 251.409 323L255.569 314.04C257.543 315.267 259.863 316.28 262.529 317.08C265.249 317.827 267.916 318.2 270.529 318.2C273.409 318.2 275.436 317.853 276.609 317.16C277.836 316.467 278.449 315.507 278.449 314.28C278.449 313.267 277.969 312.52 277.009 312.04C276.103 311.507 274.876 311.107 273.329 310.84C271.783 310.573 270.076 310.307 268.209 310.04C266.396 309.773 264.556 309.427 262.689 309C260.823 308.52 259.116 307.827 257.569 306.92C256.023 306.013 254.769 304.787 253.809 303.24C252.903 301.693 252.449 299.693 252.449 297.24C252.449 294.52 253.223 292.12 254.769 290.04C256.369 287.96 258.663 286.333 261.649 285.16C264.636 283.933 268.209 283.32 272.369 283.32C275.303 283.32 278.289 283.64 281.329 284.28C284.369 284.92 286.903 285.853 288.929 287.08L284.769 295.96C282.689 294.733 280.583 293.907 278.449 293.48C276.369 293 274.343 292.76 272.369 292.76C269.596 292.76 267.569 293.133 266.289 293.88C265.009 294.627 264.369 295.587 264.369 296.76C264.369 297.827 264.823 298.627 265.729 299.16C266.689 299.693 267.943 300.12 269.489 300.44C271.036 300.76 272.716 301.053 274.529 301.32C276.396 301.533 278.263 301.88 280.129 302.36C281.996 302.84 283.676 303.533 285.169 304.44C286.716 305.293 287.969 306.493 288.929 308.04C289.889 309.533 290.369 311.507 290.369 313.96C290.369 316.627 289.569 319 287.969 321.08C286.369 323.107 284.049 324.707 281.009 325.88C278.023 327.053 274.369 327.64 270.049 327.64ZM317.269 327.64C312.203 327.64 308.256 326.36 305.429 323.8C302.603 321.187 301.189 317.32 301.189 312.2V274.44H313.669V312.04C313.669 313.853 314.149 315.267 315.109 316.28C316.069 317.24 317.376 317.72 319.029 317.72C321.003 317.72 322.683 317.187 324.069 316.12L327.429 324.92C326.149 325.827 324.603 326.52 322.789 327C321.029 327.427 319.189 327.64 317.269 327.64ZM294.549 294.52V284.92H324.389V294.52H294.549ZM336.035 327V267.64H348.515V327H336.035ZM367.138 343.16C364.898 343.16 362.684 342.813 360.498 342.12C358.311 341.427 356.524 340.467 355.137 339.24L359.698 330.36C360.658 331.213 361.751 331.88 362.978 332.36C364.258 332.84 365.511 333.08 366.738 333.08C368.498 333.08 369.884 332.653 370.898 331.8C371.964 331 372.924 329.64 373.778 327.72L376.018 322.44L376.978 321.08L392.418 283.96H404.418L384.978 329.64C383.591 333.107 381.991 335.827 380.178 337.8C378.418 339.773 376.444 341.16 374.258 341.96C372.124 342.76 369.751 343.16 367.138 343.16ZM374.498 328.68L355.297 283.96H368.178L383.058 319.96L374.498 328.68ZM448.166 293.56H475.126V303.64H448.166V293.56ZM449.126 316.6H479.606V327H436.246V271H478.566V281.4H449.126V316.6ZM516.798 283.32C520.211 283.32 523.251 284.013 525.918 285.4C528.638 286.733 530.771 288.813 532.318 291.64C533.865 294.413 534.638 297.987 534.638 302.36V327H522.158V304.28C522.158 300.813 521.385 298.253 519.838 296.6C518.345 294.947 516.211 294.12 513.438 294.12C511.465 294.12 509.678 294.547 508.078 295.4C506.531 296.2 505.305 297.453 504.398 299.16C503.545 300.867 503.118 303.053 503.118 305.72V327H490.638V283.96H502.558V295.88L500.318 292.28C501.865 289.4 504.078 287.187 506.958 285.64C509.838 284.093 513.118 283.32 516.798 283.32ZM566.343 327.64C562.29 327.64 558.636 326.733 555.383 324.92C552.13 323.053 549.543 320.467 547.623 317.16C545.756 313.853 544.823 309.96 544.823 305.48C544.823 300.947 545.756 297.027 547.623 293.72C549.543 290.413 552.13 287.853 555.383 286.04C558.636 284.227 562.29 283.32 566.343 283.32C569.97 283.32 573.143 284.12 575.863 285.72C578.583 287.32 580.69 289.747 582.183 293C583.676 296.253 584.423 300.413 584.423 305.48C584.423 310.493 583.703 314.653 582.263 317.96C580.823 321.213 578.743 323.64 576.023 325.24C573.356 326.84 570.13 327.64 566.343 327.64ZM568.503 317.4C570.53 317.4 572.37 316.92 574.023 315.96C575.676 315 576.983 313.64 577.943 311.88C578.956 310.067 579.463 307.933 579.463 305.48C579.463 302.973 578.956 300.84 577.943 299.08C576.983 297.32 575.676 295.96 574.023 295C572.37 294.04 570.53 293.56 568.503 293.56C566.423 293.56 564.556 294.04 562.903 295C561.25 295.96 559.916 297.32 558.903 299.08C557.943 300.84 557.463 302.973 557.463 305.48C557.463 307.933 557.943 310.067 558.903 311.88C559.916 313.64 561.25 315 562.903 315.96C564.556 316.92 566.423 317.4 568.503 317.4ZM579.783 327V318.2L580.023 305.4L579.223 292.68V267.64H591.703V327H579.783ZM626.214 327.64C621.307 327.64 616.987 326.68 613.254 324.76C609.574 322.84 606.72 320.227 604.694 316.92C602.667 313.56 601.654 309.747 601.654 305.48C601.654 301.16 602.64 297.347 604.614 294.04C606.64 290.68 609.387 288.067 612.854 286.2C616.32 284.28 620.24 283.32 624.614 283.32C628.827 283.32 632.614 284.227 635.974 286.04C639.387 287.8 642.08 290.36 644.054 293.72C646.027 297.027 647.014 301 647.014 305.64C647.014 306.12 646.987 306.68 646.934 307.32C646.88 307.907 646.827 308.467 646.774 309H611.814V301.72H640.214L635.414 303.88C635.414 301.64 634.96 299.693 634.054 298.04C633.147 296.387 631.894 295.107 630.294 294.2C628.694 293.24 626.827 292.76 624.694 292.76C622.56 292.76 620.667 293.24 619.014 294.2C617.414 295.107 616.16 296.413 615.254 298.12C614.347 299.773 613.894 301.747 613.894 304.04V305.96C613.894 308.307 614.4 310.387 615.414 312.2C616.48 313.96 617.947 315.32 619.814 316.28C621.734 317.187 623.974 317.64 626.534 317.64C628.827 317.64 630.827 317.293 632.534 316.6C634.294 315.907 635.894 314.867 637.334 313.48L643.974 320.68C642 322.92 639.52 324.653 636.534 325.88C633.547 327.053 630.107 327.64 626.214 327.64ZM682.151 327V318.6L681.351 316.76V301.72C681.351 299.053 680.524 296.973 678.871 295.48C677.271 293.987 674.791 293.24 671.431 293.24C669.137 293.24 666.871 293.613 664.631 294.36C662.444 295.053 660.577 296.013 659.031 297.24L654.551 288.52C656.897 286.867 659.724 285.587 663.031 284.68C666.337 283.773 669.697 283.32 673.111 283.32C679.671 283.32 684.764 284.867 688.391 287.96C692.017 291.053 693.831 295.88 693.831 302.44V327H682.151ZM669.031 327.64C665.671 327.64 662.791 327.08 660.391 325.96C657.991 324.787 656.151 323.213 654.871 321.24C653.591 319.267 652.951 317.053 652.951 314.6C652.951 312.04 653.564 309.8 654.791 307.88C656.071 305.96 658.071 304.467 660.791 303.4C663.511 302.28 667.057 301.72 671.431 301.72H682.871V309H672.791C669.857 309 667.831 309.48 666.711 310.44C665.644 311.4 665.111 312.6 665.111 314.04C665.111 315.64 665.724 316.92 666.951 317.88C668.231 318.787 669.964 319.24 672.151 319.24C674.231 319.24 676.097 318.76 677.751 317.8C679.404 316.787 680.604 315.32 681.351 313.4L683.271 319.16C682.364 321.933 680.711 324.04 678.311 325.48C675.911 326.92 672.817 327.64 669.031 327.64ZM717.624 327L699.544 283.96H712.424L727.464 321H721.064L736.664 283.96H748.664L730.504 327H717.624ZM774.665 327.64C770.078 327.64 765.998 326.68 762.425 324.76C758.905 322.84 756.105 320.227 754.025 316.92C751.998 313.56 750.985 309.747 750.985 305.48C750.985 301.16 751.998 297.347 754.025 294.04C756.105 290.68 758.905 288.067 762.425 286.2C765.998 284.28 770.078 283.32 774.665 283.32C779.198 283.32 783.252 284.28 786.825 286.2C790.398 288.067 793.198 290.653 795.225 293.96C797.252 297.267 798.265 301.107 798.265 305.48C798.265 309.747 797.252 313.56 795.225 316.92C793.198 320.227 790.398 322.84 786.825 324.76C783.252 326.68 779.198 327.64 774.665 327.64ZM774.665 317.4C776.745 317.4 778.612 316.92 780.265 315.96C781.918 315 783.225 313.64 784.185 311.88C785.145 310.067 785.625 307.933 785.625 305.48C785.625 302.973 785.145 300.84 784.185 299.08C783.225 297.32 781.918 295.96 780.265 295C778.612 294.04 776.745 293.56 774.665 293.56C772.585 293.56 770.718 294.04 769.065 295C767.412 295.96 766.078 297.32 765.065 299.08C764.105 300.84 763.625 302.973 763.625 305.48C763.625 307.933 764.105 310.067 765.065 311.88C766.078 313.64 767.412 315 769.065 315.96C770.718 316.92 772.585 317.4 774.665 317.4ZM808.207 327V283.96H820.127V296.12L818.447 292.6C819.727 289.56 821.78 287.267 824.607 285.72C827.434 284.12 830.874 283.32 834.927 283.32V294.84C834.394 294.787 833.914 294.76 833.487 294.76C833.06 294.707 832.607 294.68 832.127 294.68C828.714 294.68 825.94 295.667 823.807 297.64C821.727 299.56 820.687 302.573 820.687 306.68V327H808.207ZM849.293 298.92C847.159 298.92 845.319 298.2 843.773 296.76C842.279 295.267 841.533 293.373 841.533 291.08C841.533 288.787 842.279 286.947 843.773 285.56C845.319 284.12 847.159 283.4 849.293 283.4C851.479 283.4 853.319 284.12 854.813 285.56C856.306 286.947 857.053 288.787 857.053 291.08C857.053 293.373 856.306 295.267 854.813 296.76C853.319 298.2 851.479 298.92 849.293 298.92ZM842.413 339.32L847.693 320.12L849.453 327.32C847.159 327.32 845.266 326.653 843.773 325.32C842.333 323.987 841.613 322.147 841.613 319.8C841.613 317.453 842.359 315.587 843.853 314.2C845.346 312.813 847.186 312.12 849.372 312.12C851.613 312.12 853.453 312.84 854.893 314.28C856.333 315.667 857.053 317.507 857.053 319.8C857.053 320.493 856.999 321.187 856.893 321.88C856.786 322.52 856.573 323.32 856.253 324.28C855.986 325.187 855.533 326.36 854.893 327.8L850.333 339.32H842.413ZM143.64 425V369H156.6V425H143.64ZM188.21 425.64C183.143 425.64 179.197 424.36 176.37 421.8C173.543 419.187 172.13 415.32 172.13 410.2V372.44H184.61V410.04C184.61 411.853 185.09 413.267 186.05 414.28C187.01 415.24 188.317 415.72 189.97 415.72C191.943 415.72 193.623 415.187 195.01 414.12L198.37 422.92C197.09 423.827 195.543 424.52 193.73 425C191.97 425.427 190.13 425.64 188.21 425.64ZM165.49 392.52V382.92H195.33V392.52H165.49ZM205.936 391.72L205.136 369H215.776L214.896 391.72H205.936ZM241.493 425.64C237.813 425.64 234.266 425.213 230.853 424.36C227.493 423.453 224.826 422.333 222.853 421L227.013 412.04C228.986 413.267 231.306 414.28 233.973 415.08C236.693 415.827 239.36 416.2 241.973 416.2C244.853 416.2 246.88 415.853 248.053 415.16C249.28 414.467 249.893 413.507 249.893 412.28C249.893 411.267 249.413 410.52 248.453 410.04C247.546 409.507 246.32 409.107 244.773 408.84C243.226 408.573 241.52 408.307 239.653 408.04C237.84 407.773 236 407.427 234.133 407C232.266 406.52 230.56 405.827 229.013 404.92C227.466 404.013 226.213 402.787 225.253 401.24C224.346 399.693 223.893 397.693 223.893 395.24C223.893 392.52 224.666 390.12 226.213 388.04C227.813 385.96 230.106 384.333 233.093 383.16C236.08 381.933 239.653 381.32 243.813 381.32C246.746 381.32 249.733 381.64 252.773 382.28C255.813 382.92 258.346 383.853 260.373 385.08L256.213 393.96C254.133 392.733 252.026 391.907 249.893 391.48C247.813 391 245.786 390.76 243.813 390.76C241.04 390.76 239.013 391.133 237.733 391.88C236.453 392.627 235.813 393.587 235.813 394.76C235.813 395.827 236.266 396.627 237.173 397.16C238.133 397.693 239.386 398.12 240.933 398.44C242.48 398.76 244.16 399.053 245.973 399.32C247.84 399.533 249.706 399.88 251.573 400.36C253.44 400.84 255.12 401.533 256.613 402.44C258.16 403.293 259.413 404.493 260.373 406.04C261.333 407.533 261.813 409.507 261.813 411.96C261.813 414.627 261.013 417 259.413 419.08C257.813 421.107 255.493 422.707 252.453 423.88C249.466 425.053 245.813 425.64 241.493 425.64Z" fill="#0043A7"/>
<path d="M298.009 425V369H306.009V425H298.009ZM345.895 382.2C349.362 382.2 352.402 382.867 355.015 384.2C357.682 385.533 359.762 387.56 361.255 390.28C362.748 393 363.495 396.44 363.495 400.6V425H355.815V401.48C355.815 397.373 354.802 394.28 352.775 392.2C350.802 390.12 348.002 389.08 344.375 389.08C341.655 389.08 339.282 389.613 337.255 390.68C335.228 391.747 333.655 393.32 332.535 395.4C331.468 397.48 330.935 400.067 330.935 403.16V425H323.255V382.6H330.615V394.04L329.415 391C330.802 388.227 332.935 386.067 335.815 384.52C338.695 382.973 342.055 382.2 345.895 382.2ZM389.647 425L371.087 382.6H379.087L395.567 421H391.727L408.527 382.6H416.047L397.487 425H389.647ZM449.806 425V416.04L449.406 414.36V399.08C449.406 395.827 448.446 393.32 446.526 391.56C444.66 389.747 441.833 388.84 438.046 388.84C435.54 388.84 433.086 389.267 430.686 390.12C428.286 390.92 426.26 392.013 424.606 393.4L421.406 387.64C423.593 385.88 426.206 384.547 429.246 383.64C432.34 382.68 435.566 382.2 438.926 382.2C444.74 382.2 449.22 383.613 452.366 386.44C455.513 389.267 457.086 393.587 457.086 399.4V425H449.806ZM435.886 425.48C432.74 425.48 429.966 424.947 427.566 423.88C425.22 422.813 423.406 421.347 422.126 419.48C420.846 417.56 420.206 415.4 420.206 413C420.206 410.707 420.74 408.627 421.806 406.76C422.926 404.893 424.713 403.4 427.166 402.28C429.673 401.16 433.033 400.6 437.246 400.6H450.686V406.12H437.566C433.726 406.12 431.14 406.76 429.806 408.04C428.473 409.32 427.806 410.867 427.806 412.68C427.806 414.76 428.633 416.44 430.286 417.72C431.94 418.947 434.233 419.56 437.166 419.56C440.046 419.56 442.553 418.92 444.686 417.64C446.873 416.36 448.446 414.493 449.406 412.04L450.926 417.32C449.913 419.827 448.126 421.827 445.566 423.32C443.006 424.76 439.78 425.48 435.886 425.48ZM472.899 425V365.64H480.579V425H472.899ZM514.683 425.48C511.056 425.48 507.856 424.813 505.083 423.48C502.363 422.147 500.229 420.12 498.683 417.4C497.189 414.627 496.443 411.16 496.443 407V382.6H504.123V406.12C504.123 410.28 505.109 413.4 507.083 415.48C509.109 417.56 511.936 418.6 515.563 418.6C518.229 418.6 520.549 418.067 522.523 417C524.496 415.88 526.016 414.28 527.083 412.2C528.149 410.067 528.683 407.507 528.683 404.52V382.6H536.363V425H529.083V413.56L530.283 416.6C528.896 419.427 526.816 421.613 524.043 423.16C521.269 424.707 518.149 425.48 514.683 425.48ZM578.903 425V416.04L578.503 414.36V399.08C578.503 395.827 577.543 393.32 575.623 391.56C573.756 389.747 570.93 388.84 567.143 388.84C564.636 388.84 562.183 389.267 559.783 390.12C557.383 390.92 555.356 392.013 553.703 393.4L550.503 387.64C552.69 385.88 555.303 384.547 558.343 383.64C561.436 382.68 564.663 382.2 568.023 382.2C573.836 382.2 578.316 383.613 581.463 386.44C584.61 389.267 586.183 393.587 586.183 399.4V425H578.903ZM564.983 425.48C561.836 425.48 559.063 424.947 556.663 423.88C554.316 422.813 552.503 421.347 551.223 419.48C549.943 417.56 549.303 415.4 549.303 413C549.303 410.707 549.836 408.627 550.903 406.76C552.023 404.893 553.81 403.4 556.263 402.28C558.77 401.16 562.13 400.6 566.343 400.6H579.783V406.12H566.663C562.823 406.12 560.236 406.76 558.903 408.04C557.57 409.32 556.903 410.867 556.903 412.68C556.903 414.76 557.73 416.44 559.383 417.72C561.036 418.947 563.33 419.56 566.263 419.56C569.143 419.56 571.65 418.92 573.783 417.64C575.97 416.36 577.543 414.493 578.503 412.04L580.023 417.32C579.01 419.827 577.223 421.827 574.663 423.32C572.103 424.76 568.876 425.48 564.983 425.48ZM624.476 425.48C620.849 425.48 617.569 424.68 614.636 423.08C611.756 421.427 609.462 419 607.756 415.8C606.102 412.6 605.276 408.6 605.276 403.8C605.276 399 606.129 395 607.836 391.8C609.596 388.6 611.916 386.2 614.796 384.6C617.729 383 620.956 382.2 624.476 382.2C628.636 382.2 632.316 383.107 635.516 384.92C638.716 386.733 641.249 389.267 643.116 392.52C644.982 395.72 645.916 399.48 645.916 403.8C645.916 408.12 644.982 411.907 643.116 415.16C641.249 418.413 638.716 420.947 635.516 422.76C632.316 424.573 628.636 425.48 624.476 425.48ZM601.996 425V365.64H609.676V393.88L608.876 403.72L609.356 413.56V425H601.996ZM623.836 418.76C626.556 418.76 628.982 418.147 631.116 416.92C633.302 415.693 635.009 413.96 636.236 411.72C637.516 409.427 638.156 406.787 638.156 403.8C638.156 400.76 637.516 398.147 636.236 395.96C635.009 393.72 633.302 391.987 631.116 390.76C628.982 389.533 626.556 388.92 623.836 388.92C621.169 388.92 618.742 389.533 616.556 390.76C614.422 391.987 612.716 393.72 611.436 395.96C610.209 398.147 609.596 400.76 609.596 403.8C609.596 406.787 610.209 409.427 611.436 411.72C612.716 413.96 614.422 415.693 616.556 416.92C618.742 418.147 621.169 418.76 623.836 418.76ZM658.127 425V365.64H665.807V425H658.127ZM700.951 425.48C696.417 425.48 692.417 424.547 688.951 422.68C685.537 420.813 682.871 418.253 680.951 415C679.084 411.747 678.151 408.013 678.151 403.8C678.151 399.587 679.057 395.853 680.871 392.6C682.737 389.347 685.271 386.813 688.471 385C691.724 383.133 695.377 382.2 699.431 382.2C703.537 382.2 707.164 383.107 710.311 384.92C713.457 386.733 715.911 389.293 717.671 392.6C719.484 395.853 720.391 399.667 720.391 404.04C720.391 404.36 720.364 404.733 720.311 405.16C720.311 405.587 720.284 405.987 720.231 406.36H684.151V400.84H716.231L713.111 402.76C713.164 400.04 712.604 397.613 711.431 395.48C710.257 393.347 708.631 391.693 706.551 390.52C704.524 389.293 702.151 388.68 699.431 388.68C696.764 388.68 694.391 389.293 692.311 390.52C690.231 391.693 688.604 393.373 687.431 395.56C686.257 397.693 685.671 400.147 685.671 402.92V404.2C685.671 407.027 686.311 409.56 687.591 411.8C688.924 413.987 690.764 415.693 693.111 416.92C695.457 418.147 698.151 418.76 701.191 418.76C703.697 418.76 705.964 418.333 707.991 417.48C710.071 416.627 711.884 415.347 713.431 413.64L717.671 418.6C715.751 420.84 713.351 422.547 710.471 423.72C707.644 424.893 704.471 425.48 700.951 425.48Z" fill="#F99617"/>
<path d="M295.932 541.881L336.792 489.97C342.344 482.915 352.673 481.948 359.438 487.85C365.663 493.28 366.612 502.607 361.608 509.18L321.591 561.744C316.062 569.008 305.631 570.281 298.516 564.562C291.583 558.988 290.43 548.871 295.932 541.881Z" fill="url(#paint0_linear_0_1)"/>
<path d="M222.437 66.937C224.705 72.9314 212.043 81.2986 205.428 84.7328C223.949 91.8512 238.028 80.518 242.753 73.9617L262.124 75.8349C265.432 76.7715 273.747 76.7715 280.551 69.2785C285.193 64.166 287.753 50.7689 289.011 39.0536C289.998 29.8572 287.205 20.3673 279.834 14.7801C254.184 -4.6622 214.502 -1.13188 205.428 4.18302C195.034 10.2711 188.892 36.9649 193.616 48.6727C197.396 58.039 214.405 64.7515 222.437 66.937Z" fill="#0066FF"/>
<path d="M221.588 40.2771C220.38 39.9637 219.268 39.4687 218.254 38.7922C217.259 38.1043 216.54 37.3722 216.096 36.596L217.114 35.4466C217.542 36.1528 218.186 36.8241 219.046 37.4604C219.925 38.0853 220.899 38.5363 221.968 38.8136C222.99 39.0788 223.85 39.1699 224.55 39.0869C225.268 38.9923 225.831 38.7664 226.238 38.4092C226.66 38.0559 226.94 37.616 227.076 37.0894C227.241 36.4544 227.188 35.8951 226.917 35.4115C226.661 34.9319 226.267 34.5073 225.735 34.1378C225.206 33.7528 224.608 33.3827 223.94 33.0275C223.272 32.6723 222.605 32.3094 221.941 31.9387C221.281 31.5525 220.691 31.1184 220.172 30.6365C219.667 30.1586 219.298 29.6081 219.063 28.9851C218.847 28.3506 218.852 27.5997 219.077 26.7324C219.286 25.9271 219.686 25.2457 220.277 24.6883C220.887 24.1193 221.686 23.7481 222.673 23.5745C223.665 23.3853 224.849 23.4696 226.228 23.8272C227.142 24.0643 228.013 24.431 228.843 24.9274C229.677 25.4082 230.361 25.9576 230.895 26.5755L229.959 27.7955C229.382 27.15 228.727 26.6164 227.994 26.1947C227.276 25.7769 226.553 25.4736 225.825 25.2848C224.849 25.0316 224.01 24.9543 223.306 25.0528C222.603 25.1513 222.038 25.385 221.612 25.7537C221.205 26.111 220.93 26.5685 220.785 27.126C220.62 27.761 220.666 28.3183 220.921 28.7979C221.193 29.2815 221.594 29.708 222.127 30.0776C222.674 30.4511 223.282 30.8155 223.951 31.1707C224.619 31.5259 225.275 31.8946 225.92 32.2767C226.58 32.6629 227.162 33.095 227.666 33.5729C228.19 34.0393 228.562 34.5821 228.781 35.201C229.016 35.8241 229.023 36.5615 228.802 37.4132C228.597 38.2031 228.19 38.8825 227.579 39.4514C226.973 40.0048 226.166 40.3741 225.159 40.5592C224.172 40.7328 222.982 40.6388 221.588 40.2771ZM239.192 44.696L239.891 42.0012L239.936 41.5417L241.105 37.035C241.374 35.9973 241.287 35.1234 240.843 34.4132C240.415 33.7069 239.628 33.2052 238.482 32.9078C237.692 32.7029 236.907 32.6396 236.126 32.718C235.345 32.7965 234.651 32.9882 234.043 33.2933L233.619 31.8692C234.375 31.5033 235.223 31.2936 236.162 31.2398C237.106 31.1706 238.058 31.2605 239.018 31.5097C240.598 31.9196 241.711 32.6299 242.358 33.6408C243.024 34.6402 243.15 35.9374 242.737 37.5326L240.772 45.1059L239.192 44.696ZM234.957 43.7212C234.043 43.4841 233.284 43.13 232.679 42.6589C232.093 42.1764 231.691 41.6256 231.471 41.0067C231.255 40.3722 231.238 39.7065 231.419 39.0096C231.584 38.3746 231.879 37.8397 232.306 37.405C232.753 36.9588 233.357 36.6692 234.119 36.5363C234.9 36.3919 235.871 36.4704 237.033 36.7718L241.238 37.8627L240.918 39.094L236.76 38.0151C235.583 37.7097 234.708 37.7058 234.135 38.0034C233.577 38.305 233.218 38.7655 233.057 39.385C232.876 40.0819 233.003 40.7098 233.436 41.2686C233.87 41.8274 234.574 42.2334 235.55 42.4865C236.479 42.7276 237.331 42.7255 238.106 42.4801C238.899 42.2233 239.556 41.7324 240.074 41.0074L240.151 42.2422C239.632 42.9672 238.923 43.4692 238.024 43.7484C237.141 44.0316 236.118 44.0225 234.957 43.7212ZM245.995 46.4611L249.557 32.7317C249.838 31.6476 250.383 30.855 251.191 30.3538C251.998 29.8526 252.999 29.7567 254.191 30.0661C254.656 30.1867 255.089 30.3651 255.49 30.6015C255.892 30.838 256.205 31.126 256.431 31.4656L255.554 32.5522C255.374 32.2906 255.141 32.0731 254.856 31.8998C254.574 31.7111 254.255 31.5705 253.899 31.478C253.202 31.2972 252.618 31.3522 252.146 31.6429C251.673 31.9336 251.339 32.4584 251.142 33.2173L250.66 35.0758L250.507 35.8544L247.644 46.8891L245.995 46.4611ZM246.62 35.069L246.976 33.6984L254.526 35.6573L254.17 37.0279L246.62 35.069ZM258.999 49.9592C257.729 49.6297 256.682 49.0771 255.859 48.3014C255.039 47.5102 254.479 46.5797 254.178 45.5098C253.881 44.4244 253.889 43.2777 254.203 42.0697C254.516 40.8617 255.049 39.8594 255.801 39.0628C256.569 38.2702 257.47 37.7271 258.505 37.4336C259.559 37.1287 260.652 37.1229 261.782 37.4162C262.928 37.7136 263.874 38.24 264.621 38.9956C265.386 39.7398 265.902 40.6505 266.168 41.7278C266.438 42.7897 266.414 43.9323 266.097 45.1558C266.077 45.2333 266.047 45.3164 266.007 45.4053C265.987 45.4828 265.965 45.568 265.941 45.6609L255.325 42.9063L255.644 41.6751L265.378 44.2006L264.601 44.5197C264.83 43.6369 264.839 42.8046 264.629 42.0227C264.438 41.2293 264.067 40.5547 263.517 39.9987C262.967 39.4428 262.266 39.0543 261.415 38.8333C260.578 38.6163 259.777 38.615 259.011 38.8294C258.244 39.0438 257.585 39.4512 257.032 40.0517C256.48 40.6522 256.087 41.4015 255.854 42.2998L255.787 42.5553C255.546 43.4846 255.535 44.3576 255.753 45.1745C255.99 45.9799 256.42 46.6784 257.044 47.2699C257.687 47.85 258.48 48.2626 259.425 48.5077C260.169 48.7006 260.892 48.7478 261.595 48.6492C262.314 48.5547 262.976 48.2967 263.581 47.8752L264.233 49.1849C263.522 49.6947 262.712 50.0135 261.803 50.1413C260.909 50.273 259.975 50.2123 258.999 49.9592Z" fill="white"/>
<circle cx="53" cy="207" r="7" fill="#26B67A"/>
<circle cx="55" cy="187" r="5" fill="#0066FF"/>
<circle cx="30.5" cy="143.5" r="8.5" fill="#F99617"/>
<circle cx="-2" cy="548" r="22" fill="#ACE0FF"/>
<defs>
<linearGradient id="paint0_linear_0_1" x1="298.5" y1="565.5" x2="351.5" y2="501" gradientUnits="userSpaceOnUse">
<stop stop-color="#F99617"/>
<stop offset="1" stop-color="#F99617" stop-opacity="0"/>
</linearGradient>
</defs>
</svg>
