<svg width="84" height="60" viewBox="0 0 84 60" fill="none" xmlns="http://www.w3.org/2000/svg">
<path d="M5.15402 58.2383C4.51202 58.2383 4.03202 57.7853 4.03202 57.1583C4.03202 56.5313 4.51202 56.0783 5.15702 56.0783C5.49902 56.0783 5.79302 56.2013 5.98802 56.4293L5.73602 56.6663C5.58302 56.5013 5.39402 56.4203 5.17502 56.4203C4.74002 56.4203 4.42502 56.7263 4.42502 57.1583C4.42502 57.5903 4.74002 57.8963 5.17502 57.8963C5.39402 57.8963 5.58302 57.8153 5.73602 57.6473L5.98802 57.8873C5.79302 58.1153 5.49902 58.2383 5.15402 58.2383ZM7.97377 58.2383C7.32277 58.2383 6.84277 57.7793 6.84277 57.1583C6.84277 56.5373 7.32277 56.0783 7.97377 56.0783C8.62477 56.0783 9.10477 56.5343 9.10477 57.1583C9.10477 57.7823 8.62477 58.2383 7.97377 58.2383ZM7.97377 57.8963C8.39677 57.8963 8.71177 57.5873 8.71177 57.1583C8.71177 56.7293 8.39677 56.4203 7.97377 56.4203C7.55077 56.4203 7.23577 56.7293 7.23577 57.1583C7.23577 57.5873 7.55077 57.8963 7.97377 57.8963ZM11.6722 56.1083H12.0592V58.2083H11.7382L10.5802 56.7863V58.2083H10.1932V56.1083H10.5142L11.6722 57.5303V56.1083ZM14.7759 56.1083H15.1629V58.2083H14.8419L13.6839 56.7863V58.2083H13.2969V56.1083H13.6179L14.7759 57.5303V56.1083ZM16.7906 57.8813H17.9756V58.2083H16.4006V56.1083H17.9336V56.4353H16.7906V56.9813H17.8046V57.3023H16.7906V57.8813ZM20.0486 58.2383C19.4066 58.2383 18.9266 57.7853 18.9266 57.1583C18.9266 56.5313 19.4066 56.0783 20.0516 56.0783C20.3936 56.0783 20.6876 56.2013 20.8826 56.4293L20.6306 56.6663C20.4776 56.5013 20.2886 56.4203 20.0696 56.4203C19.6346 56.4203 19.3196 56.7263 19.3196 57.1583C19.3196 57.5903 19.6346 57.8963 20.0696 57.8963C20.2886 57.8963 20.4776 57.8153 20.6306 57.6473L20.8826 57.8873C20.6876 58.1153 20.3936 58.2383 20.0486 58.2383ZM22.3338 58.2083V56.4383H21.6378V56.1083H23.4198V56.4383H22.7238V58.2083H22.3338ZM24.3748 58.2293C24.2398 58.2293 24.1288 58.1243 24.1288 57.9803C24.1288 57.8303 24.2398 57.7313 24.3748 57.7313C24.5098 57.7313 24.6208 57.8303 24.6208 57.9803C24.6208 58.1243 24.5098 58.2293 24.3748 58.2293ZM28.9963 58.2083H28.5763L28.1473 57.5933C28.1203 57.5963 28.0933 57.5963 28.0663 57.5963H27.5923V58.2083H27.2023V56.1083H28.0663C28.6183 56.1083 28.9603 56.3903 28.9603 56.8553C28.9603 57.1733 28.7983 57.4073 28.5133 57.5183L28.9963 58.2083ZM28.5673 56.8553C28.5673 56.5913 28.3903 56.4383 28.0483 56.4383H27.5923V57.2753H28.0483C28.3903 57.2753 28.5673 57.1193 28.5673 56.8553ZM30.4617 57.8813H31.6467V58.2083H30.0717V56.1083H31.6047V56.4353H30.4617V56.9813H31.4757V57.3023H30.4617V57.8813ZM34.2894 56.4353H33.1464V57.0743H34.1604V57.4043H33.1464V58.2083H32.7564V56.1083H34.2894V56.4353ZM35.3416 58.2083V56.1083H35.7316V58.2083H35.3416ZM36.9746 58.2083V56.1083H37.3646V57.8783H38.4626V58.2083H36.9746ZM39.4455 58.2083V56.1083H39.8355V57.8783H40.9335V58.2083H39.4455ZM42.0912 58.2293C41.9562 58.2293 41.8452 58.1243 41.8452 57.9803C41.8452 57.8303 41.9562 57.7313 42.0912 57.7313C42.2262 57.7313 42.3372 57.8303 42.3372 57.9803C42.3372 58.1243 42.2262 58.2293 42.0912 58.2293ZM45.8907 58.2383C45.2487 58.2383 44.7687 57.7853 44.7687 57.1583C44.7687 56.5313 45.2487 56.0783 45.8937 56.0783C46.2357 56.0783 46.5297 56.2013 46.7247 56.4293L46.4727 56.6663C46.3197 56.5013 46.1307 56.4203 45.9117 56.4203C45.4767 56.4203 45.1617 56.7263 45.1617 57.1583C45.1617 57.5903 45.4767 57.8963 45.9117 57.8963C46.1307 57.8963 46.3197 57.8153 46.4727 57.6473L46.7247 57.8873C46.5297 58.1153 46.2357 58.2383 45.8907 58.2383ZM48.7105 58.2383C48.0595 58.2383 47.5795 57.7793 47.5795 57.1583C47.5795 56.5373 48.0595 56.0783 48.7105 56.0783C49.3615 56.0783 49.8415 56.5343 49.8415 57.1583C49.8415 57.7823 49.3615 58.2383 48.7105 58.2383ZM48.7105 57.8963C49.1335 57.8963 49.4485 57.5873 49.4485 57.1583C49.4485 56.7293 49.1335 56.4203 48.7105 56.4203C48.2875 56.4203 47.9725 56.7293 47.9725 57.1583C47.9725 57.5873 48.2875 57.8963 48.7105 57.8963ZM51.9109 58.2383C51.2599 58.2383 50.7799 57.7793 50.7799 57.1583C50.7799 56.5373 51.2599 56.0783 51.9109 56.0783C52.5619 56.0783 53.0419 56.5343 53.0419 57.1583C53.0419 57.7823 52.5619 58.2383 51.9109 58.2383ZM51.9109 57.8963C52.3339 57.8963 52.6489 57.5873 52.6489 57.1583C52.6489 56.7293 52.3339 56.4203 51.9109 56.4203C51.4879 56.4203 51.1729 56.7293 51.1729 57.1583C51.1729 57.5873 51.4879 57.8963 51.9109 57.8963ZM55.5943 58.2083L54.8533 57.3293L54.5203 57.6713V58.2083H54.1303V56.1083H54.5203V57.1853L55.5583 56.1083H55.9963L55.1143 57.0473L56.0503 58.2083H55.5943ZM61.1919 56.1083H61.5639L60.8679 58.2083H60.4539L59.9349 56.6543L59.4069 58.2083H58.9899L58.2939 56.1083H58.6989L59.2209 57.7043L59.7639 56.1083H60.1239L60.6549 57.7133L61.1919 56.1083ZM62.5566 58.2083V56.1083H62.9466V58.2083H62.5566ZM64.6156 58.2083V56.4383H63.9196V56.1083H65.7016V56.4383H65.0056V58.2083H64.6156ZM68.1453 56.1083H68.5353V58.2083H68.1453V57.3083H67.0593V58.2083H66.6693V56.1083H67.0593V56.9753H68.1453V56.1083ZM71.6671 57.8813H72.8521V58.2083H71.2771V56.1083H72.8101V56.4353H71.6671V56.9813H72.6811V57.3023H71.6671V57.8813ZM75.5339 58.2083L75.3239 57.7223H74.2739L74.0669 58.2083H73.6649L74.6099 56.1083H74.9939L75.9419 58.2083H75.5339ZM74.4059 57.4163H75.1949L74.7989 56.4983L74.4059 57.4163ZM77.535 58.2383C77.208 58.2383 76.881 58.1363 76.707 57.9863L76.842 57.6833C77.01 57.8183 77.277 57.9143 77.535 57.9143C77.862 57.9143 78 57.7973 78 57.6413C78 57.1883 76.752 57.4853 76.752 56.7053C76.752 56.3663 77.022 56.0783 77.598 56.0783C77.85 56.0783 78.114 56.1443 78.297 56.2643L78.174 56.5673C77.985 56.4563 77.778 56.4023 77.595 56.4023C77.271 56.4023 77.139 56.5283 77.139 56.6873C77.139 57.1343 78.384 56.8433 78.384 57.6143C78.384 57.9503 78.111 58.2383 77.535 58.2383ZM79.8357 57.8813H81.0207V58.2083H79.4457V56.1083H80.9787V56.4353H79.8357V56.9813H80.8497V57.3023H79.8357V57.8813Z" fill="#EE1B24"/>
<path d="M13.577 52.9262C7.8265 52.9262 3.5335 48.9247 3.5335 43.3332C3.5335 37.7417 7.8265 33.7402 13.6035 33.7402C16.81 33.7402 19.4865 34.9062 21.2355 37.0262L18.4795 39.5702C17.234 38.1392 15.6705 37.3972 13.8155 37.3972C10.344 37.3972 7.8795 39.8352 7.8795 43.3332C7.8795 46.8312 10.344 49.2692 13.8155 49.2692C15.6705 49.2692 17.234 48.5272 18.4795 47.0697L21.2355 49.6137C19.4865 51.7602 16.81 52.9262 13.577 52.9262ZM32.5086 38.1392C35.8741 38.1392 38.4181 40.1002 38.4181 44.4462V52.6082H34.2841V45.0822C34.2841 42.7767 33.2241 41.7167 31.3956 41.7167C29.4081 41.7167 27.9771 42.9357 27.9771 45.5592V52.6082H23.8431V32.9452H27.9771V39.8352C29.0901 38.7222 30.6801 38.1392 32.5086 38.1392ZM44.2323 36.3637C42.6953 36.3637 41.6618 35.3567 41.6618 34.0582C41.6618 32.7597 42.6953 31.7527 44.2323 31.7527C45.7693 31.7527 46.8028 32.7067 46.8028 33.9787C46.8028 35.3567 45.7693 36.3637 44.2323 36.3637ZM42.1653 52.6082V38.3512H46.2993V52.6082H42.1653ZM55.8865 38.1392C60.2325 38.1392 62.75 40.1532 62.75 44.4727V52.6082H58.881V50.8327C58.1125 52.1312 56.6285 52.8202 54.535 52.8202C51.196 52.8202 49.2085 50.9652 49.2085 48.5007C49.2085 45.9832 50.984 44.2342 55.33 44.2342H58.616C58.616 42.4587 57.556 41.4252 55.33 41.4252C53.8195 41.4252 52.256 41.9287 51.2225 42.7502L49.7385 39.8617C51.302 38.7487 53.6075 38.1392 55.8865 38.1392ZM55.5685 50.0377C56.9465 50.0377 58.139 49.4017 58.616 48.1032V46.6457H55.7805C53.846 46.6457 53.2365 47.3612 53.2365 48.3152C53.2365 49.3487 54.111 50.0377 55.5685 50.0377ZM75.157 38.1392C78.5225 38.1392 81.0665 40.1002 81.0665 44.4462V52.6082H76.9325V45.0822C76.9325 42.7767 75.8725 41.7167 74.044 41.7167C72.0565 41.7167 70.6255 42.9357 70.6255 45.5592V52.6082H66.4915V38.3512H70.44V40.0207C71.553 38.8017 73.2225 38.1392 75.157 38.1392Z" fill="#F99617"/>
<path d="M9.31653 28.714C2.7964 28.1551 1.68384 35.053 1.94258 38.5718C-2.77676 28.388 2.20132 23.9791 5.28027 23.0477V19.6324C5.04741 18.08 8.92844 16.2171 16.6905 16.6052C22.9001 16.9157 24.0386 18.6492 23.8316 19.4771V22.7372C26.6259 24.2896 26.1343 27.3686 25.5392 28.714C24.6854 31.586 17.9324 31.2755 15.2157 30.1112C12.9927 29.1584 10.4032 28.6881 9.31653 28.714Z" fill="#0066FF"/>
<path d="M5.28027 19.8654V26.075H6.75506V24.3674C8.68005 25.1746 11.9556 25.273 13.2752 25.2212L13.6633 26.696H16.4576V22.9702C19.1278 22.9702 21.0372 22.4528 21.6582 22.194V23.5136L23.8316 22.7374V19.4773C22.0308 20.8434 18.4499 21.5731 16.9234 21.5731C16.3024 21.5731 14.3619 21.6507 11.4899 21.5731C8.63452 21.4959 6.15997 20.4346 5.28027 19.8654Z" fill="#0043A7"/>
<ellipse cx="14.2843" cy="19.0889" rx="7.83968" ry="2.01813" fill="#0043A7"/>
<path d="M12.6921 13.837C13.0193 13.4007 13.8736 12.0421 14.2598 11.4172C14.5598 12.1261 15.4299 13.3258 15.8276 13.837C17.1908 15.1729 17.3044 16.8702 17.1908 17.5518C16.6728 19.4876 15.021 19.8806 14.2598 19.8352C14.1235 19.8693 11.6356 19.6307 11.3289 17.5518C11.0222 15.4729 12.2832 14.3823 12.6921 13.837Z" fill="url(#paint0_linear_3_127)"/>
<path d="M12.1127 15.4387C11.9536 16.2794 11.9082 17.9948 12.9988 18.1311C12.3058 18.1993 11.1584 17.7562 12.1127 15.4387Z" fill="#FCFFE4"/>
<path d="M13.8167 5.82782C16.3796 2.80144 15.9298 0.681616 15.3845 0C17.402 1.58135 16.7477 4.38506 16.1683 5.58925L15.3163 7.29329C13.9872 10.565 16.2365 11.2126 16.441 11.2807C16.6046 11.3353 16.6455 11.258 16.6455 11.2126C15.1186 8.40433 17.168 6.99792 18.3836 6.64576C17.4975 8.41796 18.2132 10.4969 18.554 10.8377C18.8266 11.1103 19.0766 11.7465 19.1674 12.0305C19.9581 15.3841 18.5881 17.4039 17.8042 17.9947C18.0428 15.2 16.6455 13.6664 15.9979 12.8825C15.4799 12.2555 14.6006 10.9399 14.2257 10.3606C14.1576 10.69 13.6532 11.7579 12.1809 13.3938C10.7086 15.0296 10.5223 16.7564 10.6132 17.4153C9.0318 15.7521 8.90911 12.6781 9.04544 11.3489C9.5362 13.5028 10.5223 13.9731 10.954 13.939C9.34534 11.1308 11.1016 8.47476 12.1809 7.49778L13.8167 5.82782Z" fill="#EE1B24"/>
<defs>
<linearGradient id="paint0_linear_3_127" x1="14.2527" y1="11.4172" x2="14.2527" y2="19.8386" gradientUnits="userSpaceOnUse">
<stop stop-color="#F9DA10"/>
<stop offset="1" stop-color="#F69F24"/>
</linearGradient>
</defs>
</svg>
