<svg width="24" height="24" viewBox="0 0 24 24" fill="none" xmlns="http://www.w3.org/2000/svg">
<path d="M19.5 6.24998C19.1694 6.25307 18.8435 6.32801 18.5448 6.4696C18.246 6.6112 17.9817 6.81605 17.77 7.06998L12.86 5.28998C12.6746 5.22879 12.4727 5.24232 12.2971 5.32767C12.1215 5.41303 11.9861 5.5635 11.9197 5.7471C11.8533 5.93069 11.8611 6.13295 11.9414 6.31089C12.0218 6.48882 12.1684 6.62841 12.35 6.69998L17.22 8.46998L6.22001 12.12C6.15797 12.0274 6.084 11.9433 6.00001 11.87L8.33001 6.72998H8.50001C8.94587 6.72996 9.38167 6.59748 9.7521 6.34936C10.1225 6.10123 10.4109 5.74864 10.5806 5.33634C10.7503 4.92404 10.7937 4.47062 10.7052 4.03362C10.6168 3.59663 10.4005 3.19576 10.0838 2.88191C9.76712 2.56805 9.36434 2.35535 8.92658 2.2708C8.48881 2.18626 8.03579 2.23368 7.62503 2.40705C7.21426 2.58042 6.86426 2.87191 6.61944 3.24455C6.37463 3.61718 6.24605 4.05414 6.25001 4.49998C6.25472 4.80891 6.32385 5.11345 6.453 5.39413C6.58215 5.67481 6.76846 5.92543 7.00001 6.12998L4.67001 11.27H4.50001C4.05672 11.2701 3.62333 11.4011 3.25424 11.6466C2.88514 11.8921 2.59679 12.2412 2.42538 12.65C2.25397 13.0588 2.20714 13.5091 2.29076 13.9445C2.37439 14.3798 2.58474 14.7807 2.89542 15.0969C3.2061 15.4131 3.60326 15.6305 4.03705 15.7218C4.47084 15.8131 4.92193 15.7742 5.33369 15.61C5.74546 15.4458 6.09955 15.1637 6.35153 14.799C6.6035 14.4342 6.74213 14.0032 6.75001 13.56L17 10.12L10.36 17.43C10.086 17.3092 9.78947 17.2479 9.49001 17.25C8.98775 17.2481 8.49881 17.4115 8.09849 17.7148C7.69817 18.0181 7.40868 18.4446 7.2746 18.9287C7.14052 19.4127 7.16929 19.9274 7.35649 20.3935C7.54368 20.8596 7.87891 21.2512 8.31054 21.508C8.74218 21.7648 9.24628 21.8726 9.7452 21.8148C10.2441 21.7569 10.7102 21.5367 11.0716 21.1879C11.4331 20.8391 11.6698 20.3812 11.7454 19.8847C11.821 19.3882 11.7313 18.8805 11.49 18.44L18.65 10.57H18.77V13.47C18.77 13.6689 18.849 13.8597 18.9897 14.0003C19.1303 14.141 19.3211 14.22 19.52 14.22C19.7189 14.22 19.9097 14.141 20.0503 14.0003C20.191 13.8597 20.27 13.6689 20.27 13.47V10.57C20.7744 10.398 21.201 10.0519 21.4731 9.59366C21.7452 9.13547 21.8451 8.59527 21.7547 8.07007C21.6644 7.54488 21.3898 7.0691 20.9802 6.72817C20.5706 6.38725 20.0529 6.20352 19.52 6.20998L19.5 6.24998ZM8.50001 3.74998C8.64835 3.74998 8.79335 3.79397 8.91669 3.87638C9.04003 3.95879 9.13616 4.07592 9.19292 4.21297C9.24969 4.35001 9.26454 4.50081 9.2356 4.6463C9.20666 4.79179 9.13523 4.92542 9.03034 5.03031C8.92545 5.1352 8.79182 5.20663 8.64633 5.23557C8.50084 5.26451 8.35004 5.24966 8.213 5.19289C8.07596 5.13613 7.95882 5.04 7.87641 4.91666C7.794 4.79332 7.75001 4.64832 7.75001 4.49998C7.7526 4.30188 7.83245 4.11261 7.97255 3.97252C8.11264 3.83242 8.3019 3.75257 8.50001 3.74998ZM4.50001 14.25C4.35168 14.25 4.20667 14.206 4.08333 14.1236C3.96 14.0412 3.86387 13.9241 3.8071 13.787C3.75034 13.65 3.73548 13.4992 3.76442 13.3537C3.79336 13.2082 3.86479 13.0746 3.96968 12.9697C4.07457 12.8648 4.20821 12.7934 4.35369 12.7644C4.49918 12.7355 4.64998 12.7503 4.78702 12.8071C4.92407 12.8639 5.0412 12.96 5.12361 13.0833C5.20603 13.2067 5.25001 13.3517 5.25001 13.5C5.24742 13.6981 5.16757 13.8874 5.02748 14.0275C4.88738 14.1676 4.69812 14.2474 4.50001 14.25ZM9.50001 20.25C9.35168 20.25 9.20667 20.206 9.08333 20.1236C8.96 20.0412 8.86387 19.9241 8.8071 19.787C8.75034 19.65 8.73548 19.4992 8.76442 19.3537C8.79336 19.2082 8.86479 19.0746 8.96968 18.9697C9.07457 18.8648 9.20821 18.7934 9.35369 18.7644C9.49918 18.7355 9.64998 18.7503 9.78702 18.8071C9.92407 18.8639 10.0412 18.96 10.1236 19.0833C10.206 19.2067 10.25 19.3517 10.25 19.5C10.2474 19.6981 10.1676 19.8874 10.0275 20.0275C9.88738 20.1676 9.69812 20.2474 9.50001 20.25ZM19.5 9.24998C19.3517 9.24998 19.2067 9.206 19.0833 9.12358C18.96 9.04117 18.8639 8.92404 18.8071 8.78699C18.7503 8.64995 18.7355 8.49915 18.7644 8.35366C18.7934 8.20818 18.8648 8.07454 18.9697 7.96965C19.0746 7.86476 19.2082 7.79333 19.3537 7.76439C19.4992 7.73545 19.65 7.75031 19.787 7.80707C19.9241 7.86384 20.0412 7.95997 20.1236 8.0833C20.206 8.20664 20.25 8.35165 20.25 8.49998C20.2474 8.69809 20.1676 8.88735 20.0275 9.02745C19.8874 9.16754 19.6981 9.24739 19.5 9.24998Z" fill="#D3D8DA"/>
<path d="M19.5 15.25C19.055 15.25 18.62 15.382 18.25 15.6292C17.88 15.8764 17.5916 16.2278 17.4213 16.639C17.251 17.0501 17.2064 17.5025 17.2932 17.939C17.3801 18.3754 17.5943 18.7763 17.909 19.091C18.2237 19.4057 18.6246 19.6199 19.061 19.7068C19.4975 19.7936 19.9499 19.749 20.361 19.5787C20.7722 19.4084 21.1236 19.12 21.3708 18.75C21.618 18.38 21.75 17.945 21.75 17.5C21.75 16.9033 21.5129 16.331 21.091 15.909C20.669 15.4871 20.0967 15.25 19.5 15.25ZM19.5 18.25C19.3517 18.25 19.2067 18.206 19.0833 18.1236C18.96 18.0412 18.8639 17.9241 18.8071 17.787C18.7503 17.65 18.7355 17.4992 18.7644 17.3537C18.7934 17.2082 18.8648 17.0746 18.9697 16.9697C19.0746 16.8648 19.2082 16.7934 19.3537 16.7644C19.4992 16.7355 19.65 16.7503 19.787 16.8071C19.9241 16.8639 20.0412 16.96 20.1236 17.0833C20.206 17.2067 20.25 17.3517 20.25 17.5C20.2474 17.6981 20.1676 17.8874 20.0275 18.0275C19.8874 18.1676 19.6981 18.2474 19.5 18.25Z" fill="#D3D8DA"/>
</svg>
