<svg width="393" height="776" viewBox="0 0 393 776" fill="none" xmlns="http://www.w3.org/2000/svg">
<rect width="393" height="776" fill="#0043A7"/>
<mask id="mask0_4485_42310" style="mask-type:alpha" maskUnits="userSpaceOnUse" x="0" y="0" width="393" height="776">
<rect width="393" height="776" fill="#0043A7"/>
</mask>
<g mask="url(#mask0_4485_42310)">
<g opacity="0.2">
<path d="M-22.1307 694.395L-18.616 696.462M2.45187 708.847L-1.06042 706.782M-1.06042 706.782L-7.70758 718.089M-1.06042 706.782L-18.616 696.462M-7.70758 718.089L-7.47165 718.228C-3.58993 720.51 -2.29305 725.506 -4.57498 729.388V729.388M-7.70758 718.089L-13.0584 714.944M-44.0272 723.054L-55.3447 742.306M-18.616 696.462L-25.2632 707.769M-25.2632 707.769L-25.5015 707.629C-29.3832 705.347 -34.3798 706.644 -36.6618 710.525V710.525M-25.2632 707.769L-19.9705 710.88M-40.075 716.332L-36.6618 710.525M-55.3447 742.306V742.306C-57.7259 746.357 -56.3726 751.571 -52.3221 753.952L-52.002 754.14M-55.3447 742.306L-23.2579 761.169M-23.2579 761.169V761.169C-25.6391 765.22 -30.8529 766.573 -34.9034 764.192L-35.5022 763.84M-23.2579 761.169L-4.57498 729.388M-4.57498 729.388L-36.6618 710.525M-52.002 754.14L-56.9946 757.784L-35.9238 770.171L-35.5022 763.84M-52.002 754.14L-35.5022 763.84M-19.9705 710.88L-17.0962 705.991M-19.9705 710.88L-13.0584 714.944M-17.0962 705.991L-17.9869 705.467C-18.7464 705.021 -19.0001 704.043 -18.5537 703.284V703.284C-18.1072 702.524 -17.1296 702.271 -16.3702 702.717L-7.61846 707.862C-6.85899 708.308 -6.60525 709.286 -7.05172 710.045V710.045C-7.49818 710.805 -8.47578 711.059 -9.23525 710.612L-10.1841 710.054M-17.0962 705.991L-10.1841 710.054M-10.1841 710.054L-13.0584 714.944" stroke="white" stroke-linecap="round"/>
<path d="M343.145 609.768L331.929 635.814" stroke="white" stroke-linecap="round"/>
<path d="M327.384 574.806L331.129 576.418M353.575 586.083L349.833 584.472M349.833 584.472L344.645 596.519M349.833 584.472L331.129 576.418M344.645 596.519L344.897 596.627C349.032 598.408 350.941 603.204 349.161 607.34V607.34M344.645 596.519L338.945 594.064M309.227 605.968L300.394 626.479M331.129 576.418L325.941 588.465M325.941 588.465L325.687 588.356C321.552 586.575 316.756 588.484 314.975 592.619V592.619M325.941 588.465L331.58 590.893M312.311 598.805L314.975 592.619M300.394 626.479V626.479C298.536 630.795 300.528 635.8 304.844 637.658L305.185 637.805M300.394 626.479L334.58 641.2M334.58 641.2V641.2C332.722 645.515 327.717 647.507 323.402 645.649L322.764 645.374M334.58 641.2L349.161 607.34M349.161 607.34L314.975 592.619M305.185 637.805L300.685 642.042L323.134 651.709L322.764 645.374M305.185 637.805L322.764 645.374M331.58 590.893L333.823 585.684M331.58 590.893L338.945 594.064M333.823 585.684L332.874 585.275C332.065 584.927 331.692 583.988 332.04 583.179V583.179C332.389 582.37 333.327 581.997 334.136 582.345L343.46 586.36C344.27 586.709 344.643 587.647 344.295 588.456V588.456C343.946 589.265 343.008 589.639 342.199 589.29L341.188 588.855M333.823 585.684L341.188 588.855M341.188 588.855L338.945 594.064" stroke="white" stroke-linecap="round"/>
<path d="M123.609 627.444L102.427 646.298" stroke="white" stroke-linecap="round"/>
<path d="M124.12 589.097L126.831 592.142M143.079 610.397L140.37 607.354M140.37 607.354L130.573 616.074M140.37 607.354L126.831 592.142M130.573 616.074L130.755 616.279C133.748 619.642 133.448 624.796 130.085 627.789V627.789M130.573 616.074L126.446 611.438M94.4827 609.649L77.8012 624.497M126.831 592.142L117.033 600.862M117.033 600.862L116.849 600.656C113.856 597.293 108.702 596.993 105.339 599.986V599.986M117.033 600.862L121.115 605.449M100.308 604.464L105.339 599.986M77.8012 624.497V624.497C74.2915 627.62 73.9787 632.998 77.1025 636.508L77.3493 636.785M77.8012 624.497L102.547 652.299M102.547 652.299V652.299C99.0376 655.423 93.6601 655.11 90.5362 651.601L90.0744 651.082M102.547 652.299L130.085 627.789M130.085 627.789L105.339 599.986M77.3493 636.785L71.4791 638.72L87.7294 656.978L90.0744 651.082M77.3493 636.785L90.0744 651.082M121.115 605.449L125.352 601.678M121.115 605.449L126.446 611.438M125.352 601.678L124.665 600.906C124.079 600.248 124.138 599.24 124.796 598.654V598.654C125.454 598.068 126.462 598.127 127.048 598.785L133.797 606.368C134.383 607.026 134.324 608.034 133.666 608.62V608.62C133.008 609.206 132 609.147 131.414 608.489L130.683 607.667M125.352 601.678L130.683 607.667M130.683 607.667L126.446 611.438" stroke="white" stroke-linecap="round"/>
<path d="M217.469 470.792L191.404 481.964" stroke="white" stroke-linecap="round"/>
<path d="M230.105 434.583L231.711 438.33M241.339 460.793L239.734 457.048M239.734 457.048L227.678 462.215M239.734 457.048L231.711 438.33M227.678 462.215L227.786 462.467C229.559 466.605 227.642 471.398 223.504 473.172V473.172M227.678 462.215L225.233 456.51M195.483 444.687L174.957 453.484M231.711 438.33L219.656 443.497M219.656 443.497L219.547 443.243C217.773 439.105 212.98 437.187 208.841 438.961V438.961M219.656 443.497L222.074 449.14M202.651 441.614L208.841 438.961M174.957 453.484V453.484C170.638 455.335 168.637 460.336 170.488 464.655L170.635 464.996M174.957 453.484L189.619 487.695M189.619 487.695V487.695C185.3 489.546 180.299 487.545 178.448 483.227L178.175 482.588M189.619 487.695L223.504 473.172M223.504 473.172L208.841 438.961M170.635 464.996L164.454 464.972L174.082 487.438L178.175 482.588M170.635 464.996L178.175 482.588M222.074 449.14L227.287 446.906M222.074 449.14L225.233 456.51M227.287 446.906L226.88 445.956C226.533 445.147 226.908 444.209 227.718 443.862V443.862C228.528 443.515 229.465 443.89 229.812 444.7L233.812 454.031C234.159 454.84 233.784 455.778 232.974 456.125V456.125C232.164 456.472 231.226 456.097 230.879 455.287L230.446 454.276M227.287 446.906L230.446 454.276M230.446 454.276L225.233 456.51" stroke="white" stroke-linecap="round"/>
<path d="M18.6739 486.429L17.3767 490.294M9.6015 513.463L10.8977 509.6M10.8977 509.6L-1.5371 505.427M10.8977 509.6L17.3767 490.294M-1.5371 505.427L-1.62417 505.687C-3.05674 509.956 -7.67862 512.255 -11.9474 510.822V510.822M-1.5371 505.427L0.437656 499.543M-13.884 470.912L-35.0557 463.807M17.3767 490.294L4.94192 486.121M4.94192 486.121L5.02987 485.859C6.46244 481.59 4.16322 476.968 -0.105582 475.536V475.536M4.94192 486.121L2.98861 491.942M-6.4907 473.393L-0.105582 475.536M-35.0557 463.807V463.807C-39.5101 462.312 -44.3329 464.711 -45.8278 469.166L-45.9459 469.518M-35.0557 463.807L-46.8975 499.093M-46.8975 499.093V499.093C-51.3519 497.599 -53.7511 492.776 -52.2562 488.321L-52.0353 487.663M-46.8975 499.093L-11.9474 510.822M-11.9474 510.822L-0.105582 475.536M-45.9459 469.518L-50.5411 465.384L-58.3174 488.556L-52.0353 487.663M-45.9459 469.518L-52.0353 487.663M2.98861 491.942L8.36555 493.746M2.98861 491.942L0.437656 499.543M8.36555 493.746L8.69428 492.767C8.97457 491.931 9.87885 491.481 10.7141 491.762V491.762C11.5493 492.042 11.9991 492.946 11.7188 493.782L8.48894 503.406C8.20866 504.241 7.30438 504.691 6.46918 504.411V504.411C5.63398 504.13 5.18413 503.226 5.46442 502.391L5.81459 501.347M8.36555 493.746L5.81459 501.347M5.81459 501.347L0.437656 499.543" stroke="white" stroke-linecap="round"/>
<path d="M403.215 396.694L377.548 408.752" stroke="white" stroke-linecap="round"/>
<path d="M414.605 360.073L416.338 363.764M426.729 385.883L424.997 382.195M424.997 382.195L413.125 387.772M424.997 382.195L416.338 363.764M413.125 387.772L413.241 388.02C415.156 392.096 413.404 396.951 409.329 398.866V398.866M413.125 387.772L410.486 382.154M380.348 371.357L360.136 380.852M416.338 363.764L404.466 369.34M404.466 369.34L404.349 369.09C402.434 365.015 397.578 363.263 393.503 365.177V365.177M404.466 369.34L407.077 374.897M387.407 368.041L393.503 365.177M360.136 380.852V380.852C355.883 382.85 354.055 387.917 356.053 392.17L356.211 392.506M360.136 380.852L375.961 414.541M375.961 414.541V414.541C371.709 416.539 366.642 414.711 364.644 410.458L364.349 409.829M375.961 414.541L409.329 398.866M409.329 398.866L393.503 365.177M356.211 392.506L350.032 392.693L360.425 414.816L364.349 409.829M356.211 392.506L364.349 409.829M407.077 374.897L412.21 372.486M407.077 374.897L410.486 382.154M412.21 372.486L411.771 371.551C411.396 370.753 411.739 369.803 412.536 369.429V369.429C413.334 369.054 414.284 369.397 414.658 370.194L418.975 379.383C419.349 380.18 419.007 381.13 418.209 381.505V381.505C417.412 381.879 416.462 381.537 416.087 380.739L415.619 379.743M412.21 372.486L415.619 379.743M415.619 379.743L410.486 382.154" stroke="white" stroke-linecap="round"/>
<path d="M430.812 237.016L434.288 239.147M455.123 251.92L451.649 249.791M451.649 249.791L444.794 260.973M451.649 249.791L434.288 239.147M444.794 260.973L445.027 261.116C448.866 263.469 450.07 268.489 447.717 272.328V272.328M444.794 260.973L439.502 257.729M408.389 265.265L396.717 284.304M434.288 239.147L427.433 250.329M427.433 250.329L427.197 250.185C423.358 247.831 418.338 249.035 415.985 252.874V252.874M427.433 250.329L432.667 253.538M412.465 258.616L415.985 252.874M396.717 284.304V284.304C394.261 288.309 395.517 293.547 399.523 296.003L399.839 296.197M396.717 284.304L428.448 303.757M428.448 303.757V303.757C425.993 307.763 420.755 309.02 416.749 306.564L416.157 306.201M428.448 303.757L447.717 272.328M447.717 272.328L415.985 252.874M399.839 296.197L394.78 299.748L415.618 312.523L416.157 306.201M399.839 296.197L416.157 306.201M432.667 253.538L435.631 248.703M432.667 253.538L439.502 257.729M435.631 248.703L434.75 248.163C433.999 247.702 433.764 246.72 434.224 245.969V245.969C434.684 245.218 435.667 244.982 436.418 245.443L445.073 250.749C445.824 251.209 446.059 252.191 445.599 252.943V252.943C445.138 253.694 444.156 253.929 443.405 253.469L442.467 252.893M435.631 248.703L442.467 252.893M442.467 252.893L439.502 257.729" stroke="white" stroke-linecap="round"/>
<path d="M-24.3654 237.304L-20.9609 239.547M-0.553023 252.992L-3.95527 250.75M-3.95527 250.75L-11.1713 261.703M-3.95527 250.75L-20.9609 239.547M-11.1713 261.703L-10.9427 261.854C-7.18261 264.331 -6.14261 269.387 -8.61982 273.147V273.147M-11.1713 261.703L-16.3544 258.288M-47.697 264.807L-59.9831 283.456M-20.9609 239.547L-28.1769 250.5M-28.1769 250.5L-28.4077 250.348C-32.1678 247.87 -37.2242 248.91 -39.7014 252.67V252.67M-28.1769 250.5L-23.05 253.877M-43.4067 258.295L-39.7014 252.67M-59.9831 283.456V283.456C-62.568 287.379 -61.4827 292.655 -57.5592 295.24L-57.2491 295.445M-59.9831 283.456L-28.9015 303.933M-28.9015 303.933V303.933C-31.4864 307.856 -36.7626 308.941 -40.6862 306.356L-41.2662 305.974M-28.9015 303.933L-8.61982 273.147M-8.61982 273.147L-39.7014 252.67M-57.2491 295.445L-62.4213 298.829L-42.0106 312.276L-41.2662 305.974M-57.2491 295.445L-41.2662 305.974M-23.05 253.877L-19.9297 249.141M-23.05 253.877L-16.3544 258.288M-19.9297 249.141L-20.7926 248.573C-21.5282 248.088 -21.7317 247.099 -21.247 246.363V246.363C-20.7624 245.627 -19.7731 245.424 -19.0374 245.909L-10.5599 251.494C-9.82423 251.978 -9.62075 252.968 -10.1054 253.703V253.703C-10.5901 254.439 -11.5794 254.642 -12.3151 254.158L-13.2342 253.552M-19.9297 249.141L-13.2342 253.552M-13.2342 253.552L-16.3544 258.288" stroke="white" stroke-linecap="round"/>
<path d="M342.461 155.516L330.017 180.998" stroke="white" stroke-linecap="round"/>
<path d="M328.384 119.843L332.047 121.632M354.007 132.356L350.346 130.568M350.346 130.568L344.59 142.354M350.346 130.568L332.047 121.632M344.59 142.354L344.836 142.474C348.882 144.45 350.56 149.332 348.584 153.378V153.378M344.59 142.354L339.013 139.631M308.761 150.104L298.962 170.171M332.047 121.632L326.291 133.418M326.291 133.418L326.043 133.297C321.997 131.321 317.115 132.999 315.139 137.045V137.045M326.291 133.418L331.808 136.112M312.184 143.097L315.139 137.045M298.962 170.171V170.171C296.9 174.393 298.651 179.487 302.873 181.549L303.206 181.712M298.962 170.171L332.407 186.505M332.407 186.505V186.505C330.345 190.727 325.251 192.478 321.029 190.416L320.405 190.111M332.407 186.505L348.584 153.378M348.584 153.378L315.139 137.045M303.206 181.712L298.51 185.73L320.473 196.456L320.405 190.111M303.206 181.712L320.405 190.111M331.808 136.112L334.297 131.016M331.808 136.112L339.013 139.631M334.297 131.016L333.368 130.562C332.577 130.176 332.249 129.221 332.635 128.429V128.429C333.022 127.637 333.977 127.309 334.768 127.696L343.891 132.15C344.682 132.537 345.011 133.492 344.624 134.284V134.284C344.237 135.075 343.282 135.404 342.491 135.017L341.502 134.534M334.297 131.016L341.502 134.534M341.502 134.534L339.013 139.631" stroke="white" stroke-linecap="round"/>
<path d="M121.328 169.04L100.546 188.335" stroke="white" stroke-linecap="round"/>
<path d="M121.036 130.691L123.81 133.679M140.437 151.588L137.665 148.603M137.665 148.603L128.053 157.527M137.665 148.603L123.81 133.679M128.053 157.527L128.239 157.728C131.303 161.027 131.111 166.186 127.812 169.25V169.25M128.053 157.527L123.83 152.978M91.8361 151.861L75.4701 167.056M123.81 133.679L114.197 142.603M114.197 142.603L114.009 142.4C110.946 139.101 105.787 138.909 102.487 141.973V141.973M114.197 142.603L118.375 147.102M97.5513 146.555L102.487 141.973M75.4701 167.056V167.056C72.0268 170.253 71.827 175.636 75.0239 179.079L75.2765 179.351M75.4701 167.056L100.795 194.333M100.795 194.333V194.333C97.3514 197.53 91.9685 197.33 88.7716 193.887L88.2991 193.378M100.795 194.333L127.812 169.25M127.812 169.25L102.487 141.973M75.2765 179.351L69.4482 181.409L86.0784 199.322L88.2991 193.378M75.2765 179.351L88.2991 193.378M118.375 147.102L122.531 143.243M118.375 147.102L123.83 152.978M122.531 143.243L121.828 142.486C121.229 141.841 121.266 140.831 121.912 140.232V140.232C122.557 139.632 123.567 139.67 124.166 140.315L131.073 147.755C131.673 148.401 131.635 149.41 130.99 150.01V150.01C130.344 150.609 129.335 150.572 128.735 149.926L127.986 149.119M122.531 143.243L127.986 149.119M127.986 149.119L123.83 152.978" stroke="white" stroke-linecap="round"/>
<path d="M214.391 26.4463L188.512 38.0421" stroke="white" stroke-linecap="round"/>
<path d="M226.432 -9.9646L228.099 -6.24404M238.092 16.0581L236.426 12.3401M236.426 12.3401L224.457 17.7034M236.426 12.3401L228.099 -6.24404M224.457 17.7034L224.569 17.9532C226.41 22.0623 224.571 26.886 220.462 28.7272V28.7272M224.457 17.7034L221.919 12.0391M191.979 0.703501L171.6 9.83522M228.099 -6.24404L216.129 -0.880688M216.129 -0.880688L216.016 -1.13295C214.175 -5.24207 209.352 -7.08057 205.242 -5.23936V-5.23936M216.129 -0.880688L218.64 4.72209M199.096 -2.48535L205.242 -5.23936M171.6 9.83522V9.83522C167.312 11.7565 165.393 16.7899 167.315 21.0777L167.467 21.4165M171.6 9.83522L186.819 43.8018M186.819 43.8018V43.8018C182.532 45.723 177.498 43.8046 175.577 39.5168L175.293 38.883M186.819 43.8018L220.462 28.7272M220.462 28.7272L205.242 -5.23936M167.467 21.4165L161.286 21.4933L171.28 43.7985L175.293 38.883M167.467 21.4165L175.293 38.883M218.64 4.72209L223.816 2.40292M218.64 4.72209L221.919 12.0391M223.816 2.40292L223.393 1.46C223.033 0.656039 223.393 -0.287728 224.197 -0.647964V-0.647964C225.001 -1.0082 225.944 -0.648493 226.305 0.155466L230.456 9.41987C230.816 10.2238 230.456 11.1676 229.652 11.5278V11.5278C228.848 11.8881 227.905 11.5284 227.544 10.7244L227.094 9.71996M223.816 2.40292L227.094 9.71996M227.094 9.71996L221.919 12.0391" stroke="white" stroke-linecap="round"/>
<path d="M21.5863 32.9014L20.3791 36.7956M13.1429 60.1383L14.3493 56.2468M14.3493 56.2468L1.82105 52.3631M14.3493 56.2468L20.3791 36.7956M1.82105 52.3631L1.74002 52.6245C0.406767 56.9254 -4.16058 59.3311 -8.46144 57.9978V57.9978M1.82105 52.3631L3.6589 46.4345M-11.3225 18.143L-32.6531 11.5306M20.3791 36.7956L7.85088 32.9119M7.85088 32.9119L7.93273 32.6478C9.26598 28.347 6.86027 23.7796 2.55941 22.4464V22.4464M7.85088 32.9119L6.033 38.7761M-3.87365 20.4521L2.55941 22.4464M-32.6531 11.5306V11.5306C-37.141 10.1394 -41.9069 12.6497 -43.2981 17.1375L-43.4081 17.4921M-32.6531 11.5306L-43.674 47.0821M-43.674 47.0821V47.0821C-48.1618 45.6908 -50.6721 40.9249 -49.2809 36.4371L-49.0753 35.7736M-43.674 47.0821L-8.46144 57.9978M-8.46144 57.9978L2.55941 22.4464M-43.4081 17.4921L-48.0978 13.4658L-55.335 36.8118L-49.0753 35.7736M-43.4081 17.4921L-49.0753 35.7736M6.033 38.7761L11.4503 40.4554M6.033 38.7761L3.6589 46.4345M11.4503 40.4554L11.7563 39.4685C12.0171 38.627 12.9107 38.1563 13.7522 38.4172V38.4172C14.5937 38.678 15.0643 39.5717 14.8035 40.4131L11.7976 50.1098C11.5367 50.9513 10.6431 51.422 9.80162 51.1611V51.1611C8.96014 50.9003 8.48946 50.0066 8.75031 49.1652L9.07621 48.1139M11.4503 40.4554L9.07621 48.1139M9.07621 48.1139L3.6589 46.4345" stroke="white" stroke-linecap="round"/>
<path d="M253.374 733.565L276.704 714.037L272.158 748.623L296.245 724.584L291.699 759.17L316.16 737.011L311.991 769.718L336.831 744.928L334.168 776.132" stroke="white" stroke-width="3"/>
<path d="M279.372 512.504L282.739 482.266L303.355 510.406L304.151 476.385L324.768 504.525L327.134 471.604L346.724 498.124L347.545 463.04L367.185 487.434" stroke="white" stroke-width="3"/>
<path d="M53.8977 513.529L57.2912 483.294L77.8826 511.451L78.7087 477.431L99.3001 505.589L101.695 472.671L121.262 499.208L122.114 464.125L141.733 488.535" stroke="white" stroke-width="3"/>
<path d="M254.434 275.06L277.263 254.948L273.593 289.638L297.064 264.998L293.394 299.688L317.287 276.917L313.947 309.719L338.152 284.308L336.279 315.57" stroke="white" stroke-width="3"/>
<path d="M37.4915 300.505L52.4729 274.025L60.3689 308.003L74.4735 277.033L82.3695 311.012L97.485 281.671L105.074 313.757L119.62 281.819L128.091 311.969" stroke="white" stroke-width="3"/>
<path d="M52.3798 54.0402L56.7661 23.9335L76.4201 52.7533L78.3648 18.7787L98.0189 47.5985L101.495 14.7768L120.179 41.9432L122.184 6.90697L140.989 31.95" stroke="white" stroke-width="3"/>
<path d="M279.954 54.0402L284.34 23.9335L303.994 52.7533L305.939 18.7787L325.593 47.5985L329.07 14.7768L347.753 41.9432L349.759 6.90697L368.564 31.95" stroke="white" stroke-width="3"/>
<circle cx="201.798" cy="104.638" r="34.1888" stroke="white" stroke-width="5"/>
<circle cx="-7.70184" cy="167.381" r="34.1888" stroke="white" stroke-width="5"/>
<circle cx="278.365" cy="386.45" r="34.1888" stroke="white" stroke-width="5"/>
<circle cx="-7.70184" cy="625.724" r="34.1888" stroke="white" stroke-width="5"/>
<circle cx="201.798" cy="562.982" r="34.1888" stroke="white" stroke-width="5"/>
<rect x="157.988" y="684.508" width="53.8952" height="53.8952" transform="rotate(-51.1536 157.988 684.508)" stroke="white" stroke-width="5"/>
<rect x="95.2417" y="395.251" width="53.8952" height="53.8952" transform="rotate(-51.1536 95.2417 395.251)" stroke="white" stroke-width="5"/>
<rect x="157.968" y="225.339" width="53.8952" height="53.8952" transform="rotate(-51.1536 157.968 225.339)" stroke="white" stroke-width="5"/>
<path d="M13.3398 412.327V374.663C13.3398 370.232 16.3086 368.017 19.9864 368.017H37.7104C41.3881 368.017 44.3569 370.232 44.3569 374.663V412.327H13.3398Z" stroke="white" stroke-width="1.5" stroke-linecap="round" stroke-linejoin="round"/>
<path d="M10.0156 412.327H47.6792" stroke="white" stroke-width="1.5" stroke-linecap="round" stroke-linejoin="round"/>
<path d="M24.1756 385.741H33.5472C35.8513 385.741 37.7345 384.633 37.7345 381.553V378.828C37.7345 375.749 35.8513 374.641 33.5472 374.641H24.1756C21.8715 374.641 19.9883 375.749 19.9883 378.828V381.553C19.9883 384.633 21.8715 385.741 24.1756 385.741Z" stroke="white" stroke-width="1.5" stroke-linecap="round" stroke-linejoin="round"/>
<path d="M19.9883 392.387H26.6348" stroke="white" stroke-width="1.5" stroke-linecap="round" stroke-linejoin="round"/>
<path d="M44.3555 399.056L54.3252 399.034V385.741L49.8942 383.525" stroke="white" stroke-width="1.5" stroke-linecap="round" stroke-linejoin="round"/>
<path d="M186.684 329.378V291.714C186.684 287.283 189.652 285.068 193.33 285.068H211.054C214.732 285.068 217.701 287.283 217.701 291.714V329.378H186.684Z" stroke="white" stroke-width="1.5" stroke-linecap="round" stroke-linejoin="round"/>
<path d="M183.359 329.378H221.023" stroke="white" stroke-width="1.5" stroke-linecap="round" stroke-linejoin="round"/>
<path d="M197.519 302.792H206.891C209.195 302.792 211.078 301.684 211.078 298.605V295.88C211.078 292.8 209.195 291.692 206.891 291.692H197.519C195.215 291.692 193.332 292.8 193.332 295.88V298.605C193.332 301.684 195.215 302.792 197.519 302.792Z" stroke="white" stroke-width="1.5" stroke-linecap="round" stroke-linejoin="round"/>
<path d="M193.332 309.438H199.979" stroke="white" stroke-width="1.5" stroke-linecap="round" stroke-linejoin="round"/>
<path d="M217.699 316.107L227.669 316.085V302.792L223.238 300.576" stroke="white" stroke-width="1.5" stroke-linecap="round" stroke-linejoin="round"/>
</g>
</g>
<path d="M26.98 534V492H35.02L59.8 522.24H55.9V492H65.5V534H57.52L32.68 503.76H36.58V534H26.98ZM90.737 534.48C87.297 534.48 84.237 533.76 81.557 532.32C78.917 530.88 76.817 528.92 75.257 526.44C73.737 523.92 72.977 521.06 72.977 517.86C72.977 514.62 73.737 511.76 75.257 509.28C76.817 506.76 78.917 504.8 81.557 503.4C84.237 501.96 87.297 501.24 90.737 501.24C94.137 501.24 97.177 501.96 99.857 503.4C102.537 504.8 104.637 506.74 106.157 509.22C107.677 511.7 108.437 514.58 108.437 517.86C108.437 521.06 107.677 523.92 106.157 526.44C104.637 528.92 102.537 530.88 99.857 532.32C97.177 533.76 94.137 534.48 90.737 534.48ZM90.737 526.8C92.297 526.8 93.697 526.44 94.937 525.72C96.177 525 97.157 523.98 97.877 522.66C98.597 521.3 98.957 519.7 98.957 517.86C98.957 515.98 98.597 514.38 97.877 513.06C97.157 511.74 96.177 510.72 94.937 510C93.697 509.28 92.297 508.92 90.737 508.92C89.177 508.92 87.777 509.28 86.537 510C85.297 510.72 84.297 511.74 83.537 513.06C82.817 514.38 82.457 515.98 82.457 517.86C82.457 519.7 82.817 521.3 83.537 522.66C84.297 523.98 85.297 525 86.537 525.72C87.777 526.44 89.177 526.8 90.737 526.8ZM123.175 534L109.615 501.72H119.275L130.555 529.5H125.755L137.455 501.72H146.455L132.835 534H123.175ZM166.015 534.48C162.335 534.48 159.095 533.76 156.295 532.32C153.535 530.88 151.395 528.92 149.875 526.44C148.355 523.92 147.595 521.06 147.595 517.86C147.595 514.62 148.335 511.76 149.815 509.28C151.335 506.76 153.395 504.8 155.995 503.4C158.595 501.96 161.535 501.24 164.815 501.24C167.975 501.24 170.815 501.92 173.335 503.28C175.895 504.6 177.915 506.52 179.395 509.04C180.875 511.52 181.615 514.5 181.615 517.98C181.615 518.34 181.595 518.76 181.555 519.24C181.515 519.68 181.475 520.1 181.435 520.5H155.215V515.04H176.515L172.915 516.66C172.915 514.98 172.575 513.52 171.895 512.28C171.215 511.04 170.275 510.08 169.075 509.4C167.875 508.68 166.475 508.32 164.875 508.32C163.275 508.32 161.855 508.68 160.615 509.4C159.415 510.08 158.475 511.06 157.795 512.34C157.115 513.58 156.775 515.06 156.775 516.78V518.22C156.775 519.98 157.155 521.54 157.915 522.9C158.715 524.22 159.815 525.24 161.215 525.96C162.655 526.64 164.335 526.98 166.255 526.98C167.975 526.98 169.475 526.72 170.755 526.2C172.075 525.68 173.275 524.9 174.355 523.86L179.335 529.26C177.855 530.94 175.995 532.24 173.755 533.16C171.515 534.04 168.935 534.48 166.015 534.48ZM229.787 501.24C232.347 501.24 234.607 501.76 236.567 502.8C238.567 503.8 240.127 505.36 241.247 507.48C242.407 509.56 242.987 512.24 242.987 515.52V534H233.627V516.96C233.627 514.36 233.087 512.44 232.007 511.2C230.927 509.96 229.407 509.34 227.447 509.34C226.087 509.34 224.867 509.66 223.787 510.3C222.707 510.9 221.867 511.82 221.267 513.06C220.667 514.3 220.367 515.88 220.367 517.8V534H211.007V516.96C211.007 514.36 210.467 512.44 209.387 511.2C208.347 509.96 206.847 509.34 204.887 509.34C203.527 509.34 202.307 509.66 201.227 510.3C200.147 510.9 199.307 511.82 198.707 513.06C198.107 514.3 197.807 515.88 197.807 517.8V534H188.447V501.72H197.387V510.54L195.707 507.96C196.827 505.76 198.407 504.1 200.447 502.98C202.527 501.82 204.887 501.24 207.527 501.24C210.487 501.24 213.067 502 215.267 503.52C217.507 505 218.987 507.28 219.707 510.36L216.407 509.46C217.487 506.94 219.207 504.94 221.567 503.46C223.967 501.98 226.707 501.24 229.787 501.24ZM271.056 534.48C268.216 534.48 265.776 533.88 263.736 532.68C261.696 531.48 260.136 529.66 259.056 527.22C257.976 524.74 257.436 521.62 257.436 517.86C257.436 514.06 257.996 510.94 259.116 508.5C260.276 506.06 261.876 504.24 263.916 503.04C265.956 501.84 268.336 501.24 271.056 501.24C274.096 501.24 276.816 501.92 279.216 503.28C281.656 504.64 283.576 506.56 284.976 509.04C286.416 511.52 287.136 514.46 287.136 517.86C287.136 521.22 286.416 524.14 284.976 526.62C283.576 529.1 281.656 531.04 279.216 532.44C276.816 533.8 274.096 534.48 271.056 534.48ZM251.976 534V489.48H261.336V508.26L260.736 517.8L260.916 527.4V534H251.976ZM269.436 526.8C270.996 526.8 272.376 526.44 273.576 525.72C274.816 525 275.796 523.98 276.516 522.66C277.276 521.3 277.656 519.7 277.656 517.86C277.656 515.98 277.276 514.38 276.516 513.06C275.796 511.74 274.816 510.72 273.576 510C272.376 509.28 270.996 508.92 269.436 508.92C267.876 508.92 266.476 509.28 265.236 510C263.996 510.72 263.016 511.74 262.296 513.06C261.576 514.38 261.216 515.98 261.216 517.86C261.216 519.7 261.576 521.3 262.296 522.66C263.016 523.98 263.996 525 265.236 525.72C266.476 526.44 267.876 526.8 269.436 526.8ZM310.022 534.48C306.342 534.48 303.102 533.76 300.302 532.32C297.542 530.88 295.402 528.92 293.882 526.44C292.362 523.92 291.602 521.06 291.602 517.86C291.602 514.62 292.342 511.76 293.822 509.28C295.342 506.76 297.402 504.8 300.002 503.4C302.602 501.96 305.542 501.24 308.822 501.24C311.982 501.24 314.822 501.92 317.342 503.28C319.902 504.6 321.922 506.52 323.402 509.04C324.882 511.52 325.622 514.5 325.622 517.98C325.622 518.34 325.602 518.76 325.562 519.24C325.522 519.68 325.482 520.1 325.442 520.5H299.222V515.04H320.522L316.922 516.66C316.922 514.98 316.582 513.52 315.902 512.28C315.222 511.04 314.282 510.08 313.082 509.4C311.882 508.68 310.482 508.32 308.882 508.32C307.282 508.32 305.862 508.68 304.622 509.4C303.422 510.08 302.482 511.06 301.802 512.34C301.122 513.58 300.782 515.06 300.782 516.78V518.22C300.782 519.98 301.162 521.54 301.922 522.9C302.722 524.22 303.822 525.24 305.222 525.96C306.662 526.64 308.342 526.98 310.262 526.98C311.982 526.98 313.482 526.72 314.762 526.2C316.082 525.68 317.282 524.9 318.362 523.86L323.342 529.26C321.862 530.94 320.002 532.24 317.762 533.16C315.522 534.04 312.942 534.48 310.022 534.48ZM332.454 534V501.72H341.394V510.84L340.134 508.2C341.094 505.92 342.634 504.2 344.754 503.04C346.874 501.84 349.454 501.24 352.494 501.24V509.88C352.094 509.84 351.734 509.82 351.414 509.82C351.094 509.78 350.754 509.76 350.394 509.76C347.834 509.76 345.754 510.5 344.154 511.98C342.594 513.42 341.814 515.68 341.814 518.76V534H332.454Z" fill="white"/>
<path d="M362.433 534.48C360.833 534.48 359.453 533.94 358.293 532.86C357.173 531.74 356.613 530.32 356.613 528.6C356.613 526.88 357.173 525.5 358.293 524.46C359.453 523.38 360.833 522.84 362.433 522.84C364.073 522.84 365.453 523.38 366.573 524.46C367.693 525.5 368.253 526.88 368.253 528.6C368.253 530.32 367.693 531.74 366.573 532.86C365.453 533.94 364.073 534.48 362.433 534.48Z" fill="#F99617"/>
<path d="M322.68 446.32C320.147 446.32 318.173 445.68 316.76 444.4C315.347 443.093 314.64 441.16 314.64 438.6V419.72H320.88V438.52C320.88 439.427 321.12 440.133 321.6 440.64C322.08 441.12 322.733 441.36 323.56 441.36C324.547 441.36 325.387 441.093 326.08 440.56L327.76 444.96C327.12 445.413 326.347 445.76 325.44 446C324.56 446.213 323.64 446.32 322.68 446.32ZM311.32 429.76V424.96H326.24V429.76H311.32ZM344.743 424.16C346.449 424.16 347.969 424.507 349.303 425.2C350.663 425.867 351.729 426.907 352.503 428.32C353.276 429.707 353.663 431.493 353.663 433.68V446H347.423V434.64C347.423 432.907 347.036 431.627 346.263 430.8C345.516 429.973 344.449 429.56 343.063 429.56C342.076 429.56 341.183 429.773 340.383 430.2C339.609 430.6 338.996 431.227 338.543 432.08C338.116 432.933 337.903 434.027 337.903 435.36V446H331.663V416.32H337.903V430.44L336.503 428.64C337.276 427.2 338.383 426.093 339.823 425.32C341.263 424.547 342.903 424.16 344.743 424.16ZM358.639 452.16L361.279 442.56L362.159 446.16C361.012 446.16 360.066 445.827 359.319 445.16C358.599 444.493 358.239 443.573 358.239 442.4C358.239 441.227 358.612 440.293 359.359 439.6C360.106 438.907 361.026 438.56 362.119 438.56C363.239 438.56 364.159 438.92 364.879 439.64C365.599 440.333 365.959 441.253 365.959 442.4C365.959 442.747 365.932 443.093 365.879 443.44C365.826 443.76 365.719 444.16 365.559 444.64C365.426 445.093 365.199 445.68 364.879 446.4L362.599 452.16H358.639Z" fill="white"/>
<path d="M81.64 456.22C70.4467 456.22 59.2533 454.84 48.06 452.08C37.02 449.32 27.36 445.41 19.08 440.35L35.64 406.08C42.08 410.373 49.21 413.67 57.03 415.97C65.0033 418.27 72.7467 419.42 80.26 419.42C88.08 419.42 94.29 417.963 98.89 415.05C103.49 412.137 105.79 407.997 105.79 402.63C105.79 397.877 103.873 394.12 100.04 391.36C96.2067 388.447 89.92 386.99 81.18 386.99H62.09V358.24L105.33 311.55L109.7 327.19H27.36V292H143.74V320.52L100.5 367.21L78.19 354.56H90.61C110.697 354.56 125.877 359.083 136.15 368.13C146.577 377.023 151.79 388.523 151.79 402.63C151.79 411.83 149.26 420.493 144.2 428.62C139.293 436.747 131.703 443.417 121.43 448.63C111.157 453.69 97.8933 456.22 81.64 456.22ZM237.474 456.22C223.674 456.22 211.407 452.923 200.674 446.33C190.094 439.737 181.737 430.23 175.604 417.81C169.471 405.39 166.404 390.287 166.404 372.5C166.404 354.713 169.471 339.61 175.604 327.19C181.737 314.77 190.094 305.263 200.674 298.67C211.407 292.077 223.674 288.78 237.474 288.78C251.121 288.78 263.234 292.077 273.814 298.67C284.547 305.263 292.981 314.77 299.114 327.19C305.247 339.61 308.314 354.713 308.314 372.5C308.314 390.287 305.247 405.39 299.114 417.81C292.981 430.23 284.547 439.737 273.814 446.33C263.234 452.923 251.121 456.22 237.474 456.22ZM237.474 418.96C242.381 418.96 246.674 417.427 250.354 414.36C254.187 411.293 257.177 406.387 259.324 399.64C261.471 392.74 262.544 383.693 262.544 372.5C262.544 361.153 261.471 352.107 259.324 345.36C257.177 338.613 254.187 333.707 250.354 330.64C246.674 327.573 242.381 326.04 237.474 326.04C232.567 326.04 228.197 327.573 224.364 330.64C220.684 333.707 217.694 338.613 215.394 345.36C213.247 352.107 212.174 361.153 212.174 372.5C212.174 383.693 213.247 392.74 215.394 399.64C217.694 406.387 220.684 411.293 224.364 414.36C228.197 417.427 232.567 418.96 237.474 418.96Z" fill="white"/>
<path d="M34.77 255L27.81 234H31.86L38.07 252.99H36.06L42.51 234H46.11L52.38 252.99H50.43L56.79 234H60.51L53.55 255H49.41L43.68 237.87H44.76L38.94 255H34.77ZM69.956 255.21C68.176 255.21 66.616 254.86 65.276 254.16C63.956 253.44 62.926 252.46 62.186 251.22C61.466 249.98 61.106 248.57 61.106 246.99C61.106 245.39 61.456 243.98 62.156 242.76C62.876 241.52 63.856 240.55 65.096 239.85C66.356 239.15 67.786 238.8 69.386 238.8C70.946 238.8 72.336 239.14 73.556 239.82C74.776 240.5 75.736 241.46 76.436 242.7C77.136 243.94 77.486 245.4 77.486 247.08C77.486 247.24 77.476 247.42 77.456 247.62C77.456 247.82 77.446 248.01 77.426 248.19H64.076V245.7H75.446L73.976 246.48C73.996 245.56 73.806 244.75 73.406 244.05C73.006 243.35 72.456 242.8 71.756 242.4C71.076 242 70.286 241.8 69.386 241.8C68.466 241.8 67.656 242 66.956 242.4C66.276 242.8 65.736 243.36 65.336 244.08C64.956 244.78 64.766 245.61 64.766 246.57V247.17C64.766 248.13 64.986 248.98 65.426 249.72C65.866 250.46 66.486 251.03 67.286 251.43C68.086 251.83 69.006 252.03 70.046 252.03C70.946 252.03 71.756 251.89 72.476 251.61C73.196 251.33 73.836 250.89 74.396 250.29L76.406 252.6C75.686 253.44 74.776 254.09 73.676 254.55C72.596 254.99 71.356 255.21 69.956 255.21ZM87.3691 255L96.8191 234H100.659L110.139 255H106.059L97.9291 236.07H99.4891L91.3891 255H87.3691ZM91.7191 250.14L92.7691 247.08H104.109L105.159 250.14H91.7191ZM112.75 255V238.98H116.32V243.39L115.9 242.1C116.38 241.02 117.13 240.2 118.15 239.64C119.19 239.08 120.48 238.8 122.02 238.8V242.37C121.86 242.33 121.71 242.31 121.57 242.31C121.43 242.29 121.29 242.28 121.15 242.28C119.73 242.28 118.6 242.7 117.76 243.54C116.92 244.36 116.5 245.59 116.5 247.23V255H112.75ZM132.885 255.21C131.105 255.21 129.545 254.86 128.205 254.16C126.885 253.44 125.855 252.46 125.115 251.22C124.395 249.98 124.035 248.57 124.035 246.99C124.035 245.39 124.385 243.98 125.085 242.76C125.805 241.52 126.785 240.55 128.025 239.85C129.285 239.15 130.715 238.8 132.315 238.8C133.875 238.8 135.265 239.14 136.485 239.82C137.705 240.5 138.665 241.46 139.365 242.7C140.065 243.94 140.415 245.4 140.415 247.08C140.415 247.24 140.405 247.42 140.385 247.62C140.385 247.82 140.375 248.01 140.355 248.19H127.005V245.7H138.375L136.905 246.48C136.925 245.56 136.735 244.75 136.335 244.05C135.935 243.35 135.385 242.8 134.685 242.4C134.005 242 133.215 241.8 132.315 241.8C131.395 241.8 130.585 242 129.885 242.4C129.205 242.8 128.665 243.36 128.265 244.08C127.885 244.78 127.695 245.61 127.695 246.57V247.17C127.695 248.13 127.915 248.98 128.355 249.72C128.795 250.46 129.415 251.03 130.215 251.43C131.015 251.83 131.935 252.03 132.975 252.03C133.875 252.03 134.685 251.89 135.405 251.61C136.125 251.33 136.765 250.89 137.325 250.29L139.335 252.6C138.615 253.44 137.705 254.09 136.605 254.55C135.525 254.99 134.285 255.21 132.885 255.21ZM153.268 255V234H157.168V251.7H168.148V255H153.268ZM181.066 255V251.76L180.856 251.07V245.4C180.856 244.3 180.526 243.45 179.866 242.85C179.206 242.23 178.206 241.92 176.866 241.92C175.966 241.92 175.076 242.06 174.196 242.34C173.336 242.62 172.606 243.01 172.006 243.51L170.536 240.78C171.396 240.12 172.416 239.63 173.596 239.31C174.796 238.97 176.036 238.8 177.316 238.8C179.636 238.8 181.426 239.36 182.686 240.48C183.966 241.58 184.606 243.29 184.606 245.61V255H181.066ZM176.026 255.21C174.826 255.21 173.776 255.01 172.876 254.61C171.976 254.19 171.276 253.62 170.776 252.9C170.296 252.16 170.056 251.33 170.056 250.41C170.056 249.51 170.266 248.7 170.686 247.98C171.126 247.26 171.836 246.69 172.816 246.27C173.796 245.85 175.096 245.64 176.716 245.64H181.366V248.13H176.986C175.706 248.13 174.846 248.34 174.406 248.76C173.966 249.16 173.746 249.66 173.746 250.26C173.746 250.94 174.016 251.48 174.556 251.88C175.096 252.28 175.846 252.48 176.806 252.48C177.726 252.48 178.546 252.27 179.266 251.85C180.006 251.43 180.536 250.81 180.856 249.99L181.486 252.24C181.126 253.18 180.476 253.91 179.536 254.43C178.616 254.95 177.446 255.21 176.026 255.21ZM196.499 255.21C195.139 255.21 193.939 254.96 192.899 254.46C191.859 253.94 191.049 253.16 190.469 252.12C189.889 251.06 189.599 249.73 189.599 248.13V238.98H193.349V247.62C193.349 249.06 193.669 250.14 194.309 250.86C194.969 251.56 195.899 251.91 197.099 251.91C197.979 251.91 198.739 251.73 199.379 251.37C200.039 251.01 200.549 250.47 200.909 249.75C201.289 249.03 201.479 248.14 201.479 247.08V238.98H205.229V255H201.659V250.68L202.289 252C201.749 253.04 200.959 253.84 199.919 254.4C198.879 254.94 197.739 255.21 196.499 255.21ZM219.529 238.8C220.809 238.8 221.949 239.05 222.949 239.55C223.969 240.05 224.769 240.82 225.349 241.86C225.929 242.88 226.219 244.2 226.219 245.82V255H222.469V246.3C222.469 244.88 222.129 243.82 221.449 243.12C220.789 242.42 219.859 242.07 218.659 242.07C217.779 242.07 216.999 242.25 216.319 242.61C215.639 242.97 215.109 243.51 214.729 244.23C214.369 244.93 214.189 245.82 214.189 246.9V255H210.439V238.98H214.009V243.3L213.379 241.98C213.939 240.96 214.749 240.18 215.809 239.64C216.889 239.08 218.129 238.8 219.529 238.8ZM238.655 255.21C236.975 255.21 235.475 254.86 234.155 254.16C232.855 253.44 231.835 252.46 231.095 251.22C230.355 249.98 229.985 248.57 229.985 246.99C229.985 245.39 230.355 243.98 231.095 242.76C231.835 241.52 232.855 240.55 234.155 239.85C235.475 239.15 236.975 238.8 238.655 238.8C240.215 238.8 241.585 239.12 242.765 239.76C243.965 240.38 244.875 241.3 245.495 242.52L242.615 244.2C242.135 243.44 241.545 242.88 240.845 242.52C240.165 242.16 239.425 241.98 238.625 241.98C237.705 241.98 236.875 242.18 236.135 242.58C235.395 242.98 234.815 243.56 234.395 244.32C233.975 245.06 233.765 245.95 233.765 246.99C233.765 248.03 233.975 248.93 234.395 249.69C234.815 250.43 235.395 251 236.135 251.4C236.875 251.8 237.705 252 238.625 252C239.425 252 240.165 251.82 240.845 251.46C241.545 251.1 242.135 250.54 242.615 249.78L245.495 251.46C244.875 252.66 243.965 253.59 242.765 254.25C241.585 254.89 240.215 255.21 238.655 255.21ZM257.98 238.8C259.26 238.8 260.4 239.05 261.4 239.55C262.42 240.05 263.22 240.82 263.8 241.86C264.38 242.88 264.67 244.2 264.67 245.82V255H260.92V246.3C260.92 244.88 260.58 243.82 259.9 243.12C259.24 242.42 258.31 242.07 257.11 242.07C256.23 242.07 255.45 242.25 254.77 242.61C254.09 242.97 253.56 243.51 253.18 244.23C252.82 244.93 252.64 245.82 252.64 246.9V255H248.89V232.74H252.64V243.3L251.83 241.98C252.39 240.96 253.2 240.18 254.26 239.64C255.34 239.08 256.58 238.8 257.98 238.8ZM269.727 255V238.98H273.477V255H269.727ZM271.617 236.34C270.917 236.34 270.337 236.12 269.877 235.68C269.437 235.24 269.217 234.71 269.217 234.09C269.217 233.45 269.437 232.92 269.877 232.5C270.337 232.06 270.917 231.84 271.617 231.84C272.317 231.84 272.887 232.05 273.327 232.47C273.787 232.87 274.017 233.38 274.017 234C274.017 234.66 273.797 235.22 273.357 235.68C272.917 236.12 272.337 236.34 271.617 236.34ZM287.789 238.8C289.069 238.8 290.209 239.05 291.209 239.55C292.229 240.05 293.029 240.82 293.609 241.86C294.189 242.88 294.479 244.2 294.479 245.82V255H290.729V246.3C290.729 244.88 290.389 243.82 289.709 243.12C289.049 242.42 288.119 242.07 286.919 242.07C286.039 242.07 285.259 242.25 284.579 242.61C283.899 242.97 283.369 243.51 282.989 244.23C282.629 244.93 282.449 245.82 282.449 246.9V255H278.699V238.98H282.269V243.3L281.639 241.98C282.199 240.96 283.009 240.18 284.069 239.64C285.149 239.08 286.389 238.8 287.789 238.8ZM306.825 261.03C305.345 261.03 303.895 260.83 302.475 260.43C301.075 260.05 299.925 259.49 299.025 258.75L300.705 255.93C301.405 256.51 302.285 256.97 303.345 257.31C304.425 257.67 305.515 257.85 306.615 257.85C308.375 257.85 309.665 257.44 310.485 256.62C311.305 255.82 311.715 254.61 311.715 252.99V250.14L312.015 246.51L311.895 242.88V238.98H315.465V252.57C315.465 255.47 314.725 257.6 313.245 258.96C311.765 260.34 309.625 261.03 306.825 261.03ZM306.345 254.28C304.825 254.28 303.445 253.96 302.205 253.32C300.985 252.66 300.015 251.75 299.295 250.59C298.595 249.43 298.245 248.07 298.245 246.51C298.245 244.97 298.595 243.62 299.295 242.46C300.015 241.3 300.985 240.4 302.205 239.76C303.445 239.12 304.825 238.8 306.345 238.8C307.705 238.8 308.925 239.07 310.005 239.61C311.085 240.15 311.945 240.99 312.585 242.13C313.245 243.27 313.575 244.73 313.575 246.51C313.575 248.29 313.245 249.76 312.585 250.92C311.945 252.06 311.085 252.91 310.005 253.47C308.925 254.01 307.705 254.28 306.345 254.28ZM306.915 251.1C307.855 251.1 308.695 250.91 309.435 250.53C310.175 250.13 310.745 249.59 311.145 248.91C311.565 248.21 311.775 247.41 311.775 246.51C311.775 245.61 311.565 244.82 311.145 244.14C310.745 243.44 310.175 242.91 309.435 242.55C308.695 242.17 307.855 241.98 306.915 241.98C305.975 241.98 305.125 242.17 304.365 242.55C303.625 242.91 303.045 243.44 302.625 244.14C302.225 244.82 302.025 245.61 302.025 246.51C302.025 247.41 302.225 248.21 302.625 248.91C303.045 249.59 303.625 250.13 304.365 250.53C305.125 250.91 305.975 251.1 306.915 251.1ZM336.487 255.21C334.847 255.21 333.387 254.86 332.107 254.16C330.827 253.44 329.817 252.46 329.077 251.22C328.337 249.98 327.967 248.57 327.967 246.99C327.967 245.39 328.337 243.98 329.077 242.76C329.817 241.52 330.827 240.55 332.107 239.85C333.387 239.15 334.847 238.8 336.487 238.8C338.147 238.8 339.617 239.15 340.897 239.85C342.197 240.55 343.207 241.51 343.927 242.73C344.667 243.95 345.037 245.37 345.037 246.99C345.037 248.57 344.667 249.98 343.927 251.22C343.207 252.46 342.197 253.44 340.897 254.16C339.617 254.86 338.147 255.21 336.487 255.21ZM336.487 252C337.407 252 338.227 251.8 338.947 251.4C339.667 251 340.227 250.42 340.627 249.66C341.047 248.9 341.257 248.01 341.257 246.99C341.257 245.95 341.047 245.06 340.627 244.32C340.227 243.56 339.667 242.98 338.947 242.58C338.227 242.18 337.417 241.98 336.517 241.98C335.597 241.98 334.777 242.18 334.057 242.58C333.357 242.98 332.797 243.56 332.377 244.32C331.957 245.06 331.747 245.95 331.747 246.99C331.747 248.01 331.957 248.9 332.377 249.66C332.797 250.42 333.357 251 334.057 251.4C334.777 251.8 335.587 252 336.487 252ZM358.012 238.8C359.292 238.8 360.432 239.05 361.432 239.55C362.452 240.05 363.252 240.82 363.832 241.86C364.412 242.88 364.702 244.2 364.702 245.82V255H360.952V246.3C360.952 244.88 360.612 243.82 359.932 243.12C359.272 242.42 358.342 242.07 357.142 242.07C356.262 242.07 355.482 242.25 354.802 242.61C354.122 242.97 353.592 243.51 353.212 244.23C352.852 244.93 352.672 245.82 352.672 246.9V255H348.922V238.98H352.492V243.3L351.862 241.98C352.422 240.96 353.232 240.18 354.292 239.64C355.372 239.08 356.612 238.8 358.012 238.8Z" fill="white"/>
</svg>
