<svg width="24" height="24" viewBox="0 0 24 24" fill="none" xmlns="http://www.w3.org/2000/svg">
<path d="M3.99996 14.2499C4.34815 14.2451 4.69047 14.1595 4.99996 13.9999L9.93996 18.5999C9.80526 18.9065 9.74072 19.2394 9.75104 19.5741C9.76135 19.9089 9.84627 20.2371 9.99959 20.5349C10.1529 20.8326 10.3708 21.0924 10.6373 21.2952C10.9038 21.4981 11.2122 21.6389 11.5401 21.7073C11.8679 21.7758 12.2069 21.7702 12.5323 21.6909C12.8577 21.6117 13.1613 21.4608 13.421 21.2493C13.6807 21.0378 13.8898 20.771 14.0333 20.4683C14.1767 20.1657 14.2507 19.8348 14.25 19.4999C14.2499 19.19 14.1852 18.8834 14.06 18.5999L19 13.9999C19.4663 14.2498 20.006 14.3266 20.5235 14.2166C21.041 14.1067 21.5029 13.8171 21.8273 13.3992C22.1518 12.9813 22.3179 12.4621 22.2961 11.9335C22.2744 11.4049 22.0663 10.901 21.7086 10.5112C21.351 10.1214 20.8669 9.87073 20.3421 9.80364C19.8173 9.73655 19.2857 9.85736 18.8415 10.1446C18.3973 10.432 18.0691 10.8672 17.915 11.3734C17.761 11.8795 17.7911 12.4238 18 12.9099L13 17.5099C12.9113 17.4598 12.8174 17.4195 12.72 17.3899V14.1099C13.0701 13.9888 13.3845 13.7825 13.6349 13.5094C13.8853 13.2364 14.0637 12.9053 14.154 12.546C14.2443 12.1867 14.2437 11.8106 14.1522 11.4516C14.0607 11.0927 13.8812 10.7621 13.63 10.4899L15.63 6.71994H15.96C16.4808 6.72785 16.9883 6.55563 17.3968 6.23241C17.8052 5.90919 18.0895 5.45481 18.2015 4.94613C18.3135 4.43746 18.2463 3.90571 18.0114 3.44084C17.7764 2.97598 17.3882 2.60652 16.9122 2.39498C16.4362 2.18344 15.9018 2.1428 15.3993 2.27993C14.8968 2.41706 14.4571 2.72354 14.1546 3.14753C13.8521 3.57153 13.7053 4.087 13.7391 4.60676C13.7729 5.12653 13.9851 5.61867 14.34 5.99994L12.34 9.76994H12.01H11.68L9.65996 5.99994C10.0014 5.61671 10.2008 5.12787 10.2249 4.6152C10.249 4.10254 10.0964 3.59714 9.79242 3.18356C9.48851 2.76999 9.0518 2.47331 8.55534 2.34318C8.05888 2.21304 7.53278 2.25734 7.06507 2.46865C6.59736 2.67997 6.2164 3.04548 5.98593 3.50405C5.75545 3.96263 5.68943 4.48644 5.79893 4.98785C5.90842 5.48927 6.18678 5.93788 6.58743 6.25863C6.98809 6.57938 7.48674 6.75282 7.99996 6.74994H8.32996L10.33 10.5199C10.0787 10.7921 9.89925 11.1227 9.80776 11.4816C9.71628 11.8406 9.71567 12.2167 9.80599 12.576C9.8963 12.9353 10.0747 13.2664 10.3251 13.5394C10.5754 13.8125 10.8899 14.0188 11.24 14.1399V17.4199C11.1425 17.4495 11.0486 17.4898 10.96 17.5399L6.05996 12.8999C6.25381 12.4557 6.29907 11.9609 6.18902 11.4889C6.07897 11.017 5.81948 10.5932 5.44918 10.2806C5.07887 9.96803 4.61754 9.78335 4.13382 9.75405C3.6501 9.72476 3.16985 9.85242 2.76452 10.118C2.3592 10.3836 2.05047 10.773 1.88427 11.2282C1.71807 11.6834 1.70328 12.1802 1.8421 12.6445C1.98093 13.1088 2.26595 13.5158 2.65475 13.8051C3.04355 14.0944 3.51536 14.2504 3.99996 14.2499ZM12 20.2499C11.8517 20.2499 11.7067 20.2059 11.5833 20.1235C11.46 20.0411 11.3638 19.924 11.3071 19.7869C11.2503 19.6499 11.2355 19.4991 11.2644 19.3536C11.2933 19.2081 11.3648 19.0745 11.4697 18.9696C11.5746 18.8647 11.7082 18.7932 11.8537 18.7643C11.9992 18.7354 12.15 18.7502 12.287 18.807C12.4241 18.8638 12.5412 18.9599 12.6236 19.0832C12.706 19.2066 12.75 19.3516 12.75 19.4999C12.7474 19.698 12.6676 19.8873 12.5275 20.0274C12.3874 20.1675 12.1981 20.2473 12 20.2499ZM20 11.2499C20.1989 11.2499 20.3897 11.3289 20.5303 11.4696C20.671 11.6102 20.75 11.801 20.75 11.9999C20.75 12.1988 20.671 12.3896 20.5303 12.5302C20.3897 12.6709 20.1989 12.7499 20 12.7499C19.9054 12.7501 19.8116 12.7317 19.7241 12.6957C19.6366 12.6596 19.557 12.6067 19.49 12.5399C19.3711 12.4079 19.3037 12.2375 19.3 12.0599C19.2862 11.8598 19.3521 11.6625 19.4832 11.5107C19.6143 11.359 19.8001 11.2653 20 11.2499ZM12 12.7499C11.8517 12.7499 11.7067 12.7059 11.5833 12.6235C11.46 12.5411 11.3638 12.424 11.3071 12.2869C11.2503 12.1499 11.2355 11.9991 11.2644 11.8536C11.2933 11.7081 11.3648 11.5745 11.4697 11.4696C11.5746 11.3647 11.7082 11.2932 11.8537 11.2643C11.9992 11.2354 12.15 11.2502 12.287 11.307C12.4241 11.3638 12.5412 11.4599 12.6236 11.5832C12.706 11.7066 12.75 11.8516 12.75 11.9999C12.7474 12.198 12.6676 12.3873 12.5275 12.5274C12.3874 12.6675 12.1981 12.7473 12 12.7499ZM16 3.74994C16.1483 3.74994 16.2933 3.79392 16.4167 3.87633C16.54 3.95875 16.6361 4.07588 16.6929 4.21292C16.7497 4.34997 16.7645 4.50077 16.7356 4.64625C16.7066 4.79174 16.6352 4.92538 16.5303 5.03027C16.4254 5.13516 16.2918 5.20659 16.1463 5.23553C16.0008 5.26446 15.85 5.24961 15.713 5.19285C15.5759 5.13608 15.4588 5.03995 15.3764 4.91661C15.294 4.79328 15.25 4.64827 15.25 4.49994C15.2526 4.30183 15.3324 4.11257 15.4725 3.97247C15.6126 3.83238 15.8019 3.75253 16 3.74994ZM7.24996 4.49994C7.24996 4.3516 7.29395 4.2066 7.37636 4.08326C7.45877 3.95992 7.57591 3.86379 7.71295 3.80703C7.84999 3.75026 8.00079 3.73541 8.14628 3.76435C8.29177 3.79329 8.4254 3.86472 8.53029 3.96961C8.63518 4.0745 8.70661 4.20813 8.73555 4.35362C8.76449 4.4991 8.74964 4.6499 8.69287 4.78695C8.63611 4.92399 8.53998 5.04113 8.41664 5.12354C8.2933 5.20595 8.1483 5.24994 7.99996 5.24994C7.80186 5.24735 7.61259 5.1675 7.4725 5.0274C7.3324 4.88731 7.25255 4.69804 7.24996 4.49994ZM3.99996 11.2499C4.19807 11.2525 4.38733 11.3323 4.52743 11.4724C4.66752 11.6125 4.74737 11.8018 4.74996 11.9999C4.7463 12.1775 4.67886 12.3479 4.55996 12.4799C4.49293 12.5467 4.41338 12.5996 4.32587 12.6357C4.23836 12.6717 4.1446 12.6901 4.04996 12.6899C3.85105 12.6899 3.66029 12.6109 3.51963 12.4702C3.37898 12.3296 3.29996 12.1388 3.29996 11.9399C3.29996 11.741 3.37898 11.5502 3.51963 11.4096C3.66029 11.2689 3.85105 11.1899 4.04996 11.1899L3.99996 11.2499Z" fill="#D3D8DA"/>
</svg>
