<svg width="48" height="60" viewBox="0 0 48 60" fill="none" xmlns="http://www.w3.org/2000/svg">
<path d="M5.584 3.6C7.792 3.6 9.16 4.728 9.16 6.588C9.16 8.436 7.792 9.576 5.584 9.576H3.688V12H2.128V3.6H5.584ZM5.512 8.256C6.88 8.256 7.588 7.644 7.588 6.588C7.588 5.532 6.88 4.92 5.512 4.92H3.688V8.256H5.512ZM9.304 27H7.624L5.908 24.54C5.8 24.552 5.692 24.552 5.584 24.552H3.688V27H2.128V18.6H5.584C7.792 18.6 9.16 19.728 9.16 21.588C9.16 22.86 8.512 23.796 7.372 24.24L9.304 27ZM7.588 21.588C7.588 20.532 6.88 19.92 5.512 19.92H3.688V23.268H5.512C6.88 23.268 7.588 22.644 7.588 21.588ZM3.688 40.692H8.428V42H2.128V33.6H8.26V34.908H3.688V37.092H7.744V38.376H3.688V40.692ZM8.248 48.6H9.808L6.148 57H4.612L0.94 48.6H2.632L5.428 55.08L8.248 48.6Z" fill="white"/>
<line x1="20.5" y1="20" x2="20.5" y2="40" stroke="white"/>
<path d="M37.1775 25.4475L32.625 30L37.1775 34.5525" stroke="white" stroke-width="1.5" stroke-miterlimit="10" stroke-linecap="round" stroke-linejoin="round"/>
<path d="M45.375 30H32.7525" stroke="white" stroke-width="1.5" stroke-miterlimit="10" stroke-linecap="round" stroke-linejoin="round"/>
</svg>
