<svg width="537" height="351" viewBox="0 0 537 351" fill="none" xmlns="http://www.w3.org/2000/svg">
<path d="M342.5 21.0001C345.7 29.4001 337.167 37.8334 332.5 41.0001V63H323H259.5V52.5V48.5H258C251.6 31.7 263.334 24.1667 270 22.5C271.2 7.69996 284.5 7.66669 291 9.50006C295 3.50011 298.5 1.00005 308 0.500055C315.6 0.100055 321.167 6.33339 323 9.50006C335.5 10.5001 338.5 10.5001 342.5 21.0001Z" fill="black"/>
<path d="M311.506 93.5H316H332.5V41H325.5V42.5H281V58H273C270.6 51.2 263.667 51.1667 260.5 52C256 52.5 254.5 58.5 255 65C255.219 67.8506 257.452 70.4307 260.001 72.4274C263.637 75.2752 268.382 76 273 76C276.702 80.7595 280.993 84.4637 285.034 87.2326C292.699 92.4844 302.214 93.5 311.506 93.5Z" fill="white" stroke="black" stroke-width="2"/>
<path d="M302 76.5H296.5V82H298.5V83.5H305.5V80H304V78H302V76.5Z" fill="black"/>
<path d="M262 58V64.5H264.5V66.5" stroke="black" stroke-width="2"/>
<path d="M297.5 61.5V59.25C297.5 56.6266 299.627 54.5 302.25 54.5V54.5C304.873 54.5 307 56.6266 307 59.25V61.5" stroke="black" stroke-width="2"/>
<path d="M467.001 344H125.501C91.0008 332.667 25.5008 299.6 39.5008 258C53.5008 216.4 79.6674 178.333 91.0008 164.5C98.1674 154.333 122.001 131.3 160.001 120.5C198.001 109.7 258.834 109 284.501 110C373.301 116.8 406.167 132.167 411.501 139L467.001 344Z" fill="#0043A7"/>
<path d="M288 123L290.5 342.5" stroke="white" stroke-width="3"/>
<path d="M258 115L274.5 128.5L288 116L302.5 128.5L316 115" stroke="white" stroke-width="3"/>
<path d="M284 170H273" stroke="white" stroke-width="3"/>
<path d="M295 170.5H305.5" stroke="white" stroke-width="3"/>
<path d="M283.5 230.5H274" stroke="white" stroke-width="3"/>
<path d="M294.5 230.5H305" stroke="white" stroke-width="3"/>
<path d="M283.5 291.5H274.5" stroke="white" stroke-width="3"/>
<path d="M294.5 291.5H306" stroke="white" stroke-width="3"/>
<path d="M152 312C149.5 316.333 143 329.1 137 345.5" stroke="black" stroke-width="2"/>
<path d="M44.5 249.5C34.1667 267.5 11.4 310.7 1 345.5" stroke="black" stroke-width="2"/>
<path d="M45 250L150.5 311.5L135.5 345.5H1.5C19.1 298.7 37.8333 262.333 45 250Z" fill="white"/>
<path d="M371.5 136.5L370.5 152" stroke="black"/>
<path d="M360.5 156.5C358.5 154.833 354.3 148.6 353.5 137" stroke="black"/>
<path d="M382.5 55V102C381.833 109.167 379.6 124.9 376 130.5" stroke="black"/>
<path d="M362.5 291.5V260C371 255 375.5 258.5 378 261V279.5C376.8 288.7 371.833 291.333 369.5 291.5H362.5Z" fill="#F9D712"/>
<path d="M357 154V178H372V145.5C364.4 142.3 358.5 149.833 357 154Z" fill="#F9D712"/>
<path d="M309 87.1266V88.9501C309 95.0012 309.337 101.118 311.238 106.863C319.136 130.741 338.265 138.939 347.748 140H361.43C366.392 140 371.481 139.934 376.039 137.972C392.703 130.8 398.963 109.181 400 98.0455V87.3664C400 80.7145 399.594 73.9832 397.283 67.7457C391.921 53.2783 382.375 44.5522 374.272 39.915C368.324 36.511 361.314 36 354.461 36C348.824 36 343.077 36.2455 337.896 38.4661C326.63 43.2944 318.846 52.8648 314.088 61.5566C309.847 69.305 309 78.2933 309 87.1266Z" fill="#F9D114"/>
<path d="M340.077 46.1138C330.644 50.102 324.023 57.8657 319.861 65.0863C315.779 72.1667 315 80.5055 315 88.6782C315 94.2786 315.3 99.9506 317.146 105.238C324.123 125.213 340.486 132.101 348.639 133H359.639C364.531 133 369.574 132.974 374.007 130.905C387.868 124.433 393.116 106.447 394 97.0966V89.5421C394 82.7965 393.632 75.935 391.062 69.6979C386.326 58.2013 378.43 51.1711 371.682 47.36C366.501 44.4338 360.416 44 354.466 44C349.572 44 344.584 44.2082 340.077 46.1138Z" fill="white" stroke="black" stroke-width="1.5"/>
<ellipse cx="349.137" cy="77.9352" rx="6.33191" ry="8" transform="rotate(25.2133 349.137 77.9352)" fill="black"/>
<path d="M377 325.5L385.5 345" stroke="black" stroke-width="2"/>
<path d="M430.5 325.5H377L385.5 345H430.5V325.5Z" fill="white"/>
<path d="M465.001 202.5L534.501 343.5L424.5 344L381 270L366 274H363C344.2 273.6 344.167 262.167 346.5 256.5C353.3 248.1 381 240 394 237C370.4 242.2 357.167 247.833 353.5 250C341.9 251.2 341.667 241.833 343.001 237C347.801 224.6 375.334 218.833 388.5 217.5C366.1 217.5 352.167 225.5 348 229.5C339.6 230.7 337.833 224 338 220.5C339.6 202.5 372.333 195.333 388.5 194C360.9 194.8 346.667 204 343.001 208.5C318.201 180.5 364.001 172.167 390.001 171.5H413.501C410.501 166.5 403.801 154.6 401.001 147C397.501 137.5 411.001 127 424.501 138C435.301 146.8 456.001 184.667 465.001 202.5Z" fill="white" stroke="black" stroke-width="1.5"/>
<path d="M425 351V334.5H516L529 339L535 344.5L536.5 351H425Z" fill="white"/>
<path d="M361 261C366.833 256.833 379.1 252.8 381.5 270L382 272L383.5 274.5" stroke="black" stroke-width="1.5"/>
</svg>
