<svg width="266" height="260" viewBox="0 0 266 260" fill="none" xmlns="http://www.w3.org/2000/svg">
<circle cx="150.846" cy="156.852" r="102.066" fill="white" stroke="#0043A7"/>
<path d="M122.989 6.16783C98.1704 20.3498 96.1866 41.6228 98.297 50.4865L100.83 55.5516L184.402 18.1972C174.272 8.27824 147.807 -8.01416 122.989 6.16783Z" fill="white" stroke="#0043A7"/>
<path d="M78.037 59.3502C35.9976 121.65 82.4689 149.043 110.96 154.952C132.275 156.218 183.009 152.673 215.425 128.361C247.841 104.049 259.744 81.9317 261.643 73.9121C277.851 20.2232 231.253 3.8463 205.928 2.36899C139.577 -1.1765 93.021 38.8792 78.037 59.3502Z" fill="white" stroke="#0043A7"/>
<path d="M92.5989 128.361C96.1866 132.582 108.934 141.023 131.22 146.088" stroke="#0043A7"/>
<path d="M144.515 40.3568C169.629 28.9605 224.542 15.285 243.283 51.753" stroke="#0043A7"/>
<path d="M213.526 205.602L236.951 211.3L235.052 214.466L231.253 219.531L226.821 224.596L220.49 230.927L214.792 236.625L208.461 241.057L200.863 245.489L195.165 248.655L187.568 252.453L181.236 254.353L174.272 256.252L167.941 257.518L162.243 258.785H154.645H148.314H143.882L133.752 257.518L123.622 255.619L113.492 251.82L103.362 247.388L94.4983 241.69L84.3683 234.726L78.6702 228.395L73.6052 223.33L68.5402 217.631L64.7414 211.933L64.1083 208.768C61.5758 171.287 98.5081 147.566 117.291 140.39C113.914 138.702 106.781 131.653 105.261 116.965C103.362 98.604 103.362 84.6753 119.19 71.3797C131.853 60.7432 148.525 53.4412 155.278 51.1198C166.463 46.0548 192.379 39.4703 206.561 53.6523C220.743 67.8343 220.912 85.7306 219.224 92.906C218.169 96.0716 216.691 104.555 219.224 113.166C221.756 121.776 221.967 134.903 221.756 140.39C220.237 157.105 210.993 167.193 206.561 170.147C213.652 180.277 214.159 189.985 213.526 193.573L210.36 203.703V205.602H213.526Z" fill="#0043A7"/>
<path d="M184.402 216.998C191.999 214.972 196.853 207.712 198.331 204.336L235.052 212.566C226.948 226.242 217.324 233.882 213.526 235.992C192.759 238.018 185.879 224.174 184.402 216.998Z" fill="#FBFAFA"/>
<path d="M141.983 204.969C152.619 219.151 173.428 219.742 182.503 218.265C178.957 232.953 162.454 240.002 154.645 241.69C124.762 245.236 114.758 226.284 113.492 216.365L141.983 204.969Z" fill="#FBFAFA"/>
<path d="M81.2027 230.294L111.593 217.631C112.648 225.862 120.836 242.703 145.148 244.223C169.46 245.742 181.025 228.817 183.769 220.164C186.808 234.346 202.763 238.313 210.36 238.524C191.366 252.453 168.574 260.684 136.285 257.518C110.453 254.986 88.8002 238.313 81.2027 230.294Z" fill="white"/>
<path d="M142.616 203.703L155.911 168.881C158.444 170.907 162.876 173.102 164.775 173.946C173.386 184.582 188.201 192.306 194.532 194.839L196.431 203.703C194.743 208.135 187.568 216.998 172.373 216.998C157.178 216.998 146.203 208.135 142.616 203.703Z" fill="white"/>
<path d="M169.84 84.0422C146.541 93.1592 138.606 113.166 137.551 122.03C134.385 115.065 128.687 110 121.723 108.734C116.586 107.8 101.463 115.065 111.593 130.893C119.697 143.556 131.008 146.299 135.651 146.088C141.223 153.686 149.369 161.072 152.746 163.816C161.398 170.78 183.262 181.923 201.496 170.78C224.289 156.852 220.49 132.16 217.324 116.332C214.792 103.669 216.691 94.5943 217.958 91.6397C208.334 90.6267 194.532 78.5552 188.201 72.646C185.162 75.685 174.694 81.5097 169.84 84.0422Z" fill="white"/>
<ellipse cx="205.928" cy="117.598" rx="5.69812" ry="7.59749" fill="#0043A7"/>
<path d="M202.129 105.569C206.139 104.724 215.425 103.796 220.49 106.835" stroke="#0043A7" stroke-width="2" stroke-linecap="round"/>
<path d="M225.555 127.728L220.49 138.491" stroke="#F99617"/>
<path d="M219.224 128.361L214.159 137.858" stroke="#F99617"/>
<path d="M212.893 128.361L207.828 137.858" stroke="#F99617"/>
<path d="M171.739 130.893L167.308 140.39" stroke="#F99617"/>
<path d="M165.408 130.893L161.609 140.39" stroke="#F99617"/>
<path d="M159.077 131.527L155.278 140.39" stroke="#F99617"/>
<path d="M179.337 146.721C179.337 147.355 179.717 148.621 181.236 148.621C182.756 148.621 193.688 148.621 198.964 148.621C199.386 148.621 200.23 148.241 200.23 146.721" stroke="#0043A7"/>
<path d="M190.733 119.497C190.733 120.341 191.113 122.536 192.633 124.562C194.152 126.588 196.642 130.471 197.698 132.16C198.753 133.426 199.597 136.972 194.532 141.024" stroke="#0043A7"/>
<ellipse cx="174.905" cy="119.497" rx="5.065" ry="8.23062" fill="#0043A7"/>
<path d="M178.071 106.202C173.85 105.991 164.269 106.835 159.71 111.9" stroke="#0043A7" stroke-width="2" stroke-linecap="round"/>
<path d="M134.385 135.958C132.988 131.651 130.089 125.623 126.155 122.529M114.758 123.296C119.074 119.435 122.956 120.012 126.155 122.529M126.155 122.529C123.833 122.362 119.443 123.802 120.456 130.893" stroke="#0043A7"/>
<path d="M77.404 98.7528L82.469 112.682H68.5402C60.3441 120.786 49.5081 123.234 45.1146 123.445C34.9846 124.5 12.572 121.039 3.96153 98.7528C-4.64896 76.4669 7.54924 59.4991 14.7246 53.8009C33.9716 38.0995 53.9784 44.7262 61.5759 50.0022C84.8748 64.6907 81.8358 88.6228 77.404 98.7528Z" fill="white" stroke="#0043A7"/>
<path d="M37.0836 88.8501C37.0836 81.8501 44.8836 80.3001 44.8836 75.9501C44.8836 73.5001 42.7336 71.9501 39.4836 71.9501C36.2836 71.9501 33.8336 73.3501 32.2336 75.6501L26.1836 72.1001C28.8836 68.0001 33.5836 65.4001 40.3336 65.4001C47.8336 65.4001 53.0336 68.7501 53.0336 74.6501C53.0336 82.6501 44.6336 83.5501 44.6336 88.8501H37.0836ZM40.8836 101.4C38.0836 101.4 36.0836 99.3501 36.0836 96.8501C36.0836 94.3001 38.0836 92.4001 40.8836 92.4001C43.6836 92.4001 45.6836 94.3001 45.6836 96.8501C45.6836 99.3501 43.6836 101.4 40.8836 101.4Z" fill="#0043A7"/>
</svg>
