<svg width="24" height="24" viewBox="0 0 24 24" fill="none" xmlns="http://www.w3.org/2000/svg">
<path d="M17.2501 6.41007C17.2382 5.2829 16.779 4.20664 15.9735 3.41805C15.168 2.62946 14.0823 2.19314 12.9551 2.20507C11.828 2.21701 10.7517 2.67622 9.96307 3.48169C9.17447 4.28716 8.73815 5.3729 8.75009 6.50007V7.00007L7.86009 6.27007C7.94683 6.02578 7.99409 5.76923 8.00009 5.51007C8.00009 5.06506 7.86813 4.63005 7.6209 4.26004C7.37366 3.89003 7.02226 3.60164 6.61113 3.43134C6.19999 3.26105 5.74759 3.21649 5.31114 3.3033C4.87468 3.39012 4.47377 3.60441 4.1591 3.91908C3.84443 4.23375 3.63014 4.63466 3.54332 5.07112C3.45651 5.50758 3.50106 5.95998 3.67136 6.37111C3.84166 6.78224 4.13005 7.13364 4.50006 7.38088C4.87007 7.62811 5.30508 7.76007 5.75009 7.76007C6.15692 7.76109 6.5557 7.64666 6.90009 7.43007L8.69009 8.91007H8.75009V11.2201H6.61009C6.43317 10.7197 6.08504 10.2979 5.62723 10.0294C5.16942 9.76079 4.63141 9.66272 4.10829 9.75247C3.58517 9.84223 3.11062 10.1141 2.76851 10.5199C2.4264 10.9257 2.23877 11.4393 2.23877 11.9701C2.23877 12.5009 2.4264 13.0146 2.76851 13.4204C3.11062 13.8262 3.58517 14.098 4.10829 14.1877C4.63141 14.2775 5.16942 14.1794 5.62723 13.9108C6.08504 13.6423 6.43317 13.2205 6.61009 12.7201H8.75009V15.0001C8.69009 15.0001 8.62009 15.0801 8.57009 15.1301L6.78009 16.5801C6.43525 16.3645 6.03677 16.2502 5.63009 16.2501C5.18508 16.2501 4.75007 16.3821 4.38006 16.6293C4.01005 16.8765 3.72166 17.2279 3.55136 17.6391C3.38106 18.0502 3.33651 18.5026 3.42332 18.9391C3.51014 19.3755 3.72443 19.7764 4.0391 20.0911C4.35377 20.4058 4.75468 20.6201 5.19114 20.7069C5.62759 20.7937 6.07999 20.7491 6.49113 20.5788C6.90226 20.4085 7.25366 20.1202 7.5009 19.7501C7.74813 19.3801 7.88009 18.9451 7.88009 18.5001C7.87674 18.2398 7.82591 17.9822 7.73009 17.7401L8.73009 16.9001V17.5001C8.71815 18.6273 9.15447 19.713 9.94306 20.5185C10.7317 21.324 11.808 21.7832 12.9351 21.7951C14.0623 21.807 15.148 21.3707 15.9535 20.5821C16.759 19.7935 17.2182 18.7173 17.2301 17.5901C18.5068 17.3132 19.6503 16.6075 20.4703 15.5906C21.2904 14.5736 21.7376 13.3065 21.7376 12.0001C21.7376 10.6937 21.2904 9.42661 20.4703 8.40963C19.6503 7.39265 18.5068 6.68701 17.2301 6.41007H17.2501ZM5.00009 5.51007C5.00009 5.36174 5.04408 5.21673 5.12649 5.09339C5.2089 4.97006 5.32603 4.87393 5.46308 4.81716C5.60012 4.7604 5.75092 4.74554 5.89641 4.77448C6.04189 4.80342 6.17553 4.87485 6.28042 4.97974C6.38531 5.08463 6.45674 5.21827 6.48568 5.36375C6.51462 5.50924 6.49976 5.66004 6.443 5.79708C6.38623 5.93413 6.2901 6.05126 6.16677 6.13367C6.04343 6.21608 5.89842 6.26007 5.75009 6.26007C5.55198 6.25748 5.36272 6.17763 5.22262 6.03754C5.08253 5.89744 5.00268 5.70818 5.00009 5.51007ZM4.50009 12.7601C4.35218 12.7601 4.20758 12.7164 4.08447 12.6344C3.96136 12.5524 3.86523 12.4358 3.80819 12.2994C3.75114 12.1629 3.73571 12.0126 3.76385 11.8674C3.79199 11.7222 3.86243 11.5886 3.96632 11.4833C4.07022 11.378 4.20292 11.3058 4.34774 11.2758C4.49256 11.2457 4.64303 11.2591 4.78024 11.3144C4.91745 11.3696 5.03526 11.4642 5.11886 11.5862C5.20246 11.7082 5.24812 11.8522 5.25009 12.0001C5.25011 12.2 5.17141 12.3918 5.03104 12.534C4.89066 12.6763 4.69992 12.7575 4.50009 12.7601ZM5.63009 19.2501C5.48175 19.2501 5.33675 19.2061 5.21341 19.1237C5.09007 19.0413 4.99395 18.9242 4.93718 18.7871C4.88041 18.6501 4.86556 18.4993 4.8945 18.3538C4.92344 18.2083 4.99487 18.0747 5.09976 17.9698C5.20465 17.8649 5.33829 17.7935 5.48377 17.7645C5.62926 17.7356 5.78006 17.7504 5.9171 17.8072C6.05415 17.864 6.17128 17.9601 6.25369 18.0834C6.3361 18.2068 6.38009 18.3518 6.38009 18.5001C6.38009 18.699 6.30107 18.8898 6.16042 19.0304C6.01977 19.1711 5.829 19.2501 5.63009 19.2501ZM16.3801 16.2501C16.2787 16.258 16.1801 16.287 16.0905 16.3352C16.001 16.3834 15.9225 16.4498 15.8601 16.5301C15.7954 16.6108 15.7478 16.7039 15.7203 16.8036C15.6928 16.9033 15.6859 17.0076 15.7001 17.1101C15.7323 17.2512 15.7491 17.3954 15.7501 17.5401C15.7501 18.2695 15.4604 18.9689 14.9447 19.4847C14.4289 20.0004 13.7295 20.2901 13.0001 20.2901C12.2708 20.2901 11.5713 20.0004 11.0556 19.4847C10.5399 18.9689 10.2501 18.2695 10.2501 17.5401V6.50007C10.2501 5.77073 10.5399 5.07125 11.0556 4.55553C11.5713 4.0398 12.2708 3.75007 13.0001 3.75007C13.7295 3.75007 14.4289 4.0398 14.9447 4.55553C15.4604 5.07125 15.7501 5.77073 15.7501 6.50007C15.7491 6.64479 15.7323 6.78897 15.7001 6.93007C15.6859 7.03255 15.6928 7.13685 15.7203 7.23658C15.7478 7.33631 15.7954 7.42938 15.8601 7.51007C15.9225 7.59039 16.001 7.65679 16.0905 7.70501C16.1801 7.75322 16.2787 7.7822 16.3801 7.79007C17.4465 7.86362 18.4453 8.33913 19.1747 9.12056C19.9041 9.902 20.3098 10.9312 20.3098 12.0001C20.3098 13.0691 19.9041 14.0982 19.1747 14.8796C18.4453 15.6611 17.4465 16.1366 16.3801 16.2101V16.2501Z" fill="#D3D8DA"/>
</svg>
