<svg width="98" height="87" viewBox="0 0 98 87" fill="none" xmlns="http://www.w3.org/2000/svg">
<path d="M30.4369 66.937C32.7047 72.9314 20.0426 81.2986 13.4281 84.7328C31.9485 91.8512 46.0284 80.518 50.7533 73.9617L70.1244 75.8349C73.4317 76.7715 81.7471 76.7715 88.5507 69.2785C93.1927 64.166 95.7526 50.7689 97.0106 39.0536C97.9982 29.8572 95.2051 20.3673 87.834 14.7801C62.1838 -4.6622 22.5023 -1.13188 13.4281 4.18302C3.03381 10.2711 -3.10826 36.9649 1.61641 48.6727C5.39615 58.039 22.405 64.7515 30.4369 66.937Z" fill="#0066FF"/>
<path d="M29.5878 40.2771C28.3798 39.9637 27.2685 39.4687 26.2538 38.7922C25.2587 38.1043 24.5395 37.3722 24.0963 36.596L25.1135 35.4466C25.5419 36.1528 26.186 36.8241 27.0457 37.4604C27.925 38.0853 28.8989 38.5363 29.9675 38.8136C30.9897 39.0788 31.8504 39.1699 32.5496 39.0869C33.2684 38.9923 33.8312 38.7664 34.238 38.4092C34.6602 38.0559 34.9396 37.616 35.0763 37.0894C35.241 36.4544 35.1878 35.8951 34.9166 35.4115C34.6608 34.9319 34.2668 34.5073 33.7345 34.1378C33.2063 33.7528 32.6081 33.3827 31.9399 33.0275C31.2717 32.6723 30.6055 32.3094 29.9413 31.9387C29.2811 31.5525 28.6912 31.1184 28.1716 30.6365C27.6675 30.1586 27.2979 29.6081 27.0628 28.9851C26.8472 28.3506 26.852 27.5997 27.077 26.7324C27.286 25.9271 27.6859 25.2457 28.2769 24.6883C28.8873 24.1193 29.6862 23.7481 30.6734 23.5745C31.6647 23.3853 32.8495 23.4696 34.2278 23.8272C35.1416 24.0643 36.0134 24.431 36.8434 24.9274C37.6773 25.4082 38.3613 25.9576 38.8952 26.5755L37.9588 27.7955C37.3824 27.15 36.7275 26.6164 35.9939 26.1947C35.2758 25.7769 34.5528 25.4736 33.8249 25.2848C32.8492 25.0316 32.0097 24.9543 31.3064 25.0528C30.6031 25.1513 30.0383 25.385 29.6121 25.7537C29.2053 26.111 28.9296 26.5685 28.7849 27.126C28.6202 27.761 28.6657 28.3183 28.9214 28.7979C29.1926 29.2815 29.5944 29.708 30.1266 30.0776C30.6744 30.4511 31.2824 30.8155 31.9506 31.1707C32.6188 31.5259 33.2752 31.8946 33.9199 32.2767C34.5801 32.6629 35.1622 33.095 35.6663 33.5729C36.19 34.0393 36.5616 34.5821 36.7812 35.201C37.0162 35.8241 37.0233 36.5615 36.8023 37.4132C36.5973 38.2031 36.1896 38.8825 35.5792 39.4514C34.9727 40.0048 34.1662 40.3741 33.1594 40.5592C32.1722 40.7328 30.9816 40.6388 29.5878 40.2771ZM47.1918 44.696L47.891 42.0012L47.9359 41.5417L49.1052 37.035C49.3744 35.9973 49.2871 35.1234 48.8433 34.4132C48.4149 33.7069 47.6277 33.2052 46.4816 32.9078C45.6918 32.7029 44.9065 32.6396 44.1258 32.718C43.3451 32.7965 42.6507 32.9882 42.0426 33.2933L41.6186 31.8692C42.3747 31.5033 43.2226 31.2936 44.1622 31.2398C45.1058 31.1706 46.0578 31.2605 47.018 31.5097C48.5977 31.9196 49.7109 32.6299 50.3578 33.6408C51.0242 34.6402 51.1504 35.9374 50.7365 37.5326L48.7715 45.1059L47.1918 44.696ZM42.9569 43.7212C42.0432 43.4841 41.2838 43.13 40.6787 42.6589C40.0931 42.1764 39.6905 41.6256 39.4709 41.0067C39.2554 40.3722 39.238 39.7065 39.4188 39.0096C39.5836 38.3746 39.8794 37.8397 40.3063 37.405C40.7526 36.9588 41.3567 36.6692 42.1185 36.5363C42.8998 36.3919 43.8712 36.4704 45.0328 36.7718L49.2376 37.8627L48.9181 39.094L44.7598 38.0151C43.5828 37.7097 42.7077 37.7058 42.1346 38.0034C41.577 38.305 41.2178 38.7655 41.057 39.385C40.8762 40.0819 41.0026 40.7098 41.4361 41.2686C41.8697 41.8274 42.5743 42.2334 43.55 42.4865C44.4792 42.7276 45.3311 42.7255 46.1055 42.4801C46.8995 42.2233 47.5558 41.7324 48.0745 41.0074L48.1508 42.2422C47.6321 42.9672 46.9233 43.4692 46.0244 43.7484C45.141 44.0316 44.1185 44.0225 42.9569 43.7212ZM53.9948 46.4611L57.5571 32.7317C57.8384 31.6476 58.3829 30.855 59.1907 30.3538C59.9984 29.8526 60.9986 29.7567 62.1911 30.0661C62.6557 30.1867 63.0888 30.3651 63.4903 30.6015C63.8917 30.838 64.2055 31.126 64.4314 31.4656L63.5544 32.5522C63.3743 32.2906 63.1415 32.0731 62.8559 31.8998C62.5742 31.7111 62.2553 31.5705 61.8991 31.478C61.2022 31.2972 60.6177 31.3522 60.1455 31.6429C59.6734 31.9336 59.3388 32.4584 59.1419 33.2173L58.6597 35.0758L58.5073 35.8544L55.6442 46.8891L53.9948 46.4611ZM54.62 35.069L54.9756 33.6984L62.5256 35.6573L62.17 37.0279L54.62 35.069ZM66.999 49.9592C65.729 49.6297 64.6823 49.0771 63.8587 48.3014C63.0391 47.5102 62.4789 46.5797 62.1779 45.5098C61.881 44.4244 61.8892 43.2777 62.2027 42.0697C62.5161 40.8617 63.0489 39.8594 63.8011 39.0628C64.5687 38.2702 65.47 37.7271 66.5049 37.4336C67.5593 37.1287 68.6518 37.1229 69.7823 37.4162C70.9284 37.7136 71.8745 38.24 72.6206 38.9956C73.3863 39.7398 73.9021 40.6505 74.168 41.7278C74.438 42.7897 74.4143 43.9323 74.0968 45.1558C74.0767 45.2333 74.0469 45.3164 74.0073 45.4053C73.9872 45.4828 73.9651 45.568 73.941 45.6609L63.3245 42.9063L63.644 41.6751L73.3777 44.2006L72.6006 44.5197C72.8297 43.6369 72.839 42.8046 72.6286 42.0227C72.4378 41.2293 72.0673 40.5547 71.5173 39.9987C70.9673 39.4428 70.2664 39.0543 69.4146 38.8333C68.5783 38.6163 67.777 38.615 67.0106 38.8294C66.2442 39.0438 65.5847 39.4512 65.0322 40.0517C64.4797 40.6522 64.0869 41.4015 63.8538 42.2998L63.7875 42.5553C63.5464 43.4846 63.5348 44.3576 63.7526 45.1745C63.9899 45.9799 64.4203 46.6784 65.0437 47.2699C65.6866 47.85 66.4804 48.2626 67.4252 48.5077C68.1685 48.7006 68.8919 48.7478 69.5952 48.6492C70.3139 48.5547 70.976 48.2967 71.5812 47.8752L72.2332 49.1849C71.5224 49.6947 70.7123 50.0135 69.8031 50.1413C68.9094 50.273 67.9747 50.2123 66.999 49.9592Z" fill="white"/>
</svg>
