<svg width="24" height="24" viewBox="0 0 24 24" fill="none" xmlns="http://www.w3.org/2000/svg">
<path d="M19 1.75H5C4.27065 1.75 3.57118 2.03973 3.05546 2.55546C2.53973 3.07118 2.25 3.77065 2.25 4.5V8.5C2.25 9.22935 2.53973 9.92882 3.05546 10.4445C3.57118 10.9603 4.27065 11.25 5 11.25H19C19.7293 11.25 20.4288 10.9603 20.9445 10.4445C21.4603 9.92882 21.75 9.22935 21.75 8.5V4.5C21.75 3.77065 21.4603 3.07118 20.9445 2.55546C20.4288 2.03973 19.7293 1.75 19 1.75ZM20.25 8.5C20.25 8.83152 20.1183 9.14946 19.8839 9.38388C19.6495 9.6183 19.3315 9.75 19 9.75H5C4.66848 9.75 4.35054 9.6183 4.11612 9.38388C3.8817 9.14946 3.75 8.83152 3.75 8.5V4.5C3.75 4.16848 3.8817 3.85054 4.11612 3.61612C4.35054 3.3817 4.66848 3.25 5 3.25H19C19.3315 3.25 19.6495 3.3817 19.8839 3.61612C20.1183 3.85054 20.25 4.16848 20.25 4.5V8.5Z" fill="#D3D8DA"/>
<path d="M16.49 4.25C16.045 4.25 15.61 4.38196 15.24 4.62919C14.8699 4.87643 14.5816 5.22783 14.4113 5.63896C14.241 6.0501 14.1964 6.5025 14.2832 6.93895C14.37 7.37541 14.5843 7.77632 14.899 8.09099C15.2137 8.40566 15.6146 8.61995 16.051 8.70677C16.4875 8.79358 16.9399 8.74903 17.351 8.57873C17.7622 8.40843 18.1136 8.12004 18.3608 7.75003C18.608 7.38002 18.74 6.94501 18.74 6.5C18.74 5.90326 18.5029 5.33097 18.081 4.90901C17.659 4.48705 17.0867 4.25 16.49 4.25ZM16.49 7.25C16.3417 7.25 16.1967 7.20601 16.0733 7.1236C15.95 7.04119 15.8538 6.92406 15.7971 6.78701C15.7403 6.64997 15.7255 6.49917 15.7544 6.35368C15.7833 6.2082 15.8548 6.07456 15.9597 5.96967C16.0646 5.86478 16.1982 5.79335 16.3437 5.76441C16.4892 5.73547 16.64 5.75032 16.777 5.80709C16.914 5.86386 17.0312 5.95999 17.1136 6.08332C17.196 6.20666 17.24 6.35166 17.24 6.5C17.2374 6.69811 17.1576 6.88737 17.0175 7.02747C16.8774 7.16756 16.6881 7.24741 16.49 7.25Z" fill="#D3D8DA"/>
<path d="M10.49 4.25C10.045 4.25 9.60997 4.38196 9.23996 4.62919C8.86995 4.87643 8.58156 5.22783 8.41126 5.63896C8.24097 6.0501 8.19641 6.5025 8.28322 6.93895C8.37004 7.37541 8.58433 7.77632 8.899 8.09099C9.21367 8.40566 9.61458 8.61995 10.051 8.70677C10.4875 8.79358 10.9399 8.74903 11.351 8.57873C11.7622 8.40843 12.1136 8.12004 12.3608 7.75003C12.608 7.38002 12.74 6.94501 12.74 6.5C12.74 5.90326 12.5029 5.33097 12.081 4.90901C11.659 4.48705 11.0867 4.25 10.49 4.25ZM10.49 7.25C10.3417 7.25 10.1967 7.20601 10.0733 7.1236C9.94998 7.04119 9.85385 6.92406 9.79708 6.78701C9.74032 6.64997 9.72546 6.49917 9.7544 6.35368C9.78334 6.2082 9.85477 6.07456 9.95966 5.96967C10.0646 5.86478 10.1982 5.79335 10.3437 5.76441C10.4892 5.73547 10.64 5.75032 10.777 5.80709C10.914 5.86386 11.0312 5.95999 11.1136 6.08332C11.196 6.20666 11.24 6.35166 11.24 6.5C11.2374 6.69811 11.1576 6.88737 11.0175 7.02747C10.8774 7.16756 10.6881 7.24741 10.49 7.25Z" fill="#D3D8DA"/>
<path d="M19 12.75H5C4.27065 12.75 3.57118 13.0397 3.05546 13.5555C2.53973 14.0712 2.25 14.7707 2.25 15.5V19.5C2.25 19.8611 2.32113 20.2187 2.45933 20.5524C2.59753 20.886 2.8001 21.1892 3.05546 21.4445C3.31082 21.6999 3.61398 21.9025 3.94762 22.0407C4.28127 22.1789 4.63886 22.25 5 22.25H19C19.3611 22.25 19.7187 22.1789 20.0524 22.0407C20.386 21.9025 20.6892 21.6999 20.9445 21.4445C21.1999 21.1892 21.4025 20.886 21.5407 20.5524C21.6789 20.2187 21.75 19.8611 21.75 19.5V15.5C21.75 14.7707 21.4603 14.0712 20.9445 13.5555C20.4288 13.0397 19.7293 12.75 19 12.75ZM20.25 19.5C20.25 19.8315 20.1183 20.1495 19.8839 20.3839C19.6495 20.6183 19.3315 20.75 19 20.75H5C4.66848 20.75 4.35054 20.6183 4.11612 20.3839C3.8817 20.1495 3.75 19.8315 3.75 19.5V15.5C3.75 15.1685 3.8817 14.8505 4.11612 14.6161C4.35054 14.3817 4.66848 14.25 5 14.25H19C19.3315 14.25 19.6495 14.3817 19.8839 14.6161C20.1183 14.8505 20.25 15.1685 20.25 15.5V19.5Z" fill="#D3D8DA"/>
<path d="M16.49 15.25C16.045 15.25 15.61 15.382 15.24 15.6292C14.8699 15.8764 14.5816 16.2278 14.4113 16.639C14.241 17.0501 14.1964 17.5025 14.2832 17.939C14.37 18.3754 14.5843 18.7763 14.899 19.091C15.2137 19.4057 15.6146 19.6199 16.051 19.7068C16.4875 19.7936 16.9399 19.749 17.351 19.5787C17.7622 19.4084 18.1136 19.12 18.3608 18.75C18.608 18.38 18.74 17.945 18.74 17.5C18.74 16.9033 18.5029 16.331 18.081 15.909C17.659 15.4871 17.0867 15.25 16.49 15.25ZM16.49 18.25C16.3417 18.25 16.1967 18.206 16.0733 18.1236C15.95 18.0412 15.8538 17.9241 15.7971 17.787C15.7403 17.65 15.7255 17.4992 15.7544 17.3537C15.7833 17.2082 15.8548 17.0746 15.9597 16.9697C16.0646 16.8648 16.1982 16.7934 16.3437 16.7644C16.4892 16.7355 16.64 16.7503 16.777 16.8071C16.914 16.8639 17.0312 16.96 17.1136 17.0833C17.196 17.2067 17.24 17.3517 17.24 17.5C17.2374 17.6981 17.1576 17.8874 17.0175 18.0275C16.8774 18.1676 16.6881 18.2474 16.49 18.25Z" fill="#D3D8DA"/>
<path d="M10.49 15.25C10.045 15.25 9.60997 15.382 9.23996 15.6292C8.86995 15.8764 8.58156 16.2278 8.41126 16.639C8.24097 17.0501 8.19641 17.5025 8.28322 17.939C8.37004 18.3754 8.58433 18.7763 8.899 19.091C9.21367 19.4057 9.61458 19.6199 10.051 19.7068C10.4875 19.7936 10.9399 19.749 11.351 19.5787C11.7622 19.4084 12.1136 19.12 12.3608 18.75C12.608 18.38 12.74 17.945 12.74 17.5C12.74 16.9033 12.5029 16.331 12.081 15.909C11.659 15.4871 11.0867 15.25 10.49 15.25ZM10.49 18.25C10.3417 18.25 10.1967 18.206 10.0733 18.1236C9.94998 18.0412 9.85385 17.9241 9.79708 17.787C9.74032 17.65 9.72546 17.4992 9.7544 17.3537C9.78334 17.2082 9.85477 17.0746 9.95966 16.9697C10.0646 16.8648 10.1982 16.7934 10.3437 16.7644C10.4892 16.7355 10.64 16.7503 10.777 16.8071C10.914 16.8639 11.0312 16.96 11.1136 17.0833C11.196 17.2067 11.24 17.3517 11.24 17.5C11.2374 17.6981 11.1576 17.8874 11.0175 18.0275C10.8774 18.1676 10.6881 18.2474 10.49 18.25Z" fill="#D3D8DA"/>
</svg>
