<svg width="255" height="259" viewBox="0 0 255 259" fill="none" xmlns="http://www.w3.org/2000/svg">
<circle cx="103.226" cy="156.17" r="102.066" fill="white" stroke="#0043A7"/>
<path d="M72.2031 197.956L27.2512 223.281L32.3162 228.98L38.0144 234.045L47.5112 241.009L55.1087 245.441L63.9725 249.24L74.1025 253.671L82.9662 255.571L91.8299 256.837L101.96 257.47H111.457L122.22 255.571L130.451 253.671L138.681 251.139L148.178 247.34L157.042 242.275L167.805 234.678L177.935 225.181L184.266 218.217L130.451 193.525L120.321 159.336C124.373 156.297 129.606 148.362 131.717 144.774C151.47 143.255 159.785 132.745 161.474 127.68C168.86 125.358 183.76 116.917 184.266 101.722C184.773 86.5266 174.347 77.6629 169.071 75.1304C172.617 65.5069 173.081 53.3931 172.87 48.5392C172.448 40.5196 166.792 22.0745 147.545 12.4509C128.298 2.82732 109.979 8.44109 103.226 12.4509C99.4274 6.96385 87.7779 -2.9973 71.57 1.05469C55.362 5.10669 50.0437 19.6263 49.4106 26.3797C27.6311 29.4187 27.6733 47.4838 30.4169 56.1365C19.7804 64.747 19.6538 79.5621 20.92 85.8934C27.5045 105.14 40.9689 108.686 46.8781 108.053C47.5112 110.796 48.3976 117.676 46.8781 123.248C45.3586 128.819 45.8229 139.076 46.245 143.508C50.8035 163.261 67.1381 171.154 74.7356 172.631L72.2031 197.956Z" fill="#0043A7"/>
<path d="M28.5175 223.915L72.8362 199.856L88.0312 216.317L129.817 194.158L181.734 219.483C173.63 230.119 159.363 240.376 153.243 244.175C131.464 257.85 100.694 257.47 88.0312 255.571C59.1607 252.532 36.326 233.2 28.5175 223.915Z" fill="#FBFAFA"/>
<path d="M112.723 215.684L141.847 199.856" stroke="#0043A7"/>
<path d="M107.658 218.216L85.4987 230.246L63.9724 204.288" stroke="#0043A7"/>
<path d="M74.1024 199.223L76.6349 172.632C96.3884 185.294 117.366 184.239 125.386 182.128L128.551 193.525L88.0312 215.051L74.1024 199.223Z" fill="white"/>
<path d="M130.451 117.55L127.918 118.183C130.451 112.611 134.038 109.741 135.516 109.319L136.149 107.42C120.447 104.887 111.879 92.8577 109.557 87.1596C93.856 88.6791 82.7552 80.6173 79.1675 76.3965H77.9012C66.2517 83.994 54.4756 82.0946 50.0438 80.1952C47.0048 85.2602 47.5113 101.299 48.1444 108.686C48.5243 113.118 48.7775 122.615 47.5113 126.413C46.3787 129.811 47.3002 137.176 47.5113 140.342C48.5243 145.914 49.868 150.533 51.31 153.005C55.7419 160.602 69.7972 175.797 93.0962 170.732C116.395 165.667 127.707 150.05 130.451 142.875C146.152 142.368 155.564 134.644 158.308 130.845C164.893 117.676 158.519 109.741 154.509 107.42C142.86 101.848 133.616 111.851 130.451 117.55Z" fill="white"/>
<path d="M69.6706 140.975C73.0473 143.719 83.0928 146.927 96.2618 137.81" stroke="#0043A7" stroke-linecap="round"/>
<path d="M79.1675 113.118L75.0362 128.462C74.8502 129.153 75.0474 129.891 75.5532 130.397L79.1675 134.011" stroke="#0043A7" stroke-linecap="round"/>
<path d="M134.882 130.845C135.722 126.479 139.074 118.718 146.279 115.985M152.61 115.017C150.231 114.914 148.128 115.284 146.279 115.985M146.279 115.985C148.178 117.351 150.837 121.222 146.279 125.78" stroke="#0043A7" stroke-linecap="round"/>
<ellipse cx="63.9725" cy="115.017" rx="5.065" ry="6.96437" fill="#0043A7"/>
<path d="M72.8362 100.455C68.1933 97.5006 56.375 94.1239 46.245 104.254" stroke="#0043A7" stroke-width="2" stroke-linecap="round"/>
<ellipse cx="95.6287" cy="115.65" rx="5.065" ry="7.59749" fill="#0043A7"/>
<path d="M88.0312 97.2895C92.4631 94.757 103.733 91.8446 113.356 100.455" stroke="#0043A7" stroke-width="2" stroke-linecap="round"/>
<path d="M74.5424 113.118C74.6109 111.95 74.4701 110.871 74.1025 109.952C71.57 103.621 62.0731 103.621 51.9431 104.254C43.8391 104.761 42.2352 108.264 42.4462 109.952C41.4332 121.095 50.4658 126.835 55.1087 128.313C66.4744 129.936 74.1388 119.994 74.5424 113.118ZM74.5424 113.118H82.9662M82.9662 113.118C82.7552 111.64 84.6123 107.04 88.6643 105.52C95.8397 103.832 111.077 102.481 114.622 110.585M82.9662 113.118C86.5117 129.326 97.5281 130.423 102.593 128.946C114.243 124.387 115.467 114.806 114.622 110.585M114.622 110.585L140.581 106.787" stroke="#0043A7" stroke-linecap="round"/>
<path d="M177.935 165.338L172.87 179.267H186.799C194.995 187.371 205.831 189.819 210.224 190.03C220.354 191.085 242.767 187.624 251.377 165.338C259.988 143.052 247.79 126.084 240.614 120.386C221.367 104.685 201.36 111.311 193.763 116.587C170.464 131.276 173.503 155.208 177.935 165.338Z" fill="white" stroke="#0043A7"/>
<path d="M201.252 156.4C198.552 156.4 196.402 154.35 196.402 151.5C196.402 148.6 198.552 146.7 201.252 146.7C203.952 146.7 206.102 148.6 206.102 151.5C206.102 154.35 203.952 156.4 201.252 156.4ZM214.338 156.4C211.638 156.4 209.488 154.35 209.488 151.5C209.488 148.6 211.638 146.7 214.338 146.7C217.038 146.7 219.188 148.6 219.188 151.5C219.188 154.35 217.038 156.4 214.338 156.4ZM227.424 156.4C224.724 156.4 222.574 154.35 222.574 151.5C222.574 148.6 224.724 146.7 227.424 146.7C230.124 146.7 232.274 148.6 232.274 151.5C232.274 154.35 230.124 156.4 227.424 156.4Z" fill="#0043A7"/>
</svg>
