<svg width="320" height="474" viewBox="0 0 320 474" fill="none" xmlns="http://www.w3.org/2000/svg">
<g opacity="0.1">
<path d="M114.518 352.528C34.4688 345.667 20.8096 430.354 23.9861 473.555C-33.9543 348.526 27.1627 294.397 64.9638 282.962V241.031C62.1049 221.972 109.753 199.101 205.05 203.866C281.287 207.677 295.264 228.96 292.723 239.125V279.15C327.029 298.209 320.994 336.01 313.688 352.528C303.205 387.788 220.297 383.976 186.943 369.682C159.651 357.985 127.859 352.211 114.518 352.528Z" fill="#0066FF"/>
<path d="M64.9637 243.89V320.127H83.0701V299.162C106.704 309.073 146.919 310.28 163.119 309.645L167.884 327.751H202.191V282.009C234.973 282.009 258.416 275.655 266.04 272.479V288.679L292.723 279.15V239.125C270.614 255.897 226.65 264.855 207.909 264.855C200.285 264.855 176.461 265.808 141.201 264.855C106.145 263.908 75.764 250.878 64.9637 243.89Z" fill="#0043A7"/>
<ellipse cx="175.508" cy="234.36" rx="96.2496" ry="24.7771" fill="#0043A7"/>
<path d="M155.96 169.878C159.977 164.522 170.466 147.841 175.208 140.17C178.89 148.873 189.573 163.601 194.455 169.878C211.192 186.28 212.586 207.117 211.192 215.485C204.832 239.251 184.552 244.077 175.208 243.519C173.534 243.938 142.99 241.009 139.224 215.485C135.458 189.962 150.939 176.572 155.96 169.878Z" fill="url(#paint0_linear_58_1043)"/>
<path d="M148.847 189.543C146.895 199.864 146.337 220.925 159.726 222.598C151.218 223.435 137.132 217.996 148.847 189.543Z" fill="#FCFFE4"/>
<path d="M169.768 71.5495C201.233 34.394 195.71 8.36836 189.016 0C213.786 19.4146 205.752 53.8365 198.639 68.6206L188.179 89.5415C171.86 129.71 199.476 137.66 201.987 138.496C203.995 139.166 204.497 138.217 204.497 137.66C185.752 103.182 210.913 85.9152 225.836 81.5915C214.958 103.349 223.744 128.873 227.928 133.057C231.276 136.404 234.344 144.215 235.46 147.702C245.167 188.874 228.347 213.672 218.723 220.925C221.652 186.614 204.497 167.786 196.547 158.162C190.187 150.463 179.392 134.312 174.789 127.199C173.953 131.244 167.76 144.354 149.684 164.438C131.609 184.522 129.321 205.722 130.437 213.812C111.022 193.393 109.516 155.652 111.19 139.333C117.215 165.777 129.321 171.551 134.621 171.133C114.872 136.655 136.434 104.047 149.684 92.052L169.768 71.5495Z" fill="#EE1B24"/>
</g>
<defs>
<linearGradient id="paint0_linear_58_1043" x1="175.12" y1="140.17" x2="175.12" y2="243.561" gradientUnits="userSpaceOnUse">
<stop stop-color="#F9DA10"/>
<stop offset="1" stop-color="#F69F24"/>
</linearGradient>
</defs>
</svg>
