<svg width="84" height="60" viewBox="0 0 84 60" fill="none" xmlns="http://www.w3.org/2000/svg">
<path d="M5.1539 58.2383C4.5119 58.2383 4.0319 57.7853 4.0319 57.1583C4.0319 56.5313 4.5119 56.0783 5.1569 56.0783C5.4989 56.0783 5.7929 56.2013 5.9879 56.4293L5.7359 56.6663C5.5829 56.5013 5.3939 56.4203 5.1749 56.4203C4.7399 56.4203 4.4249 56.7263 4.4249 57.1583C4.4249 57.5903 4.7399 57.8963 5.1749 57.8963C5.3939 57.8963 5.5829 57.8153 5.7359 57.6473L5.9879 57.8873C5.7929 58.1153 5.4989 58.2383 5.1539 58.2383ZM7.97364 58.2383C7.32264 58.2383 6.84264 57.7793 6.84264 57.1583C6.84264 56.5373 7.32264 56.0783 7.97364 56.0783C8.62464 56.0783 9.10464 56.5343 9.10464 57.1583C9.10464 57.7823 8.62464 58.2383 7.97364 58.2383ZM7.97364 57.8963C8.39664 57.8963 8.71164 57.5873 8.71164 57.1583C8.71164 56.7293 8.39664 56.4203 7.97364 56.4203C7.55064 56.4203 7.23564 56.7293 7.23564 57.1583C7.23564 57.5873 7.55064 57.8963 7.97364 57.8963ZM11.672 56.1083H12.059V58.2083H11.738L10.58 56.7863V58.2083H10.193V56.1083H10.514L11.672 57.5303V56.1083ZM14.7757 56.1083H15.1627V58.2083H14.8417L13.6837 56.7863V58.2083H13.2967V56.1083H13.6177L14.7757 57.5303V56.1083ZM16.7905 57.8813H17.9755V58.2083H16.4005V56.1083H17.9335V56.4353H16.7905V56.9813H17.8045V57.3023H16.7905V57.8813ZM20.0484 58.2383C19.4064 58.2383 18.9264 57.7853 18.9264 57.1583C18.9264 56.5313 19.4064 56.0783 20.0514 56.0783C20.3934 56.0783 20.6874 56.2013 20.8824 56.4293L20.6304 56.6663C20.4774 56.5013 20.2884 56.4203 20.0694 56.4203C19.6344 56.4203 19.3194 56.7263 19.3194 57.1583C19.3194 57.5903 19.6344 57.8963 20.0694 57.8963C20.2884 57.8963 20.4774 57.8153 20.6304 57.6473L20.8824 57.8873C20.6874 58.1153 20.3934 58.2383 20.0484 58.2383ZM22.3337 58.2083V56.4383H21.6377V56.1083H23.4197V56.4383H22.7237V58.2083H22.3337ZM24.3747 58.2293C24.2397 58.2293 24.1287 58.1243 24.1287 57.9803C24.1287 57.8303 24.2397 57.7313 24.3747 57.7313C24.5097 57.7313 24.6207 57.8303 24.6207 57.9803C24.6207 58.1243 24.5097 58.2293 24.3747 58.2293ZM28.9962 58.2083H28.5762L28.1472 57.5933C28.1202 57.5963 28.0932 57.5963 28.0662 57.5963H27.5922V58.2083H27.2022V56.1083H28.0662C28.6182 56.1083 28.9602 56.3903 28.9602 56.8553C28.9602 57.1733 28.7982 57.4073 28.5132 57.5183L28.9962 58.2083ZM28.5672 56.8553C28.5672 56.5913 28.3902 56.4383 28.0482 56.4383H27.5922V57.2753H28.0482C28.3902 57.2753 28.5672 57.1193 28.5672 56.8553ZM30.4616 57.8813H31.6466V58.2083H30.0716V56.1083H31.6046V56.4353H30.4616V56.9813H31.4756V57.3023H30.4616V57.8813ZM34.2893 56.4353H33.1463V57.0743H34.1603V57.4043H33.1463V58.2083H32.7563V56.1083H34.2893V56.4353ZM35.3415 58.2083V56.1083H35.7315V58.2083H35.3415ZM36.9745 58.2083V56.1083H37.3645V57.8783H38.4625V58.2083H36.9745ZM39.4454 58.2083V56.1083H39.8354V57.8783H40.9334V58.2083H39.4454ZM42.0911 58.2293C41.9561 58.2293 41.8451 58.1243 41.8451 57.9803C41.8451 57.8303 41.9561 57.7313 42.0911 57.7313C42.2261 57.7313 42.3371 57.8303 42.3371 57.9803C42.3371 58.1243 42.2261 58.2293 42.0911 58.2293ZM45.8906 58.2383C45.2486 58.2383 44.7686 57.7853 44.7686 57.1583C44.7686 56.5313 45.2486 56.0783 45.8936 56.0783C46.2356 56.0783 46.5296 56.2013 46.7246 56.4293L46.4726 56.6663C46.3196 56.5013 46.1306 56.4203 45.9116 56.4203C45.4766 56.4203 45.1616 56.7263 45.1616 57.1583C45.1616 57.5903 45.4766 57.8963 45.9116 57.8963C46.1306 57.8963 46.3196 57.8153 46.4726 57.6473L46.7246 57.8873C46.5296 58.1153 46.2356 58.2383 45.8906 58.2383ZM48.7104 58.2383C48.0594 58.2383 47.5794 57.7793 47.5794 57.1583C47.5794 56.5373 48.0594 56.0783 48.7104 56.0783C49.3614 56.0783 49.8414 56.5343 49.8414 57.1583C49.8414 57.7823 49.3614 58.2383 48.7104 58.2383ZM48.7104 57.8963C49.1334 57.8963 49.4484 57.5873 49.4484 57.1583C49.4484 56.7293 49.1334 56.4203 48.7104 56.4203C48.2874 56.4203 47.9724 56.7293 47.9724 57.1583C47.9724 57.5873 48.2874 57.8963 48.7104 57.8963ZM51.9108 58.2383C51.2598 58.2383 50.7798 57.7793 50.7798 57.1583C50.7798 56.5373 51.2598 56.0783 51.9108 56.0783C52.5618 56.0783 53.0418 56.5343 53.0418 57.1583C53.0418 57.7823 52.5618 58.2383 51.9108 58.2383ZM51.9108 57.8963C52.3338 57.8963 52.6488 57.5873 52.6488 57.1583C52.6488 56.7293 52.3338 56.4203 51.9108 56.4203C51.4878 56.4203 51.1728 56.7293 51.1728 57.1583C51.1728 57.5873 51.4878 57.8963 51.9108 57.8963ZM55.5941 58.2083L54.8531 57.3293L54.5201 57.6713V58.2083H54.1301V56.1083H54.5201V57.1853L55.5581 56.1083H55.9961L55.1141 57.0473L56.0501 58.2083H55.5941ZM61.1918 56.1083H61.5638L60.8678 58.2083H60.4538L59.9348 56.6543L59.4068 58.2083H58.9898L58.2938 56.1083H58.6988L59.2208 57.7043L59.7638 56.1083H60.1238L60.6548 57.7133L61.1918 56.1083ZM62.5565 58.2083V56.1083H62.9465V58.2083H62.5565ZM64.6155 58.2083V56.4383H63.9195V56.1083H65.7015V56.4383H65.0055V58.2083H64.6155ZM68.1452 56.1083H68.5352V58.2083H68.1452V57.3083H67.0592V58.2083H66.6692V56.1083H67.0592V56.9753H68.1452V56.1083ZM71.667 57.8813H72.852V58.2083H71.277V56.1083H72.81V56.4353H71.667V56.9813H72.681V57.3023H71.667V57.8813ZM75.5338 58.2083L75.3238 57.7223H74.2738L74.0668 58.2083H73.6648L74.6098 56.1083H74.9938L75.9418 58.2083H75.5338ZM74.4058 57.4163H75.1948L74.7988 56.4983L74.4058 57.4163ZM77.5349 58.2383C77.2079 58.2383 76.8809 58.1363 76.7069 57.9863L76.8419 57.6833C77.0099 57.8183 77.2769 57.9143 77.5349 57.9143C77.8619 57.9143 77.9999 57.7973 77.9999 57.6413C77.9999 57.1883 76.7519 57.4853 76.7519 56.7053C76.7519 56.3663 77.0219 56.0783 77.5979 56.0783C77.8499 56.0783 78.1139 56.1443 78.2969 56.2643L78.1739 56.5673C77.9849 56.4563 77.7779 56.4023 77.5949 56.4023C77.2709 56.4023 77.1389 56.5283 77.1389 56.6873C77.1389 57.1343 78.3839 56.8433 78.3839 57.6143C78.3839 57.9503 78.1109 58.2383 77.5349 58.2383ZM79.8356 57.8813H81.0206V58.2083H79.4456V56.1083H80.9786V56.4353H79.8356V56.9813H80.8496V57.3023H79.8356V57.8813Z" fill="white"/>
<path d="M13.577 52.9262C7.8265 52.9262 3.5335 48.9247 3.5335 43.3332C3.5335 37.7417 7.8265 33.7402 13.6035 33.7402C16.81 33.7402 19.4865 34.9062 21.2355 37.0262L18.4795 39.5702C17.234 38.1392 15.6705 37.3972 13.8155 37.3972C10.344 37.3972 7.8795 39.8352 7.8795 43.3332C7.8795 46.8312 10.344 49.2692 13.8155 49.2692C15.6705 49.2692 17.234 48.5272 18.4795 47.0697L21.2355 49.6137C19.4865 51.7602 16.81 52.9262 13.577 52.9262ZM32.5086 38.1392C35.8741 38.1392 38.4181 40.1002 38.4181 44.4462V52.6082H34.2841V45.0822C34.2841 42.7767 33.2241 41.7167 31.3956 41.7167C29.4081 41.7167 27.9771 42.9357 27.9771 45.5592V52.6082H23.8431V32.9452H27.9771V39.8352C29.0901 38.7222 30.6801 38.1392 32.5086 38.1392ZM44.2323 36.3637C42.6953 36.3637 41.6618 35.3567 41.6618 34.0582C41.6618 32.7597 42.6953 31.7527 44.2323 31.7527C45.7693 31.7527 46.8028 32.7067 46.8028 33.9787C46.8028 35.3567 45.7693 36.3637 44.2323 36.3637ZM42.1653 52.6082V38.3512H46.2993V52.6082H42.1653ZM55.8865 38.1392C60.2325 38.1392 62.75 40.1532 62.75 44.4727V52.6082H58.881V50.8327C58.1125 52.1312 56.6285 52.8202 54.535 52.8202C51.196 52.8202 49.2085 50.9652 49.2085 48.5007C49.2085 45.9832 50.984 44.2342 55.33 44.2342H58.616C58.616 42.4587 57.556 41.4252 55.33 41.4252C53.8195 41.4252 52.256 41.9287 51.2225 42.7502L49.7385 39.8617C51.302 38.7487 53.6075 38.1392 55.8865 38.1392ZM55.5685 50.0377C56.9465 50.0377 58.139 49.4017 58.616 48.1032V46.6457H55.7805C53.846 46.6457 53.2365 47.3612 53.2365 48.3152C53.2365 49.3487 54.111 50.0377 55.5685 50.0377ZM75.157 38.1392C78.5225 38.1392 81.0665 40.1002 81.0665 44.4462V52.6082H76.9325V45.0822C76.9325 42.7767 75.8725 41.7167 74.044 41.7167C72.0565 41.7167 70.6255 42.9357 70.6255 45.5592V52.6082H66.4915V38.3512H70.44V40.0207C71.553 38.8017 73.2225 38.1392 75.157 38.1392Z" fill="white"/>
<path d="M9.31653 28.714C2.7964 28.1551 1.68384 35.053 1.94258 38.5718C-2.77676 28.388 2.20132 23.9791 5.28027 23.0477V19.6324C5.04741 18.08 8.92844 16.2171 16.6905 16.6052C22.9001 16.9157 24.0386 18.6492 23.8316 19.4771V22.7372C26.6259 24.2896 26.1343 27.3686 25.5392 28.714C24.6854 31.586 17.9324 31.2755 15.2157 30.1112C12.9927 29.1584 10.4032 28.6881 9.31653 28.714Z" fill="white"/>
<path d="M5.28027 19.8654V26.075H6.75506V24.3674C8.68005 25.1746 11.9556 25.273 13.2752 25.2212L13.6633 26.696H16.4576V22.9702C19.1278 22.9702 21.0372 22.4528 21.6582 22.194V23.5136L23.8316 22.7374V19.4773C22.0308 20.8434 18.4499 21.5731 16.9234 21.5731C16.3024 21.5731 14.3619 21.6507 11.4899 21.5731C8.63452 21.4959 6.15997 20.4346 5.28027 19.8654Z" fill="#E7E7E7"/>
<ellipse cx="14.2845" cy="19.0889" rx="7.83968" ry="2.01813" fill="#E7E7E7"/>
<path d="M12.6921 13.837C13.0192 13.4007 13.8735 12.0421 14.2598 11.4172C14.5597 12.1261 15.4299 13.3258 15.8275 13.837C17.1907 15.1729 17.3043 16.8702 17.1907 17.5518C16.6727 19.4876 15.0209 19.8806 14.2598 19.8352C14.1235 19.8693 11.6356 19.6307 11.3288 17.5518C11.0221 15.4729 12.2831 14.3823 12.6921 13.837Z" fill="#EEEEEE"/>
<path d="M12.1127 15.4387C11.9536 16.2794 11.9082 17.9948 12.9988 18.1311C12.3058 18.1993 11.1584 17.7562 12.1127 15.4387Z" fill="#FCFFE4"/>
<path d="M13.8167 5.82782C16.3796 2.80144 15.9297 0.681616 15.3844 0C17.402 1.58135 16.7476 4.38506 16.1683 5.58925L15.3162 7.29329C13.9871 10.565 16.2364 11.2126 16.4409 11.2807C16.6045 11.3353 16.6454 11.258 16.6454 11.2126C15.1186 8.40433 17.168 6.99792 18.3835 6.64576C17.4974 8.41796 18.2131 10.4969 18.5539 10.8377C18.8266 11.1103 19.0765 11.7465 19.1674 12.0305C19.958 15.3841 18.588 17.4039 17.8041 17.9947C18.0427 15.2 16.6454 13.6664 15.9979 12.8825C15.4798 12.2555 14.6005 10.9399 14.2257 10.3606C14.1575 10.69 13.6531 11.7579 12.1808 13.3938C10.7085 15.0296 10.5222 16.7564 10.6131 17.4153C9.03174 15.7521 8.90905 12.6781 9.04538 11.3489C9.53614 13.5028 10.5222 13.9731 10.9539 13.939C9.34528 11.1308 11.1016 8.47476 12.1808 7.49778L13.8167 5.82782Z" fill="white"/>
</svg>
